NuosuSIL-Bold.ufo
<glyph name="exclam" format="2">
  <advance width="709"/>
  <unicode hex="0021"/>
  <outline>
    <contour>
      <point x="335" y="373" type="line"/>
      <point x="375" y="373" type="line"/>
      <point x="469" y="1218" type="line" smooth="yes"/>
      <point x="472" y="1243"/>
      <point x="473" y="1266"/>
      <point x="473" y="1287" type="curve" smooth="yes"/>
      <point x="473" y="1369"/>
      <point x="438" y="1443"/>
      <point x="358" y="1443" type="curve" smooth="yes"/>
      <point x="278" y="1443"/>
      <point x="227" y="1378"/>
      <point x="236" y="1297" type="curve" smooth="yes"/>
      <point x="245" y="1218" type="line"/>
    </contour>
    <contour>
      <point x="355" y="-31" type="curve" smooth="yes"/>
      <point x="386" y="-31"/>
      <point x="413" y="-19"/>
      <point x="436" y="4" type="curve" smooth="yes"/>
      <point x="459" y="27"/>
      <point x="469" y="56"/>
      <point x="469" y="89" type="curve" smooth="yes"/>
      <point x="469" y="122"/>
      <point x="458" y="147"/>
      <point x="433" y="169" type="curve" smooth="yes"/>
      <point x="411" y="190"/>
      <point x="383" y="200"/>
      <point x="355" y="200" type="curve" smooth="yes"/>
      <point x="325" y="200"/>
      <point x="299" y="192"/>
      <point x="278" y="172" type="curve" smooth="yes"/>
      <point x="252" y="150"/>
      <point x="238" y="123"/>
      <point x="238" y="89" type="curve" smooth="yes"/>
      <point x="238" y="50"/>
      <point x="252" y="20"/>
      <point x="279" y="-1" type="curve" smooth="yes"/>
      <point x="302" y="-20"/>
      <point x="326" y="-31"/>
    </contour>
  </outline>
</glyph>
<glyph name="two" format="2">
  <advance width="1065"/>
  <unicode hex="0032"/>
  <outline>
    <contour>
      <point x="47" y="0" type="line"/>
      <point x="878" y="0" type="line"/>
      <point x="978" y="270" type="line"/>
      <point x="940" y="270" type="line"/>
      <point x="901" y="216"/>
      <point x="858" y="182"/>
      <point x="809" y="169" type="curve" smooth="yes"/>
      <point x="784" y="162"/>
      <point x="726" y="157"/>
      <point x="638" y="157" type="curve" smooth="yes"/>
      <point x="269" y="157" type="line"/>
      <point x="302" y="187"/>
      <point x="409" y="302"/>
      <point x="591" y="498" type="curve" smooth="yes"/>
      <point x="792" y="716"/>
      <point x="892" y="908"/>
      <point x="892" y="1070" type="curve" smooth="yes"/>
      <point x="892" y="1181"/>
      <point x="849" y="1271"/>
      <point x="765" y="1343" type="curve" smooth="yes"/>
      <point x="686" y="1409"/>
      <point x="595" y="1441"/>
      <point x="488" y="1441" type="curve" smooth="yes"/>
      <point x="353" y="1441"/>
      <point x="250" y="1390"/>
      <point x="179" y="1290" type="curve" smooth="yes"/>
      <point x="130" y="1223"/>
      <point x="100" y="1141"/>
      <point x="89" y="1044" type="curve"/>
      <point x="124" y="1044" type="line"/>
      <point x="180" y="1203"/>
      <point x="283" y="1281"/>
      <point x="435" y="1281" type="curve" smooth="yes"/>
      <point x="496" y="1281"/>
      <point x="553" y="1260"/>
      <point x="606" y="1218" type="curve" smooth="yes"/>
      <point x="678" y="1161"/>
      <point x="714" y="1081"/>
      <point x="714" y="974" type="curve" smooth="yes"/>
      <point x="714" y="859"/>
      <point x="664" y="729"/>
      <point x="563" y="586" type="curve" smooth="yes"/>
      <point x="500" y="496"/>
      <point x="419" y="400"/>
      <point x="320" y="299" type="curve" smooth="yes"/>
      <point x="265" y="243"/>
      <point x="174" y="156"/>
      <point x="47" y="39" type="curve"/>
    </contour>
  </outline>
</glyph>
<glyph name="greater" format="2">
  <advance width="2051"/>
  <unicode hex="003E"/>
  <outline>
    <contour>
      <point x="410" y="80" type="line"/>
      <point x="1640" y="552" type="line"/>
      <point x="1640" y="679" type="line"/>
      <point x="410" y="1150" type="line"/>
      <point x="410" y="1022" type="line"/>
      <point x="1509" y="615" type="line"/>
      <point x="410" y="207" type="line"/>
    </contour>
  </outline>
</glyph>
<glyph name="L" format="2">
  <advance width="1301"/>
  <unicode hex="004C"/>
  <outline>
    <contour>
      <point x="39" y="0" type="line"/>
      <point x="1135" y="0" type="line"/>
      <point x="1258" y="383" type="line"/>
      <point x="1221" y="389" type="line"/>
      <point x="1175" y="282"/>
      <point x="1123" y="202"/>
      <point x="1064" y="152" type="curve" smooth="yes"/>
      <point x="1017" y="110"/>
      <point x="917" y="90"/>
      <point x="765" y="90" type="curve" smooth="yes"/>
      <point x="621" y="90" type="line" smooth="yes"/>
      <point x="555" y="90"/>
      <point x="511" y="100"/>
      <point x="488" y="119" type="curve" smooth="yes"/>
      <point x="459" y="143"/>
      <point x="445" y="192"/>
      <point x="445" y="266" type="curve" smooth="yes"/>
      <point x="445" y="1195" type="line" smooth="yes"/>
      <point x="445" y="1268"/>
      <point x="465" y="1318"/>
      <point x="502" y="1343" type="curve" smooth="yes"/>
      <point x="531" y="1361"/>
      <point x="581" y="1371"/>
      <point x="652" y="1371" type="curve"/>
      <point x="652" y="1410" type="line"/>
      <point x="39" y="1410" type="line"/>
      <point x="39" y="1371" type="line"/>
      <point x="110" y="1371"/>
      <point x="160" y="1361"/>
      <point x="189" y="1343" type="curve" smooth="yes"/>
      <point x="227" y="1318"/>
      <point x="246" y="1268"/>
      <point x="246" y="1195" type="curve" smooth="yes"/>
      <point x="246" y="216" type="line" smooth="yes"/>
      <point x="246" y="142"/>
      <point x="227" y="93"/>
      <point x="189" y="67" type="curve" smooth="yes"/>
      <point x="160" y="49"/>
      <point x="110" y="39"/>
      <point x="39" y="39" type="curve"/>
    </contour>
  </outline>
</glyph>
<glyph name="backslash" format="2">
  <advance width="592"/>
  <unicode hex="005C"/>
  <outline>
    <contour>
      <point x="515" y="-31" type="line"/>
      <point x="601" y="-31" type="line"/>
      <point x="93" y="1480" type="line"/>
      <point x="1" y="1480" type="line"/>
    </contour>
  </outline>
</glyph>
<glyph name="underscore" format="2">
  <advance width="1025"/>
  <unicode hex="005F"/>
  <outline>
    <contour>
      <point x="0" y="-240" type="line"/>
      <point x="1025" y="-240" type="line"/>
      <point x="1025" y="-164" type="line"/>
      <point x="0" y="-164" type="line"/>
    </contour>
  </outline>
</glyph>
<glyph name="a" format="2">
  <advance width="947"/>
  <unicode hex="0061"/>
  <outline>
    <contour>
      <point x="303" y="-19" type="curve" smooth="yes"/>
      <point x="352" y="-19"/>
      <point x="393" y="-9"/>
      <point x="430" y="10" type="curve" smooth="yes"/>
      <point x="460" y="26"/>
      <point x="519" y="69"/>
      <point x="606" y="137" type="curve"/>
      <point x="606" y="33"/>
      <point x="643" y="-19"/>
      <point x="718" y="-19" type="curve" smooth="yes"/>
      <point x="791" y="-19"/>
      <point x="867" y="33"/>
      <point x="945" y="137" type="curve"/>
      <point x="945" y="197" type="line"/>
      <point x="889" y="140"/>
      <point x="851" y="113"/>
      <point x="832" y="113" type="curve" smooth="yes"/>
      <point x="808" y="113"/>
      <point x="792" y="130"/>
      <point x="786" y="164" type="curve" smooth="yes"/>
      <point x="782" y="193"/>
      <point x="781" y="247"/>
      <point x="781" y="330" type="curve" smooth="yes"/>
      <point x="781" y="656" type="line" smooth="yes"/>
      <point x="781" y="768"/>
      <point x="762" y="847"/>
      <point x="725" y="892" type="curve" smooth="yes"/>
      <point x="678" y="951"/>
      <point x="589" y="980"/>
      <point x="462" y="980" type="curve" smooth="yes"/>
      <point x="366" y="980"/>
      <point x="286" y="958"/>
      <point x="219" y="917" type="curve" smooth="yes"/>
      <point x="149" y="872"/>
      <point x="113" y="815"/>
      <point x="113" y="742" type="curve" smooth="yes"/>
      <point x="113" y="675"/>
      <point x="142" y="642"/>
      <point x="200" y="642" type="curve" smooth="yes"/>
      <point x="262" y="642"/>
      <point x="289" y="675"/>
      <point x="287" y="741" type="curve" smooth="yes"/>
      <point x="285" y="802" type="line"/>
      <point x="287" y="835"/>
      <point x="302" y="864"/>
      <point x="327" y="885" type="curve" smooth="yes"/>
      <point x="352" y="908"/>
      <point x="386" y="918"/>
      <point x="429" y="918" type="curve" smooth="yes"/>
      <point x="490" y="918"/>
      <point x="535" y="899"/>
      <point x="563" y="861" type="curve" smooth="yes"/>
      <point x="592" y="822"/>
      <point x="606" y="759"/>
      <point x="606" y="671" type="curve" smooth="yes"/>
      <point x="606" y="632" type="line"/>
      <point x="395" y="559"/>
      <point x="250" y="489"/>
      <point x="172" y="422" type="curve" smooth="yes"/>
      <point x="109" y="369"/>
      <point x="76" y="303"/>
      <point x="76" y="226" type="curve" smooth="yes"/>
      <point x="76" y="152"/>
      <point x="97" y="93"/>
      <point x="139" y="49" type="curve" smooth="yes"/>
      <point x="180" y="4"/>
      <point x="235" y="-19"/>
    </contour>
    <contour>
      <point x="398" y="100" type="curve" smooth="yes"/>
      <point x="356" y="102"/>
      <point x="322" y="119"/>
      <point x="295" y="152" type="curve" smooth="yes"/>
      <point x="266" y="184"/>
      <point x="252" y="226"/>
      <point x="252" y="275" type="curve" smooth="yes"/>
      <point x="252" y="327"/>
      <point x="272" y="373"/>
      <point x="309" y="410" type="curve" smooth="yes"/>
      <point x="360" y="459"/>
      <point x="459" y="512"/>
      <point x="606" y="571" type="curve"/>
      <point x="606" y="204" type="line"/>
      <point x="519" y="134"/>
      <point x="449" y="99"/>
    </contour>
  </outline>
</glyph>
<glyph name="b" format="2">
  <advance width="1065"/>
  <unicode hex="0062"/>
  <outline>
    <contour>
      <point x="500" y="-31" type="curve" smooth="yes"/>
      <point x="633" y="-31"/>
      <point x="749" y="21"/>
      <point x="847" y="126" type="curve" smooth="yes"/>
      <point x="944" y="230"/>
      <point x="992" y="360"/>
      <point x="992" y="515" type="curve" smooth="yes"/>
      <point x="992" y="655"/>
      <point x="957" y="769"/>
      <point x="884" y="857" type="curve" smooth="yes"/>
      <point x="815" y="940"/>
      <point x="728" y="980"/>
      <point x="628" y="980" type="curve" smooth="yes"/>
      <point x="521" y="980"/>
      <point x="420" y="917"/>
      <point x="327" y="789" type="curve"/>
      <point x="327" y="1480" type="line"/>
      <point x="279" y="1480" type="line"/>
      <point x="-9" y="1366" type="line"/>
      <point x="6" y="1328" type="line"/>
      <point x="63" y="1346"/>
      <point x="102" y="1347"/>
      <point x="122" y="1330" type="curve" smooth="yes"/>
      <point x="134" y="1320"/>
      <point x="144" y="1301"/>
      <point x="147" y="1277" type="curve" smooth="yes"/>
      <point x="152" y="1246"/>
      <point x="154" y="1180"/>
      <point x="154" y="1078" type="curve" smooth="yes"/>
      <point x="154" y="93" type="line"/>
      <point x="275" y="10"/>
      <point x="389" y="-31"/>
    </contour>
    <contour>
      <point x="553" y="47" type="curve" smooth="yes"/>
      <point x="473" y="47"/>
      <point x="398" y="82"/>
      <point x="327" y="152" type="curve"/>
      <point x="327" y="724" type="line"/>
      <point x="406" y="798"/>
      <point x="478" y="834"/>
      <point x="543" y="834" type="curve" smooth="yes"/>
      <point x="618" y="834"/>
      <point x="682" y="801"/>
      <point x="734" y="732" type="curve" smooth="yes"/>
      <point x="786" y="664"/>
      <point x="812" y="571"/>
      <point x="812" y="455" type="curve" smooth="yes"/>
      <point x="812" y="327"/>
      <point x="785" y="226"/>
      <point x="729" y="150" type="curve" smooth="yes"/>
      <point x="679" y="82"/>
      <point x="621" y="47"/>
    </contour>
  </outline>
</glyph>
<glyph name="f" format="2">
  <advance width="709"/>
  <unicode hex="0066"/>
  <outline>
    <contour>
      <point x="84" y="0" type="line"/>
      <point x="658" y="0" type="line"/>
      <point x="658" y="39" type="line"/>
      <point x="572" y="39" type="line" smooth="yes"/>
      <point x="525" y="39"/>
      <point x="492" y="54"/>
      <point x="469" y="84" type="curve"/>
      <point x="449" y="104"/>
      <point x="439" y="160"/>
      <point x="439" y="252" type="curve" smooth="yes"/>
      <point x="439" y="878" type="line"/>
      <point x="685" y="878" type="line"/>
      <point x="685" y="954" type="line"/>
      <point x="439" y="954" type="line"/>
      <point x="439" y="1021" type="line" smooth="yes"/>
      <point x="439" y="1168"/>
      <point x="448" y="1266"/>
      <point x="462" y="1311" type="curve" smooth="yes"/>
      <point x="479" y="1371"/>
      <point x="519" y="1403"/>
      <point x="582" y="1403" type="curve" smooth="yes"/>
      <point x="633" y="1403"/>
      <point x="682" y="1371"/>
      <point x="726" y="1308" type="curve" smooth="yes"/>
      <point x="771" y="1247"/>
      <point x="809" y="1215"/>
      <point x="842" y="1215" type="curve" smooth="yes"/>
      <point x="864" y="1215"/>
      <point x="884" y="1226"/>
      <point x="901" y="1244" type="curve" smooth="yes"/>
      <point x="918" y="1264"/>
      <point x="927" y="1283"/>
      <point x="927" y="1301" type="curve" smooth="yes"/>
      <point x="927" y="1348"/>
      <point x="898" y="1390"/>
      <point x="842" y="1426" type="curve" smooth="yes"/>
      <point x="786" y="1461"/>
      <point x="726" y="1480"/>
      <point x="664" y="1480" type="curve" smooth="yes"/>
      <point x="583" y="1480"/>
      <point x="509" y="1457"/>
      <point x="440" y="1410" type="curve" smooth="yes"/>
      <point x="323" y="1331"/>
      <point x="265" y="1200"/>
      <point x="265" y="1017" type="curve" smooth="yes"/>
      <point x="265" y="954" type="line"/>
      <point x="77" y="954" type="line"/>
      <point x="77" y="878" type="line"/>
      <point x="265" y="878" type="line"/>
      <point x="265" y="252" type="line" smooth="yes"/>
      <point x="265" y="156"/>
      <point x="252" y="97"/>
      <point x="225" y="74" type="curve" smooth="yes"/>
      <point x="197" y="50"/>
      <point x="166" y="39"/>
      <point x="127" y="39" type="curve" smooth="yes"/>
      <point x="84" y="39" type="line"/>
    </contour>
  </outline>
</glyph>
<glyph name="r" format="2">
  <advance width="729"/>
  <unicode hex="0072"/>
  <outline>
    <contour>
      <point x="19" y="0" type="line"/>
      <point x="512" y="0" type="line"/>
      <point x="512" y="39" type="line"/>
      <point x="448" y="39"/>
      <point x="403" y="54"/>
      <point x="378" y="86" type="curve" smooth="yes"/>
      <point x="355" y="113"/>
      <point x="345" y="159"/>
      <point x="345" y="222" type="curve" smooth="yes"/>
      <point x="345" y="681" type="line"/>
      <point x="402" y="788"/>
      <point x="448" y="842"/>
      <point x="483" y="842" type="curve" smooth="yes"/>
      <point x="498" y="842"/>
      <point x="519" y="831"/>
      <point x="549" y="805" type="curve" smooth="yes"/>
      <point x="579" y="781"/>
      <point x="606" y="769"/>
      <point x="632" y="769" type="curve" smooth="yes"/>
      <point x="658" y="769"/>
      <point x="679" y="779"/>
      <point x="698" y="798" type="curve" smooth="yes"/>
      <point x="716" y="818"/>
      <point x="725" y="841"/>
      <point x="725" y="865" type="curve" smooth="yes"/>
      <point x="725" y="898"/>
      <point x="712" y="925"/>
      <point x="686" y="947" type="curve" smooth="yes"/>
      <point x="661" y="970"/>
      <point x="629" y="980"/>
      <point x="591" y="980" type="curve" smooth="yes"/>
      <point x="506" y="980"/>
      <point x="423" y="909"/>
      <point x="345" y="766" type="curve"/>
      <point x="345" y="980" type="line"/>
      <point x="303" y="980" type="line"/>
      <point x="9" y="865" type="line"/>
      <point x="19" y="828" type="line"/>
      <point x="64" y="848"/>
      <point x="106" y="848"/>
      <point x="139" y="831" type="curve"/>
      <point x="160" y="805"/>
      <point x="170" y="724"/>
      <point x="170" y="585" type="curve" smooth="yes"/>
      <point x="170" y="216" type="line" smooth="yes"/>
      <point x="170" y="137"/>
      <point x="160" y="89"/>
      <point x="142" y="69" type="curve" smooth="yes"/>
      <point x="123" y="49"/>
      <point x="82" y="39"/>
      <point x="19" y="39" type="curve"/>
    </contour>
  </outline>
</glyph>
<glyph name="v" format="2">
  <advance width="1065"/>
  <unicode hex="0076"/>
  <outline>
    <contour>
      <point x="525" y="-31" type="line"/>
      <point x="568" y="-31" type="line"/>
      <point x="907" y="789" type="line" smooth="yes"/>
      <point x="925" y="835"/>
      <point x="947" y="871"/>
      <point x="970" y="894" type="curve"/>
      <point x="988" y="907"/>
      <point x="1014" y="912"/>
      <point x="1048" y="914" type="curve"/>
      <point x="1048" y="954" type="line"/>
      <point x="736" y="954" type="line"/>
      <point x="736" y="914" type="line"/>
      <point x="792" y="914"/>
      <point x="825" y="907"/>
      <point x="837" y="889" type="curve" smooth="yes"/>
      <point x="848" y="872"/>
      <point x="844" y="834"/>
      <point x="819" y="776" type="curve" smooth="yes"/>
      <point x="596" y="230" type="line"/>
      <point x="375" y="755" type="line" smooth="yes"/>
      <point x="362" y="786"/>
      <point x="355" y="815"/>
      <point x="355" y="838" type="curve" smooth="yes"/>
      <point x="355" y="889"/>
      <point x="382" y="914"/>
      <point x="436" y="914" type="curve" smooth="yes"/>
      <point x="468" y="914" type="line"/>
      <point x="468" y="954" type="line"/>
      <point x="16" y="954" type="line"/>
      <point x="16" y="914" type="line"/>
      <point x="56" y="908"/>
      <point x="80" y="902"/>
      <point x="89" y="898" type="curve"/>
      <point x="127" y="874"/>
      <point x="159" y="832"/>
      <point x="183" y="776" type="curve" smooth="yes"/>
    </contour>
  </outline>
</glyph>
<glyph name="bar" format="2">
  <advance width="426"/>
  <unicode hex="007C"/>
  <outline>
    <contour>
      <point x="169" y="-462" type="line"/>
      <point x="256" y="-462" type="line"/>
      <point x="256" y="1480" type="line"/>
      <point x="169" y="1480" type="line"/>
    </contour>
  </outline>
</glyph>
<glyph name="ordfeminine" format="2">
  <advance width="679"/>
  <unicode hex="00AA"/>
  <outline>
    <contour>
      <point x="217" y="827" type="curve" smooth="yes"/>
      <point x="289" y="827"/>
      <point x="313" y="842"/>
      <point x="434" y="920" type="curve"/>
      <point x="434" y="848"/>
      <point x="471" y="827"/>
      <point x="514" y="827" type="curve" smooth="yes"/>
      <point x="567" y="827"/>
      <point x="621" y="859"/>
      <point x="677" y="920" type="curve"/>
      <point x="677" y="956" type="line"/>
      <point x="624" y="910"/>
      <point x="612" y="905"/>
      <point x="596" y="905" type="curve" smooth="yes"/>
      <point x="575" y="905"/>
      <point x="565" y="914"/>
      <point x="563" y="937" type="curve"/>
      <point x="559" y="948"/>
      <point x="559" y="983"/>
      <point x="559" y="1036" type="curve" smooth="yes"/>
      <point x="559" y="1232" type="line" smooth="yes"/>
      <point x="559" y="1350"/>
      <point x="528" y="1425"/>
      <point x="330" y="1425" type="curve" smooth="yes"/>
      <point x="199" y="1425"/>
      <point x="80" y="1372"/>
      <point x="80" y="1283" type="curve" smooth="yes"/>
      <point x="80" y="1245"/>
      <point x="101" y="1224"/>
      <point x="143" y="1224" type="curve" smooth="yes"/>
      <point x="179" y="1224"/>
      <point x="206" y="1245"/>
      <point x="204" y="1283" type="curve" smooth="yes"/>
      <point x="202" y="1319" type="line"/>
      <point x="206" y="1359"/>
      <point x="244" y="1390"/>
      <point x="305" y="1390" type="curve" smooth="yes"/>
      <point x="393" y="1390"/>
      <point x="434" y="1350"/>
      <point x="434" y="1239" type="curve" smooth="yes"/>
      <point x="434" y="1217" type="line"/>
      <point x="109" y="1123"/>
      <point x="53" y="1057"/>
      <point x="53" y="973" type="curve" smooth="yes"/>
      <point x="53" y="886"/>
      <point x="119" y="827"/>
    </contour>
    <contour>
      <point x="61" y="680" type="line"/>
      <point x="664" y="680" type="line"/>
      <point x="664" y="725" type="line"/>
      <point x="61" y="725" type="line"/>
    </contour>
    <contour>
      <point x="284" y="897" type="curve" smooth="yes"/>
      <point x="226" y="899"/>
      <point x="179" y="945"/>
      <point x="179" y="1001" type="curve" smooth="yes"/>
      <point x="179" y="1057"/>
      <point x="202" y="1104"/>
      <point x="434" y="1181" type="curve"/>
      <point x="434" y="962" type="line"/>
      <point x="373" y="920"/>
      <point x="322" y="895"/>
    </contour>
  </outline>
</glyph>
<glyph name="guillemotleft" format="2">
  <advance width="1066"/>
  <unicode hex="00AB"/>
  <outline>
    <contour>
      <point x="939" y="-8" type="line"/>
      <point x="998" y="-8" type="line"/>
      <point x="743" y="483" type="line"/>
      <point x="998" y="971" type="line"/>
      <point x="939" y="971" type="line"/>
      <point x="528" y="483" type="line"/>
    </contour>
    <contour>
      <point x="469" y="-8" type="line"/>
      <point x="526" y="-8" type="line"/>
      <point x="272" y="483" type="line"/>
      <point x="526" y="971" type="line"/>
      <point x="469" y="971" type="line"/>
      <point x="66" y="483" type="line"/>
    </contour>
  </outline>
</glyph>
<glyph name="uni00AD" format="2">
  <advance width="709"/>
  <unicode hex="00AD"/>
  <outline>
    <contour>
      <point x="86" y="398" type="line"/>
      <point x="623" y="398" type="line"/>
      <point x="623" y="556" type="line"/>
      <point x="86" y="556" type="line"/>
    </contour>
  </outline>
</glyph>
<glyph name="degree" format="2">
  <advance width="1600"/>
  <unicode hex="00B0"/>
  <outline>
    <contour>
      <point x="799" y="1529" type="curve" smooth="yes"/>
      <point x="942" y="1529"/>
      <point x="1057" y="1643"/>
      <point x="1057" y="1786" type="curve" smooth="yes"/>
      <point x="1057" y="1929"/>
      <point x="942" y="2045"/>
      <point x="799" y="2045" type="curve" smooth="yes"/>
      <point x="656" y="2045"/>
      <point x="542" y="1929"/>
      <point x="542" y="1786" type="curve" smooth="yes"/>
      <point x="542" y="1643"/>
      <point x="656" y="1529"/>
    </contour>
    <contour>
      <point x="799" y="1623" type="curve" smooth="yes"/>
      <point x="708" y="1623"/>
      <point x="636" y="1695"/>
      <point x="636" y="1786" type="curve" smooth="yes"/>
      <point x="636" y="1878"/>
      <point x="708" y="1951"/>
      <point x="799" y="1951" type="curve" smooth="yes"/>
      <point x="891" y="1951"/>
      <point x="964" y="1878"/>
      <point x="964" y="1786" type="curve" smooth="yes"/>
      <point x="964" y="1695"/>
      <point x="891" y="1623"/>
    </contour>
  </outline>
</glyph>
<glyph name="guillemotright" format="2">
  <advance width="1066"/>
  <unicode hex="00BB"/>
  <outline>
    <contour>
      <point x="67" y="-8" type="line"/>
      <point x="126" y="-8" type="line"/>
      <point x="537" y="481" type="line"/>
      <point x="126" y="971" type="line"/>
      <point x="67" y="971" type="line"/>
      <point x="322" y="481" type="line"/>
    </contour>
    <contour>
      <point x="539" y="-8" type="line"/>
      <point x="596" y="-8" type="line"/>
      <point x="999" y="481" type="line"/>
      <point x="596" y="971" type="line"/>
      <point x="539" y="971" type="line"/>
      <point x="793" y="481" type="line"/>
    </contour>
  </outline>
</glyph>
<glyph name="threequarters" format="2">
  <advance width="1578"/>
  <unicode hex="00BE"/>
  <outline>
    <contour>
      <point x="308" y="-15" type="line"/>
      <point x="412" y="-15" type="line"/>
      <point x="1374" y="1437" type="line"/>
      <point x="1279" y="1437" type="line"/>
    </contour>
    <contour>
      <point x="293" y="528" type="curve" smooth="yes"/>
      <point x="502" y="528"/>
      <point x="631" y="652"/>
      <point x="631" y="827" type="curve" smooth="yes"/>
      <point x="631" y="971"/>
      <point x="526" y="1030"/>
      <point x="473" y="1051" type="curve"/>
      <point x="549" y="1119"/>
      <point x="588" y="1183"/>
      <point x="588" y="1243" type="curve" smooth="yes"/>
      <point x="588" y="1289"/>
      <point x="555" y="1418"/>
      <point x="388" y="1418" type="curve" smooth="yes"/>
      <point x="232" y="1418"/>
      <point x="184" y="1289"/>
      <point x="158" y="1236" type="curve"/>
      <point x="179" y="1226" type="line"/>
      <point x="223" y="1294"/>
      <point x="279" y="1330"/>
      <point x="344" y="1330" type="curve" smooth="yes"/>
      <point x="399" y="1330"/>
      <point x="483" y="1296"/>
      <point x="483" y="1186" type="curve" smooth="yes"/>
      <point x="483" y="1028"/>
      <point x="322" y="992"/>
      <point x="289" y="988" type="curve"/>
      <point x="289" y="968" type="line"/>
      <point x="289" y="968"/>
      <point x="539" y="977"/>
      <point x="539" y="750" type="curve" smooth="yes"/>
      <point x="539" y="650"/>
      <point x="453" y="584"/>
      <point x="379" y="584" type="curve" smooth="yes"/>
      <point x="291" y="584"/>
      <point x="257" y="641"/>
      <point x="197" y="641" type="curve" smooth="yes"/>
      <point x="170" y="641"/>
      <point x="145" y="624"/>
      <point x="145" y="599" type="curve" smooth="yes"/>
      <point x="145" y="580"/>
      <point x="151" y="528"/>
    </contour>
    <contour>
      <point x="1214" y="-8" type="line"/>
      <point x="1319" y="-8" type="line"/>
      <point x="1319" y="219" type="line"/>
      <point x="1433" y="219" type="line"/>
      <point x="1433" y="306" type="line"/>
      <point x="1319" y="306" type="line"/>
      <point x="1319" y="865" type="line"/>
      <point x="1250" y="865" type="line"/>
      <point x="852" y="297" type="line"/>
      <point x="852" y="219" type="line"/>
      <point x="1214" y="219" type="line"/>
    </contour>
    <contour>
      <point x="914" y="306" type="line"/>
      <point x="1214" y="732" type="line"/>
      <point x="1214" y="306" type="line"/>
    </contour>
  </outline>
</glyph>
<glyph name="multiply" format="2">
  <advance width="2049"/>
  <unicode hex="00D7"/>
  <outline>
    <contour>
      <point x="551" y="61" type="line"/>
      <point x="1024" y="537" type="line"/>
      <point x="1498" y="61" type="line"/>
      <point x="1578" y="141" type="line"/>
      <point x="1106" y="614" type="line"/>
      <point x="1578" y="1087" type="line"/>
      <point x="1498" y="1167" type="line"/>
      <point x="1024" y="692" type="line"/>
      <point x="551" y="1167" type="line"/>
      <point x="471" y="1087" type="line"/>
      <point x="943" y="614" type="line"/>
      <point x="471" y="141" type="line"/>
    </contour>
  </outline>
</glyph>
<glyph name="Oslash" format="2">
  <advance width="1539"/>
  <unicode hex="00D8"/>
  <anchor x="766" y="-104" name="L"/>
  <anchor x="766" y="1492" name="U"/>
  <outline>
    <contour>
      <point x="209" y="-48" type="line"/>
      <point x="339" y="111" type="line"/>
      <point x="458" y="15"/>
      <point x="606" y="-33"/>
      <point x="762" y="-33" type="curve" smooth="yes"/>
      <point x="1156" y="-33"/>
      <point x="1454" y="287"/>
      <point x="1454" y="713" type="curve" smooth="yes"/>
      <point x="1454" y="925"/>
      <point x="1376" y="1109"/>
      <point x="1253" y="1238" type="curve"/>
      <point x="1392" y="1410" type="line"/>
      <point x="1330" y="1454" type="line"/>
      <point x="1197" y="1291" type="line"/>
      <point x="1081" y="1389"/>
      <point x="938" y="1443"/>
      <point x="781" y="1443" type="curve" smooth="yes"/>
      <point x="379" y="1443"/>
      <point x="73" y="1131"/>
      <point x="73" y="709" type="curve" smooth="yes"/>
      <point x="73" y="483"/>
      <point x="151" y="296"/>
      <point x="280" y="164" type="curve"/>
      <point x="146" y="0" type="line"/>
    </contour>
    <contour>
      <point x="760" y="40" type="curve" smooth="yes"/>
      <point x="618" y="40"/>
      <point x="506" y="107"/>
      <point x="429" y="223" type="curve"/>
      <point x="1149" y="1110" type="line"/>
      <point x="1204" y="974"/>
      <point x="1219" y="848"/>
      <point x="1219" y="686" type="curve" smooth="yes"/>
      <point x="1218" y="242"/>
      <point x="1030" y="40"/>
    </contour>
    <contour>
      <point x="390" y="298" type="line"/>
      <point x="333" y="430"/>
      <point x="313" y="561"/>
      <point x="313" y="715" type="curve" smooth="yes"/>
      <point x="313" y="1120"/>
      <point x="475" y="1369"/>
      <point x="758" y="1369" type="curve" smooth="yes"/>
      <point x="915" y="1369"/>
      <point x="1030" y="1305"/>
      <point x="1109" y="1184" type="curve"/>
    </contour>
  </outline>
</glyph>
<glyph name="circumflex" format="2">
  <advance width="668"/>
  <unicode hex="02C6"/>
  <outline>
    <contour>
      <point x="0" y="1083" type="line"/>
      <point x="73" y="1083" type="line"/>
      <point x="333" y="1306" type="line"/>
      <point x="594" y="1083" type="line"/>
      <point x="668" y="1083" type="line"/>
      <point x="401" y="1441" type="line"/>
      <point x="268" y="1441" type="line"/>
    </contour>
  </outline>
</glyph>
<glyph name="dotaccent" format="2">
  <advance width="213"/>
  <unicode hex="02D9"/>
  <outline>
    <contour>
      <point x="106" y="1170" type="curve" smooth="yes"/>
      <point x="173" y="1170"/>
      <point x="213" y="1209"/>
      <point x="213" y="1277" type="curve" smooth="yes"/>
      <point x="213" y="1342"/>
      <point x="173" y="1383"/>
      <point x="106" y="1383" type="curve" smooth="yes"/>
      <point x="42" y="1383"/>
      <point x="0" y="1340"/>
      <point x="0" y="1277" type="curve" smooth="yes"/>
      <point x="0" y="1212"/>
      <point x="42" y="1170"/>
    </contour>
  </outline>
</glyph>
<glyph name="tilde" format="2">
  <advance width="709"/>
  <unicode hex="02DC"/>
  <outline>
    <contour>
      <point x="0" y="1170" type="curve"/>
      <point x="55" y="1170" type="line"/>
      <point x="60" y="1216"/>
      <point x="120" y="1268"/>
      <point x="175" y="1268" type="curve" smooth="yes"/>
      <point x="314" y="1268"/>
      <point x="327" y="1170"/>
      <point x="483" y="1170" type="curve" smooth="yes"/>
      <point x="602" y="1170"/>
      <point x="697" y="1284"/>
      <point x="709" y="1397" type="curve"/>
      <point x="653" y="1397" type="line"/>
      <point x="636" y="1330"/>
      <point x="574" y="1292"/>
      <point x="506" y="1292" type="curve" smooth="yes"/>
      <point x="398" y="1292"/>
      <point x="343" y="1387"/>
      <point x="236" y="1387" type="curve" smooth="yes"/>
      <point x="100" y="1387"/>
      <point x="31" y="1292"/>
    </contour>
  </outline>
</glyph>
<glyph name="endash" format="2">
  <advance width="1024"/>
  <unicode hex="2013"/>
  <outline>
    <contour>
      <point x="-44" y="469" type="line"/>
      <point x="1055" y="469" type="line"/>
      <point x="1055" y="549" type="line"/>
      <point x="-44" y="549" type="line"/>
    </contour>
  </outline>
</glyph>
<glyph name="emdash" format="2">
  <advance width="2048"/>
  <unicode hex="2014"/>
  <outline>
    <contour>
      <point x="0" y="469" type="line"/>
      <point x="2048" y="469" type="line"/>
      <point x="2048" y="549" type="line"/>
      <point x="0" y="549" type="line"/>
    </contour>
  </outline>
</glyph>
<glyph name="uni2015" format="2">
  <advance width="2069"/>
  <unicode hex="2015"/>
  <outline>
    <contour>
      <point x="-5" y="469" type="line"/>
      <point x="2074" y="469" type="line"/>
      <point x="2074" y="549" type="line"/>
      <point x="-5" y="549" type="line"/>
    </contour>
  </outline>
</glyph>
<glyph name="dagger" format="2">
  <advance width="1066"/>
  <unicode hex="2020"/>
  <outline>
    <contour>
      <point x="508" y="-436" type="curve"/>
      <point x="546" y="-436" type="line"/>
      <point x="555" y="-66"/>
      <point x="567" y="182"/>
      <point x="580" y="306" type="curve" smooth="yes"/>
      <point x="592" y="432"/>
      <point x="616" y="557"/>
      <point x="650" y="686" type="curve"/>
      <point x="614" y="715"/>
      <point x="590" y="745"/>
      <point x="573" y="783" type="curve" smooth="yes"/>
      <point x="559" y="817"/>
      <point x="547" y="866"/>
      <point x="546" y="930" type="curve"/>
      <point x="573" y="928"/>
      <point x="645" y="918"/>
      <point x="682" y="899" type="curve" smooth="yes"/>
      <point x="757" y="863"/>
      <point x="815" y="850"/>
      <point x="852" y="850" type="curve" smooth="yes"/>
      <point x="891" y="850"/>
      <point x="962" y="872"/>
      <point x="962" y="948" type="curve" smooth="yes"/>
      <point x="962" y="1012"/>
      <point x="907" y="1051"/>
      <point x="850" y="1051" type="curve" smooth="yes"/>
      <point x="799" y="1051"/>
      <point x="752" y="1026"/>
      <point x="682" y="999" type="curve" smooth="yes"/>
      <point x="639" y="983"/>
      <point x="594" y="971"/>
      <point x="546" y="970" type="curve"/>
      <point x="547" y="1019"/>
      <point x="563" y="1072"/>
      <point x="586" y="1131" type="curve" smooth="yes"/>
      <point x="610" y="1190"/>
      <point x="641" y="1258"/>
      <point x="641" y="1326" type="curve" smooth="yes"/>
      <point x="641" y="1385"/>
      <point x="600" y="1459"/>
      <point x="528" y="1459" type="curve" smooth="yes"/>
      <point x="466" y="1459"/>
      <point x="413" y="1414"/>
      <point x="413" y="1326" type="curve" smooth="yes"/>
      <point x="413" y="1279"/>
      <point x="426" y="1212"/>
      <point x="469" y="1123" type="curve" smooth="yes"/>
      <point x="498" y="1063"/>
      <point x="508" y="998"/>
      <point x="508" y="970" type="curve"/>
      <point x="457" y="971"/>
      <point x="412" y="981"/>
      <point x="369" y="999" type="curve" smooth="yes"/>
      <point x="303" y="1028"/>
      <point x="262" y="1053"/>
      <point x="213" y="1053" type="curve" smooth="yes"/>
      <point x="158" y="1053"/>
      <point x="104" y="1010"/>
      <point x="104" y="948" type="curve" smooth="yes"/>
      <point x="104" y="893"/>
      <point x="143" y="850"/>
      <point x="211" y="850" type="curve" smooth="yes"/>
      <point x="244" y="850"/>
      <point x="297" y="865"/>
      <point x="369" y="895" type="curve" smooth="yes"/>
      <point x="416" y="916"/>
      <point x="463" y="928"/>
      <point x="508" y="930" type="curve"/>
      <point x="500" y="865"/>
      <point x="492" y="815"/>
      <point x="477" y="783" type="curve" smooth="yes"/>
      <point x="463" y="748"/>
      <point x="436" y="715"/>
      <point x="401" y="686" type="curve"/>
      <point x="434" y="561"/>
      <point x="459" y="428"/>
      <point x="473" y="291" type="curve" smooth="yes"/>
      <point x="494" y="106"/>
      <point x="504" y="-137"/>
    </contour>
  </outline>
</glyph>
<glyph name="ellipsis" format="2">
  <advance width="1599"/>
  <unicode hex="2026"/>
  <outline>
    <contour>
      <point x="1324" y="752" type="curve" smooth="yes"/>
      <point x="1367" y="752"/>
      <point x="1403" y="768"/>
      <point x="1434" y="798" type="curve" smooth="yes"/>
      <point x="1465" y="827"/>
      <point x="1480" y="864"/>
      <point x="1480" y="907" type="curve" smooth="yes"/>
      <point x="1480" y="951"/>
      <point x="1464" y="988"/>
      <point x="1434" y="1018" type="curve" smooth="yes"/>
      <point x="1405" y="1047"/>
      <point x="1368" y="1063"/>
      <point x="1324" y="1063" type="curve" smooth="yes"/>
      <point x="1281" y="1063"/>
      <point x="1244" y="1047"/>
      <point x="1214" y="1018" type="curve" smooth="yes"/>
      <point x="1184" y="988"/>
      <point x="1169" y="951"/>
      <point x="1169" y="907" type="curve" smooth="yes"/>
      <point x="1169" y="864"/>
      <point x="1184" y="827"/>
      <point x="1214" y="798" type="curve" smooth="yes"/>
      <point x="1244" y="768"/>
      <point x="1281" y="752"/>
    </contour>
    <contour>
      <point x="274" y="752" type="curve" smooth="yes"/>
      <point x="317" y="752"/>
      <point x="353" y="768"/>
      <point x="384" y="798" type="curve" smooth="yes"/>
      <point x="415" y="827"/>
      <point x="430" y="864"/>
      <point x="430" y="907" type="curve" smooth="yes"/>
      <point x="430" y="951"/>
      <point x="414" y="988"/>
      <point x="384" y="1018" type="curve" smooth="yes"/>
      <point x="355" y="1047"/>
      <point x="318" y="1063"/>
      <point x="274" y="1063" type="curve" smooth="yes"/>
      <point x="231" y="1063"/>
      <point x="194" y="1047"/>
      <point x="164" y="1018" type="curve" smooth="yes"/>
      <point x="134" y="988"/>
      <point x="119" y="951"/>
      <point x="119" y="907" type="curve" smooth="yes"/>
      <point x="119" y="864"/>
      <point x="134" y="827"/>
      <point x="164" y="798" type="curve" smooth="yes"/>
      <point x="194" y="768"/>
      <point x="231" y="752"/>
    </contour>
    <contour>
      <point x="799" y="752" type="curve" smooth="yes"/>
      <point x="842" y="752"/>
      <point x="878" y="768"/>
      <point x="909" y="798" type="curve" smooth="yes"/>
      <point x="940" y="827"/>
      <point x="955" y="864"/>
      <point x="955" y="907" type="curve" smooth="yes"/>
      <point x="955" y="951"/>
      <point x="939" y="988"/>
      <point x="909" y="1018" type="curve" smooth="yes"/>
      <point x="880" y="1047"/>
      <point x="843" y="1063"/>
      <point x="799" y="1063" type="curve" smooth="yes"/>
      <point x="756" y="1063"/>
      <point x="719" y="1047"/>
      <point x="689" y="1018" type="curve" smooth="yes"/>
      <point x="659" y="988"/>
      <point x="644" y="951"/>
      <point x="644" y="907" type="curve" smooth="yes"/>
      <point x="644" y="864"/>
      <point x="659" y="827"/>
      <point x="689" y="798" type="curve" smooth="yes"/>
      <point x="719" y="768"/>
      <point x="756" y="752"/>
    </contour>
  </outline>
</glyph>
<glyph name="uni2027" format="2">
  <advance width="1600"/>
  <unicode hex="2027"/>
  <outline>
    <contour>
      <point x="798" y="745" type="curve" smooth="yes"/>
      <point x="861" y="745"/>
      <point x="914" y="766"/>
      <point x="958" y="811" type="curve" smooth="yes"/>
      <point x="1003" y="854"/>
      <point x="1024" y="907"/>
      <point x="1024" y="968" type="curve" smooth="yes"/>
      <point x="1024" y="1031"/>
      <point x="1003" y="1084"/>
      <point x="958" y="1128" type="curve" smooth="yes"/>
      <point x="914" y="1171"/>
      <point x="862" y="1193"/>
      <point x="798" y="1193" type="curve" smooth="yes"/>
      <point x="737" y="1193"/>
      <point x="685" y="1171"/>
      <point x="641" y="1128" type="curve" smooth="yes"/>
      <point x="596" y="1084"/>
      <point x="575" y="1031"/>
      <point x="575" y="968" type="curve" smooth="yes"/>
      <point x="575" y="907"/>
      <point x="596" y="854"/>
      <point x="641" y="811" type="curve" smooth="yes"/>
      <point x="685" y="766"/>
      <point x="737" y="745"/>
    </contour>
  </outline>
</glyph>
<glyph name="fraction" format="2">
  <advance width="1103"/>
  <unicode hex="2044"/>
  <outline>
    <contour>
      <point x="0" y="-31" type="line"/>
      <point x="124" y="-31" type="line"/>
      <point x="1103" y="1447" type="line"/>
      <point x="977" y="1447" type="line"/>
    </contour>
  </outline>
</glyph>
<glyph name="trademark" format="2">
  <advance width="2089"/>
  <unicode hex="2122"/>
  <outline>
    <contour>
      <point x="905" y="572" type="line"/>
      <point x="1224" y="572" type="line"/>
      <point x="1224" y="608" type="line"/>
      <point x="1097" y="608"/>
      <point x="1087" y="633"/>
      <point x="1087" y="745" type="curve" smooth="yes"/>
      <point x="1087" y="1245" type="line"/>
      <point x="1410" y="572" type="line"/>
      <point x="1443" y="572" type="line"/>
      <point x="1762" y="1258" type="line"/>
      <point x="1762" y="743" type="line" smooth="yes"/>
      <point x="1762" y="629"/>
      <point x="1740" y="608"/>
      <point x="1639" y="608" type="curve"/>
      <point x="1639" y="572" type="line"/>
      <point x="2054" y="572" type="line"/>
      <point x="2054" y="608" type="line"/>
      <point x="1957" y="608"/>
      <point x="1936" y="631"/>
      <point x="1936" y="745" type="curve" smooth="yes"/>
      <point x="1936" y="1232" type="line" smooth="yes"/>
      <point x="1936" y="1317"/>
      <point x="1936" y="1379"/>
      <point x="2054" y="1372" type="curve"/>
      <point x="2054" y="1410" type="line"/>
      <point x="1762" y="1410" type="line"/>
      <point x="1488" y="815" type="line"/>
      <point x="1203" y="1410" type="line"/>
      <point x="905" y="1410" type="line"/>
      <point x="905" y="1372" type="line"/>
      <point x="1021" y="1372"/>
      <point x="1023" y="1338"/>
      <point x="1023" y="1230" type="curve" smooth="yes"/>
      <point x="1023" y="745" type="line" smooth="yes"/>
      <point x="1023" y="643"/>
      <point x="1019" y="608"/>
      <point x="905" y="608" type="curve"/>
    </contour>
    <contour>
      <point x="238" y="572" type="line"/>
      <point x="629" y="572" type="line"/>
      <point x="629" y="608" type="line"/>
      <point x="526" y="612"/>
      <point x="518" y="639"/>
      <point x="518" y="745" type="curve" smooth="yes"/>
      <point x="518" y="1348" type="line"/>
      <point x="596" y="1348" type="line" smooth="yes"/>
      <point x="743" y="1348"/>
      <point x="788" y="1294"/>
      <point x="797" y="1203" type="curve"/>
      <point x="835" y="1203" type="line"/>
      <point x="817" y="1410" type="line"/>
      <point x="46" y="1410" type="line"/>
      <point x="33" y="1203" type="line"/>
      <point x="66" y="1203" type="line"/>
      <point x="92" y="1317"/>
      <point x="139" y="1348"/>
      <point x="264" y="1348" type="curve" smooth="yes"/>
      <point x="342" y="1348" type="line"/>
      <point x="342" y="745" type="line" smooth="yes"/>
      <point x="342" y="616"/>
      <point x="326" y="624"/>
      <point x="238" y="608" type="curve"/>
    </contour>
  </outline>
</glyph>
<glyph name="partialdiff" format="2">
  <advance width="1057"/>
  <unicode hex="2202"/>
  <outline>
    <contour>
      <point x="463" y="-44" type="curve" smooth="yes"/>
      <point x="930" y="-44"/>
      <point x="988" y="659"/>
      <point x="988" y="840" type="curve" smooth="yes"/>
      <point x="988" y="968"/>
      <point x="910" y="1443"/>
      <point x="471" y="1443" type="curve" smooth="yes"/>
      <point x="365" y="1443"/>
      <point x="262" y="1408"/>
      <point x="200" y="1381" type="curve"/>
      <point x="284" y="1275" type="line"/>
      <point x="393" y="1321"/>
      <point x="418" y="1344"/>
      <point x="524" y="1344" type="curve" smooth="yes"/>
      <point x="679" y="1344"/>
      <point x="827" y="1172"/>
      <point x="823" y="964" type="curve" smooth="yes"/>
      <point x="821" y="881"/>
      <point x="819" y="803"/>
      <point x="801" y="715" type="curve"/>
      <point x="657" y="825"/>
      <point x="604" y="861"/>
      <point x="479" y="861" type="curve" smooth="yes"/>
      <point x="352" y="861"/>
      <point x="57" y="768"/>
      <point x="57" y="333" type="curve" smooth="yes"/>
      <point x="57" y="162"/>
      <point x="213" y="-44"/>
    </contour>
    <contour>
      <point x="442" y="17" type="curve" smooth="yes"/>
      <point x="253" y="17"/>
      <point x="240" y="230"/>
      <point x="240" y="315" type="curve" smooth="yes"/>
      <point x="240" y="502"/>
      <point x="340" y="776"/>
      <point x="551" y="776" type="curve" smooth="yes"/>
      <point x="682" y="776"/>
      <point x="739" y="688"/>
      <point x="785" y="639" type="curve"/>
      <point x="750" y="348"/>
      <point x="655" y="17"/>
    </contour>
  </outline>
</glyph>
<glyph name="radical" format="2">
  <advance width="1179"/>
  <unicode hex="221A"/>
  <outline>
    <contour>
      <point x="643" y="0" type="line"/>
      <point x="705" y="0" type="line"/>
      <point x="1076" y="1372" type="line"/>
      <point x="1179" y="1372" type="line"/>
      <point x="1179" y="1435" type="line"/>
      <point x="1015" y="1435" type="line"/>
      <point x="680" y="211" type="line"/>
      <point x="280" y="992" type="line"/>
      <point x="40" y="870" type="line"/>
      <point x="73" y="810" type="line"/>
      <point x="200" y="872" type="line"/>
    </contour>
  </outline>
</glyph>
<glyph name="notequal" format="2">
  <advance width="2049"/>
  <unicode hex="2260"/>
  <outline>
    <contour>
      <point x="631" y="139" type="line"/>
      <point x="856" y="365" type="line"/>
      <point x="1639" y="365" type="line"/>
      <point x="1639" y="492" type="line"/>
      <point x="983" y="492" type="line"/>
      <point x="1230" y="737" type="line"/>
      <point x="1639" y="737" type="line"/>
      <point x="1639" y="865" type="line"/>
      <point x="1357" y="865" type="line"/>
      <point x="1500" y="1008" type="line"/>
      <point x="1418" y="1090" type="line"/>
      <point x="1192" y="865" type="line"/>
      <point x="410" y="865" type="line"/>
      <point x="410" y="737" type="line"/>
      <point x="1066" y="737" type="line"/>
      <point x="819" y="492" type="line"/>
      <point x="410" y="492" type="line"/>
      <point x="410" y="365" type="line"/>
      <point x="692" y="365" type="line"/>
      <point x="549" y="221" type="line"/>
    </contour>
  </outline>
</glyph>
<glyph name="lessequal" format="2">
  <advance width="2049"/>
  <unicode hex="2264"/>
  <outline>
    <contour>
      <point x="1639" y="240" type="line"/>
      <point x="1639" y="367" type="line"/>
      <point x="541" y="692" type="line"/>
      <point x="1639" y="1019" type="line"/>
      <point x="1639" y="1146" type="line"/>
      <point x="410" y="757" type="line"/>
      <point x="410" y="629" type="line"/>
    </contour>
    <contour>
      <point x="410" y="0" type="line"/>
      <point x="1639" y="0" type="line"/>
      <point x="1639" y="113" type="line"/>
      <point x="410" y="113" type="line"/>
    </contour>
  </outline>
</glyph>
<glyph name="uni2469" format="2">
  <advance width="1600"/>
  <unicode hex="2469"/>
  <outline>
    <contour>
      <point x="799" y="182" type="curve" smooth="yes"/>
      <point x="1143" y="182"/>
      <point x="1423" y="462"/>
      <point x="1423" y="806" type="curve" smooth="yes"/>
      <point x="1423" y="1150"/>
      <point x="1143" y="1429"/>
      <point x="799" y="1429" type="curve" smooth="yes"/>
      <point x="456" y="1429"/>
      <point x="176" y="1150"/>
      <point x="176" y="806" type="curve" smooth="yes"/>
      <point x="176" y="462"/>
      <point x="456" y="182"/>
    </contour>
    <contour>
      <point x="462" y="464" type="line"/>
      <point x="714" y="464" type="line"/>
      <point x="714" y="482" type="line"/>
      <point x="673" y="482"/>
      <point x="650" y="489"/>
      <point x="641" y="501" type="curve" smooth="yes"/>
      <point x="634" y="511"/>
      <point x="631" y="538"/>
      <point x="631" y="583" type="curve" smooth="yes"/>
      <point x="631" y="1150" type="line"/>
      <point x="613" y="1150" type="line"/>
      <point x="450" y="1070" type="line"/>
      <point x="457" y="1054" type="line"/>
      <point x="478" y="1064"/>
      <point x="496" y="1069"/>
      <point x="509" y="1069" type="curve" smooth="yes"/>
      <point x="528" y="1069"/>
      <point x="541" y="1057"/>
      <point x="546" y="1033" type="curve" smooth="yes"/>
      <point x="548" y="1021"/>
      <point x="548" y="992"/>
      <point x="548" y="945" type="curve" smooth="yes"/>
      <point x="548" y="583" type="line" smooth="yes"/>
      <point x="548" y="539"/>
      <point x="545" y="512"/>
      <point x="537" y="501" type="curve" smooth="yes"/>
      <point x="527" y="489"/>
      <point x="502" y="482"/>
      <point x="462" y="482" type="curve"/>
    </contour>
    <contour>
      <point x="799" y="265" type="curve" smooth="yes"/>
      <point x="501" y="265"/>
      <point x="259" y="507"/>
      <point x="259" y="806" type="curve" smooth="yes"/>
      <point x="259" y="1104"/>
      <point x="501" y="1346"/>
      <point x="799" y="1346" type="curve" smooth="yes"/>
      <point x="1098" y="1346"/>
      <point x="1340" y="1104"/>
      <point x="1340" y="806" type="curve" smooth="yes"/>
      <point x="1340" y="507"/>
      <point x="1098" y="265"/>
    </contour>
    <contour>
      <point x="942" y="458" type="curve" smooth="yes"/>
      <point x="1111" y="458"/>
      <point x="1162" y="671"/>
      <point x="1162" y="803" type="curve" smooth="yes"/>
      <point x="1162" y="952"/>
      <point x="1109" y="1154"/>
      <point x="947" y="1154" type="curve" smooth="yes"/>
      <point x="783" y="1154"/>
      <point x="728" y="929"/>
      <point x="728" y="801" type="curve" smooth="yes"/>
      <point x="728" y="676"/>
      <point x="783" y="458"/>
    </contour>
    <contour>
      <point x="953" y="489" type="curve" smooth="yes"/>
      <point x="830" y="489"/>
      <point x="811" y="697"/>
      <point x="811" y="789" type="curve" smooth="yes"/>
      <point x="811" y="879"/>
      <point x="820" y="1122"/>
      <point x="940" y="1122" type="curve" smooth="yes"/>
      <point x="1073" y="1122"/>
      <point x="1080" y="877"/>
      <point x="1080" y="789" type="curve" smooth="yes"/>
      <point x="1080" y="559"/>
      <point x="1032" y="489"/>
    </contour>
  </outline>
</glyph>
<glyph name="uni2470" format="2">
  <advance width="1600"/>
  <unicode hex="2470"/>
  <outline>
    <contour>
      <point x="799" y="182" type="curve" smooth="yes"/>
      <point x="1143" y="182"/>
      <point x="1423" y="462"/>
      <point x="1423" y="806" type="curve" smooth="yes"/>
      <point x="1423" y="1150"/>
      <point x="1143" y="1429"/>
      <point x="799" y="1429" type="curve" smooth="yes"/>
      <point x="456" y="1429"/>
      <point x="176" y="1150"/>
      <point x="176" y="806" type="curve" smooth="yes"/>
      <point x="176" y="462"/>
      <point x="456" y="182"/>
    </contour>
    <contour>
      <point x="462" y="464" type="line"/>
      <point x="714" y="464" type="line"/>
      <point x="714" y="482" type="line"/>
      <point x="673" y="482"/>
      <point x="650" y="489"/>
      <point x="641" y="501" type="curve" smooth="yes"/>
      <point x="634" y="511"/>
      <point x="631" y="538"/>
      <point x="631" y="583" type="curve" smooth="yes"/>
      <point x="631" y="1150" type="line"/>
      <point x="613" y="1150" type="line"/>
      <point x="450" y="1070" type="line"/>
      <point x="457" y="1054" type="line"/>
      <point x="478" y="1064"/>
      <point x="496" y="1069"/>
      <point x="509" y="1069" type="curve" smooth="yes"/>
      <point x="528" y="1069"/>
      <point x="541" y="1057"/>
      <point x="546" y="1033" type="curve" smooth="yes"/>
      <point x="548" y="1021"/>
      <point x="548" y="992"/>
      <point x="548" y="945" type="curve" smooth="yes"/>
      <point x="548" y="583" type="line" smooth="yes"/>
      <point x="548" y="539"/>
      <point x="545" y="512"/>
      <point x="537" y="501" type="curve" smooth="yes"/>
      <point x="527" y="489"/>
      <point x="502" y="482"/>
      <point x="462" y="482" type="curve"/>
    </contour>
    <contour>
      <point x="799" y="265" type="curve" smooth="yes"/>
      <point x="501" y="265"/>
      <point x="259" y="507"/>
      <point x="259" y="806" type="curve" smooth="yes"/>
      <point x="259" y="1104"/>
      <point x="501" y="1346"/>
      <point x="799" y="1346" type="curve" smooth="yes"/>
      <point x="1098" y="1346"/>
      <point x="1340" y="1104"/>
      <point x="1340" y="806" type="curve" smooth="yes"/>
      <point x="1340" y="507"/>
      <point x="1098" y="265"/>
    </contour>
    <contour>
      <point x="867" y="464" type="line"/>
      <point x="921" y="464" type="line"/>
      <point x="1145" y="1132" type="line"/>
      <point x="1145" y="1150" type="line"/>
      <point x="786" y="1150" type="line"/>
      <point x="721" y="991" type="line"/>
      <point x="736" y="987" type="line"/>
      <point x="752" y="1015"/>
      <point x="765" y="1033"/>
      <point x="776" y="1041" type="curve" smooth="yes"/>
      <point x="799" y="1060"/>
      <point x="836" y="1069"/>
      <point x="883" y="1069" type="curve" smooth="yes"/>
      <point x="1067" y="1069" type="line"/>
    </contour>
  </outline>
</glyph>
<glyph name="uni277F" format="2">
  <advance width="1600"/>
  <unicode hex="277F"/>
  <outline>
    <contour>
      <point x="799" y="182" type="curve" smooth="yes"/>
      <point x="1143" y="182"/>
      <point x="1423" y="462"/>
      <point x="1423" y="806" type="curve" smooth="yes"/>
      <point x="1423" y="1150"/>
      <point x="1143" y="1429"/>
      <point x="799" y="1429" type="curve" smooth="yes"/>
      <point x="456" y="1429"/>
      <point x="176" y="1150"/>
      <point x="176" y="806" type="curve" smooth="yes"/>
      <point x="176" y="462"/>
      <point x="456" y="182"/>
    </contour>
    <contour>
      <point x="462" y="464" type="line"/>
      <point x="462" y="482" type="line"/>
      <point x="502" y="482"/>
      <point x="527" y="489"/>
      <point x="537" y="501" type="curve" smooth="yes"/>
      <point x="545" y="512"/>
      <point x="548" y="539"/>
      <point x="548" y="583" type="curve" smooth="yes"/>
      <point x="548" y="945" type="line" smooth="yes"/>
      <point x="548" y="992"/>
      <point x="548" y="1021"/>
      <point x="546" y="1033" type="curve" smooth="yes"/>
      <point x="541" y="1057"/>
      <point x="528" y="1069"/>
      <point x="509" y="1069" type="curve" smooth="yes"/>
      <point x="496" y="1069"/>
      <point x="478" y="1064"/>
      <point x="457" y="1054" type="curve"/>
      <point x="450" y="1070" type="line"/>
      <point x="613" y="1150" type="line"/>
      <point x="631" y="1150" type="line"/>
      <point x="631" y="583" type="line" smooth="yes"/>
      <point x="631" y="538"/>
      <point x="634" y="511"/>
      <point x="641" y="501" type="curve" smooth="yes"/>
      <point x="650" y="489"/>
      <point x="673" y="482"/>
      <point x="714" y="482" type="curve"/>
      <point x="714" y="464" type="line"/>
    </contour>
    <contour>
      <point x="938" y="458" type="curve" smooth="yes"/>
      <point x="874" y="458"/>
      <point x="822" y="493"/>
      <point x="780" y="564" type="curve" smooth="yes"/>
      <point x="742" y="631"/>
      <point x="723" y="709"/>
      <point x="723" y="801" type="curve" smooth="yes"/>
      <point x="723" y="904"/>
      <point x="745" y="990"/>
      <point x="790" y="1058" type="curve" smooth="yes"/>
      <point x="832" y="1123"/>
      <point x="883" y="1154"/>
      <point x="942" y="1154" type="curve" smooth="yes"/>
      <point x="1002" y="1154"/>
      <point x="1052" y="1123"/>
      <point x="1092" y="1063" type="curve" smooth="yes"/>
      <point x="1136" y="997"/>
      <point x="1158" y="914"/>
      <point x="1158" y="810" type="curve" smooth="yes"/>
      <point x="1158" y="714"/>
      <point x="1139" y="633"/>
      <point x="1102" y="566" type="curve" smooth="yes"/>
      <point x="1060" y="494"/>
      <point x="1005" y="458"/>
    </contour>
    <contour>
      <point x="940" y="489" type="curve" smooth="yes"/>
      <point x="1021" y="489"/>
      <point x="1061" y="603"/>
      <point x="1061" y="833" type="curve" smooth="yes"/>
      <point x="1061" y="923"/>
      <point x="1051" y="995"/>
      <point x="1030" y="1046" type="curve" smooth="yes"/>
      <point x="1009" y="1097"/>
      <point x="980" y="1122"/>
      <point x="941" y="1122" type="curve" smooth="yes"/>
      <point x="908" y="1122"/>
      <point x="880" y="1101"/>
      <point x="860" y="1058" type="curve" smooth="yes"/>
      <point x="834" y="1001"/>
      <point x="821" y="912"/>
      <point x="821" y="789" type="curve" smooth="yes"/>
      <point x="821" y="691"/>
      <point x="832" y="616"/>
      <point x="853" y="564" type="curve" smooth="yes"/>
      <point x="873" y="514"/>
      <point x="903" y="489"/>
    </contour>
  </outline>
</glyph>
<glyph name="uni300A" format="2">
  <advance width="1600"/>
  <unicode hex="300A"/>
  <outline>
    <contour>
      <point x="1418" y="-15" type="line"/>
      <point x="1481" y="15" type="line"/>
      <point x="1085" y="806" type="line"/>
      <point x="1481" y="1597" type="line"/>
      <point x="1418" y="1628" type="line"/>
      <point x="1005" y="806" type="line"/>
    </contour>
    <contour>
      <point x="1060" y="-15" type="line"/>
      <point x="1123" y="15" type="line"/>
      <point x="727" y="806" type="line"/>
      <point x="1123" y="1597" type="line"/>
      <point x="1060" y="1628" type="line"/>
      <point x="647" y="806" type="line"/>
    </contour>
  </outline>
</glyph>
<glyph name="uni300C" format="2">
  <advance width="1600"/>
  <unicode hex="300C"/>
  <outline>
    <contour>
      <point x="884" y="0" type="line"/>
      <point x="991" y="0" type="line"/>
      <point x="991" y="1685" type="line"/>
      <point x="1342" y="1685" type="line"/>
      <point x="1342" y="1793" type="line"/>
      <point x="884" y="1793" type="line"/>
    </contour>
  </outline>
</glyph>
<glyph name="uni300D" format="2">
  <advance width="1600"/>
  <unicode hex="300D"/>
  <outline>
    <contour>
      <point x="258" y="0" type="line"/>
      <point x="716" y="0" type="line"/>
      <point x="716" y="1793" type="line"/>
      <point x="609" y="1793" type="line"/>
      <point x="609" y="108" type="line"/>
      <point x="258" y="108" type="line"/>
    </contour>
  </outline>
</glyph>
<glyph name="uni300F" format="2">
  <advance width="1600"/>
  <unicode hex="300F"/>
  <outline>
    <contour>
      <point x="733" y="0" type="line"/>
      <point x="1191" y="0" type="line"/>
      <point x="1191" y="1793" type="line"/>
      <point x="1034" y="1792" type="line"/>
      <point x="1034" y="158" type="line"/>
      <point x="733" y="158" type="line"/>
    </contour>
    <contour>
      <point x="763" y="30" type="line"/>
      <point x="763" y="128" type="line"/>
      <point x="1064" y="128" type="line"/>
      <point x="1074" y="1763" type="line"/>
      <point x="1161" y="1763" type="line"/>
      <point x="1161" y="30" type="line"/>
    </contour>
  </outline>
</glyph>
<glyph name="uni3012" format="2">
  <advance width="1599"/>
  <unicode hex="3012"/>
  <outline>
    <contour>
      <point x="747" y="0" type="line"/>
      <point x="853" y="0" type="line"/>
      <point x="853" y="1269" type="line"/>
      <point x="1413" y="1269" type="line"/>
      <point x="1413" y="1373" type="line"/>
      <point x="186" y="1373" type="line"/>
      <point x="186" y="1269" type="line"/>
      <point x="747" y="1269" type="line"/>
    </contour>
    <contour>
      <point x="186" y="1689" type="line"/>
      <point x="1413" y="1689" type="line"/>
      <point x="1413" y="1793" type="line"/>
      <point x="186" y="1793" type="line"/>
    </contour>
  </outline>
</glyph>
<glyph name="uni3016" format="2">
  <advance width="1600"/>
  <unicode hex="3016"/>
  <outline>
    <contour>
      <point x="693" y="0" type="line"/>
      <point x="1480" y="0" type="line"/>
      <point x="1181" y="168"/>
      <point x="1061" y="601"/>
      <point x="1061" y="896" type="curve" smooth="yes"/>
      <point x="1061" y="1212"/>
      <point x="1192" y="1621"/>
      <point x="1480" y="1792" type="curve"/>
      <point x="693" y="1792" type="line"/>
    </contour>
    <contour>
      <point x="798" y="105" type="line"/>
      <point x="798" y="1687" type="line"/>
      <point x="1196" y="1688" type="line"/>
      <point x="1041" y="1488"/>
      <point x="956" y="1156"/>
      <point x="956" y="896" type="curve" smooth="yes"/>
      <point x="956" y="736"/>
      <point x="984" y="389"/>
      <point x="1196" y="105" type="curve"/>
    </contour>
  </outline>
</glyph>
<glyph name="uni3018" format="2">
  <advance width="1600"/>
  <unicode hex="3018"/>
  <outline>
    <contour>
      <point x="1234" y="1709" type="line"/>
      <point x="1234" y="1430" type="line"/>
      <point x="1341" y="1430" type="line"/>
      <point x="1341" y="1709" type="line"/>
    </contour>
    <contour>
      <point x="1234" y="72" type="line"/>
      <point x="1341" y="72" type="line"/>
      <point x="1341" y="351" type="line"/>
      <point x="1234" y="351" type="line"/>
    </contour>
    <contour>
      <point x="805" y="377" type="line"/>
      <point x="805" y="1404" type="line"/>
      <point x="1341" y="1674" type="line"/>
      <point x="1341" y="1793" type="line"/>
      <point x="698" y="1471" type="line"/>
      <point x="698" y="311" type="line"/>
      <point x="1341" y="-12" type="line"/>
      <point x="1341" y="107" type="line"/>
    </contour>
    <contour>
      <point x="1067" y="539" type="line"/>
      <point x="1067" y="1242" type="line"/>
      <point x="1341" y="1381" type="line"/>
      <point x="1341" y="1501" type="line"/>
      <point x="960" y="1308" type="line"/>
      <point x="960" y="473" type="line"/>
      <point x="1341" y="280" type="line"/>
      <point x="1341" y="400" type="line"/>
    </contour>
  </outline>
</glyph>
<glyph name="uniA000" format="2">
  <advance width="1600"/>
  <unicode hex="A000"/>
  <outline>
    <contour>
      <point x="1283" y="1306" type="line"/>
      <point x="1283" y="1505" type="line"/>
      <point x="563" y="1505" type="line"/>
      <point x="563" y="1306" type="line"/>
    </contour>
    <contour>
      <point x="190" y="640" type="line"/>
      <point x="859" y="640" type="line"/>
      <point x="859" y="831" type="line"/>
      <point x="190" y="831" type="line"/>
    </contour>
    <contour>
      <point x="922" y="179" type="curve" smooth="yes"/>
      <point x="677" y="179"/>
      <point x="617" y="397"/>
      <point x="617" y="714" type="curve" smooth="yes"/>
      <point x="617" y="1800" type="line"/>
      <point x="412" y="1800" type="line"/>
      <point x="412" y="714" type="line" smooth="yes"/>
      <point x="412" y="357"/>
      <point x="483" y="-20"/>
      <point x="922" y="-20" type="curve" smooth="yes"/>
      <point x="1361" y="-20"/>
      <point x="1432" y="357"/>
      <point x="1432" y="714" type="curve" smooth="yes"/>
      <point x="1432" y="1800" type="line"/>
      <point x="1227" y="1800" type="line"/>
      <point x="1227" y="714" type="line" smooth="yes"/>
      <point x="1227" y="397"/>
      <point x="1167" y="179"/>
    </contour>
  </outline>
</glyph>
<glyph name="uniA002" format="2">
  <advance width="1600"/>
  <unicode hex="A002"/>
  <anchor x="800" y="1900" name="top"/>
  <outline>
    <contour>
      <point x="213" y="1094" type="curve"/>
      <point x="213" y="910" type="line"/>
      <point x="592" y="910"/>
      <point x="740" y="797"/>
      <point x="740" y="666" type="curve" smooth="yes"/>
      <point x="740" y="535"/>
      <point x="592" y="422"/>
      <point x="213" y="422" type="curve"/>
      <point x="213" y="238" type="line"/>
      <point x="679" y="238"/>
      <point x="934" y="398"/>
      <point x="934" y="666" type="curve" smooth="yes"/>
      <point x="934" y="934"/>
      <point x="679" y="1094"/>
    </contour>
    <contour>
      <point x="1223" y="1306" type="line"/>
      <point x="1223" y="1505" type="line"/>
      <point x="503" y="1505" type="line"/>
      <point x="503" y="1306" type="line"/>
    </contour>
    <contour>
      <point x="862" y="179" type="curve" smooth="yes"/>
      <point x="617" y="179"/>
      <point x="557" y="397"/>
      <point x="557" y="714" type="curve" smooth="yes"/>
      <point x="557" y="1800" type="line"/>
      <point x="352" y="1800" type="line"/>
      <point x="352" y="714" type="line" smooth="yes"/>
      <point x="352" y="357"/>
      <point x="423" y="-20"/>
      <point x="862" y="-20" type="curve" smooth="yes"/>
      <point x="1301" y="-20"/>
      <point x="1372" y="357"/>
      <point x="1372" y="714" type="curve" smooth="yes"/>
      <point x="1372" y="1800" type="line"/>
      <point x="1167" y="1800" type="line"/>
      <point x="1167" y="714" type="line" smooth="yes"/>
      <point x="1167" y="397"/>
      <point x="1107" y="179"/>
    </contour>
  </outline>
</glyph>
<glyph name="uniA004" format="2">
  <advance width="1600"/>
  <unicode hex="A004"/>
  <outline>
    <contour>
      <point x="150" y="364" type="line"/>
      <point x="699" y="364" type="line"/>
      <point x="699" y="554" type="line"/>
      <point x="150" y="554" type="line"/>
    </contour>
    <contour>
      <point x="800" y="1029" type="curve" smooth="yes"/>
      <point x="1203" y="1029"/>
      <point x="1402" y="1369"/>
      <point x="1402" y="1758" type="curve"/>
      <point x="1206" y="1758" type="line"/>
      <point x="1206" y="1476"/>
      <point x="1088" y="1213"/>
      <point x="799" y="1213" type="curve" smooth="yes"/>
      <point x="510" y="1213"/>
      <point x="393" y="1476"/>
      <point x="393" y="1758" type="curve"/>
      <point x="197" y="1758" type="line"/>
      <point x="197" y="1369"/>
      <point x="396" y="1029"/>
    </contour>
    <contour>
      <point x="247" y="900" type="curve" smooth="yes"/>
      <point x="247" y="252"/>
      <point x="475" y="-20"/>
      <point x="801" y="-20" type="curve" smooth="yes"/>
      <point x="1127" y="-20"/>
      <point x="1355" y="252"/>
      <point x="1355" y="900" type="curve" smooth="yes"/>
      <point x="1355" y="1548"/>
      <point x="1127" y="1820"/>
      <point x="801" y="1820" type="curve" smooth="yes"/>
      <point x="475" y="1820"/>
      <point x="247" y="1548"/>
    </contour>
    <contour>
      <point x="801" y="179" type="curve" smooth="yes"/>
      <point x="623" y="179"/>
      <point x="453" y="339"/>
      <point x="453" y="900" type="curve" smooth="yes"/>
      <point x="453" y="1461"/>
      <point x="623" y="1621"/>
      <point x="801" y="1621" type="curve" smooth="yes"/>
      <point x="979" y="1621"/>
      <point x="1149" y="1461"/>
      <point x="1149" y="900" type="curve" smooth="yes"/>
      <point x="1149" y="339"/>
      <point x="979" y="179"/>
    </contour>
  </outline>
</glyph>
<glyph name="uniA006" format="2">
  <advance width="1600"/>
  <unicode hex="A006"/>
  <anchor x="800" y="1900" name="top"/>
  <outline>
    <contour>
      <point x="696" y="1265" type="line"/>
      <point x="903" y="1265" type="line"/>
      <point x="903" y="1576" type="line"/>
      <point x="863" y="1544" type="line"/>
      <point x="1287" y="1356" type="line"/>
      <point x="1368" y="1533" type="line"/>
      <point x="696" y="1831" type="line"/>
    </contour>
    <contour>
      <point x="903" y="518" type="line"/>
      <point x="696" y="518" type="line"/>
      <point x="696" y="217" type="line"/>
      <point x="737" y="249" type="line"/>
      <point x="315" y="437" type="line"/>
      <point x="232" y="260" type="line"/>
      <point x="903" y="-38" type="line"/>
    </contour>
    <contour>
      <point x="255" y="896" type="curve" smooth="yes"/>
      <point x="255" y="658"/>
      <point x="447" y="458"/>
      <point x="800" y="458" type="curve" smooth="yes"/>
      <point x="1153" y="458"/>
      <point x="1345" y="658"/>
      <point x="1345" y="896" type="curve" smooth="yes"/>
      <point x="1345" y="1134"/>
      <point x="1153" y="1334"/>
      <point x="800" y="1334" type="curve" smooth="yes"/>
      <point x="447" y="1334"/>
      <point x="255" y="1134"/>
    </contour>
    <contour>
      <point x="1141" y="896" type="curve" smooth="yes"/>
      <point x="1141" y="782"/>
      <point x="1046" y="651"/>
      <point x="800" y="651" type="curve" smooth="yes"/>
      <point x="554" y="651"/>
      <point x="459" y="782"/>
      <point x="459" y="896" type="curve" smooth="yes"/>
      <point x="459" y="1011"/>
      <point x="554" y="1141"/>
      <point x="800" y="1141" type="curve" smooth="yes"/>
      <point x="1046" y="1141"/>
      <point x="1141" y="1011"/>
    </contour>
  </outline>
</glyph>
<glyph name="uniA007" format="2">
  <advance width="1600"/>
  <unicode hex="A007"/>
  <outline>
    <contour>
      <point x="1279" y="193" type="curve"/>
      <point x="1279" y="366" type="line"/>
      <point x="839" y="366"/>
      <point x="667" y="655"/>
      <point x="667" y="896" type="curve" smooth="yes"/>
      <point x="667" y="1137"/>
      <point x="839" y="1427"/>
      <point x="1279" y="1427" type="curve"/>
      <point x="1279" y="1599" type="line"/>
      <point x="760" y="1599"/>
      <point x="494" y="1278"/>
      <point x="494" y="896" type="curve" smooth="yes"/>
      <point x="494" y="514"/>
      <point x="770" y="193"/>
    </contour>
    <contour>
      <point x="1173" y="545" type="line"/>
      <point x="1173" y="59" type="line"/>
      <point x="1371" y="59" type="line"/>
      <point x="1371" y="545" type="line"/>
    </contour>
    <contour>
      <point x="1173" y="1734" type="line"/>
      <point x="1173" y="1248" type="line"/>
      <point x="1371" y="1248" type="line"/>
      <point x="1371" y="1734" type="line"/>
    </contour>
    <contour>
      <point x="628" y="1820" type="curve" smooth="yes"/>
      <point x="381" y="1820"/>
      <point x="205" y="1548"/>
      <point x="205" y="900" type="curve" smooth="yes"/>
      <point x="205" y="252"/>
      <point x="381" y="-20"/>
      <point x="628" y="-20" type="curve" smooth="yes"/>
      <point x="875" y="-20"/>
      <point x="1051" y="252"/>
      <point x="1051" y="900" type="curve" smooth="yes"/>
      <point x="1051" y="1548"/>
      <point x="875" y="1820"/>
    </contour>
    <contour>
      <point x="628" y="168" type="curve" smooth="yes"/>
      <point x="510" y="168"/>
      <point x="400" y="330"/>
      <point x="400" y="900" type="curve" smooth="yes"/>
      <point x="400" y="1470"/>
      <point x="505" y="1632"/>
      <point x="628" y="1632" type="curve" smooth="yes"/>
      <point x="741" y="1632"/>
      <point x="856" y="1470"/>
      <point x="856" y="900" type="curve" smooth="yes"/>
      <point x="856" y="330"/>
      <point x="746" y="168"/>
    </contour>
  </outline>
</glyph>
<glyph name="uniA00A" format="2">
  <advance width="1600"/>
  <unicode hex="A00A"/>
  <anchor x="800" y="1900" name="top"/>
  <outline>
    <contour>
      <point x="903" y="-42" type="line"/>
      <point x="903" y="1470" type="line"/>
      <point x="1157" y="1311" type="line"/>
      <point x="1157" y="-1" type="line"/>
      <point x="1364" y="-1" type="line"/>
      <point x="1364" y="1792" type="line"/>
      <point x="1157" y="1792" type="line"/>
      <point x="1157" y="1546" type="line"/>
      <point x="696" y="1836" type="line"/>
      <point x="696" y="1036" type="line"/>
      <point x="325" y="1254" type="line"/>
      <point x="224" y="1082" type="line"/>
      <point x="381" y="990"/>
      <point x="539" y="897"/>
      <point x="696" y="805" type="curve"/>
      <point x="696" y="311" type="line"/>
      <point x="311" y="538" type="line"/>
      <point x="210" y="366" type="line"/>
    </contour>
  </outline>
</glyph>
<glyph name="uniA00B" format="2">
  <advance width="1600"/>
  <unicode hex="A00B"/>
  <outline>
    <contour>
      <point x="669" y="797" type="line"/>
      <point x="669" y="1028" type="line"/>
      <point x="284" y="1254" type="line"/>
      <point x="183" y="1082" type="line"/>
    </contour>
    <contour>
      <point x="1078" y="1335" type="line"/>
      <point x="1130" y="1537" type="line"/>
      <point x="655" y="1836" type="line"/>
      <point x="655" y="266" type="line"/>
      <point x="694" y="288" type="line"/>
      <point x="270" y="538" type="line"/>
      <point x="169" y="366" type="line"/>
      <point x="862" y="-42" type="line"/>
      <point x="862" y="1515" type="line"/>
      <point x="824" y="1494" type="line"/>
    </contour>
    <contour>
      <point x="1045" y="1287" type="curve" smooth="yes"/>
      <point x="1045" y="1052"/>
      <point x="1166" y="843"/>
      <point x="1393" y="740" type="curve"/>
      <point x="1472" y="891" type="line"/>
      <point x="1293" y="972"/>
      <point x="1219" y="1138"/>
      <point x="1219" y="1287" type="curve" smooth="yes"/>
      <point x="1219" y="1436"/>
      <point x="1293" y="1602"/>
      <point x="1472" y="1683" type="curve"/>
      <point x="1393" y="1834" type="line"/>
      <point x="1166" y="1731"/>
      <point x="1045" y="1522"/>
    </contour>
  </outline>
</glyph>
<glyph name="uniA00D" format="2">
  <advance width="1600"/>
  <unicode hex="A00D"/>
  <anchor x="800" y="1900" name="top"/>
  <outline>
    <contour>
      <point x="1148" y="1793" type="line"/>
      <point x="1148" y="0" type="line"/>
      <point x="1352" y="0" type="line"/>
      <point x="1352" y="1793" type="line"/>
    </contour>
    <contour>
      <point x="708" y="126" type="line"/>
      <point x="892" y="126" type="line"/>
      <point x="892" y="555" type="line"/>
      <point x="708" y="555" type="line"/>
    </contour>
    <contour>
      <point x="708" y="1237" type="line"/>
      <point x="892" y="1237" type="line"/>
      <point x="892" y="1666" type="line"/>
      <point x="708" y="1666" type="line"/>
    </contour>
    <contour>
      <point x="452" y="0" type="line"/>
      <point x="452" y="1793" type="line"/>
      <point x="248" y="1793" type="line"/>
      <point x="248" y="0" type="line"/>
    </contour>
    <contour>
      <point x="377" y="995" type="line"/>
      <point x="377" y="797" type="line"/>
      <point x="1223" y="797" type="line"/>
      <point x="1223" y="995" type="line"/>
    </contour>
  </outline>
</glyph>
<glyph name="uniA00E" format="2">
  <advance width="1600"/>
  <unicode hex="A00E"/>
  <outline>
    <contour>
      <point x="845" y="1435" type="curve" smooth="yes"/>
      <point x="845" y="1176"/>
      <point x="933" y="1050"/>
      <point x="1115" y="1050" type="curve" smooth="yes"/>
      <point x="1297" y="1050"/>
      <point x="1384" y="1176"/>
      <point x="1384" y="1435" type="curve" smooth="yes"/>
      <point x="1384" y="1694"/>
      <point x="1297" y="1820"/>
      <point x="1115" y="1820" type="curve" smooth="yes"/>
      <point x="933" y="1820"/>
      <point x="845" y="1694"/>
    </contour>
    <contour>
      <point x="1115" y="1631" type="curve" smooth="yes"/>
      <point x="1165" y="1631"/>
      <point x="1191" y="1587"/>
      <point x="1191" y="1435" type="curve" smooth="yes"/>
      <point x="1191" y="1283"/>
      <point x="1165" y="1239"/>
      <point x="1115" y="1239" type="curve" smooth="yes"/>
      <point x="1064" y="1239"/>
      <point x="1039" y="1283"/>
      <point x="1039" y="1435" type="curve" smooth="yes"/>
      <point x="1039" y="1587"/>
      <point x="1064" y="1631"/>
    </contour>
    <contour>
      <point x="218" y="1435" type="curve" smooth="yes"/>
      <point x="218" y="1176"/>
      <point x="306" y="1050"/>
      <point x="488" y="1050" type="curve" smooth="yes"/>
      <point x="670" y="1050"/>
      <point x="757" y="1176"/>
      <point x="757" y="1435" type="curve" smooth="yes"/>
      <point x="757" y="1694"/>
      <point x="670" y="1820"/>
      <point x="488" y="1820" type="curve" smooth="yes"/>
      <point x="306" y="1820"/>
      <point x="218" y="1694"/>
    </contour>
    <contour>
      <point x="488" y="1631" type="curve" smooth="yes"/>
      <point x="538" y="1631"/>
      <point x="564" y="1587"/>
      <point x="564" y="1435" type="curve" smooth="yes"/>
      <point x="564" y="1283"/>
      <point x="538" y="1239"/>
      <point x="488" y="1239" type="curve" smooth="yes"/>
      <point x="437" y="1239"/>
      <point x="412" y="1283"/>
      <point x="412" y="1435" type="curve" smooth="yes"/>
      <point x="412" y="1587"/>
      <point x="437" y="1631"/>
    </contour>
    <contour>
      <point x="801" y="179" type="curve" smooth="yes"/>
      <point x="632" y="179"/>
      <point x="590" y="397"/>
      <point x="590" y="714" type="curve" smooth="yes"/>
      <point x="590" y="1108" type="line"/>
      <point x="385" y="1108" type="line"/>
      <point x="385" y="714" type="line" smooth="yes"/>
      <point x="385" y="357"/>
      <point x="443" y="-20"/>
      <point x="801" y="-20" type="curve" smooth="yes"/>
      <point x="1161" y="-20"/>
      <point x="1219" y="357"/>
      <point x="1219" y="714" type="curve" smooth="yes"/>
      <point x="1219" y="1108" type="line"/>
      <point x="1014" y="1108" type="line"/>
      <point x="1014" y="714" type="line" smooth="yes"/>
      <point x="1014" y="397"/>
      <point x="972" y="179"/>
    </contour>
  </outline>
</glyph>
<glyph name="uniA010" format="2">
  <advance width="1600"/>
  <unicode hex="A010"/>
  <outline>
    <contour>
      <point x="1010" y="-27" type="curve" smooth="yes"/>
      <point x="1248" y="-27"/>
      <point x="1348" y="266"/>
      <point x="1348" y="896" type="curve" smooth="yes"/>
      <point x="1348" y="1527"/>
      <point x="1248" y="1820"/>
      <point x="1010" y="1820" type="curve" smooth="yes"/>
      <point x="833" y="1820"/>
      <point x="734" y="1660"/>
      <point x="694" y="1321" type="curve"/>
      <point x="440" y="1574" type="line"/>
      <point x="440" y="446" type="line"/>
      <point x="216" y="666" type="line"/>
      <point x="141" y="592" type="line"/>
      <point x="547" y="195" type="line"/>
      <point x="547" y="1320" type="line"/>
      <point x="682" y="1184" type="line"/>
      <point x="677" y="1096"/>
      <point x="673" y="1002"/>
      <point x="673" y="896" type="curve" smooth="yes"/>
      <point x="673" y="266"/>
      <point x="771" y="-27"/>
    </contour>
    <contour>
      <point x="1010" y="77" type="curve" smooth="yes"/>
      <point x="892" y="77"/>
      <point x="780" y="233"/>
      <point x="780" y="896" type="curve" smooth="yes"/>
      <point x="780" y="1552"/>
      <point x="892" y="1716"/>
      <point x="1010" y="1716" type="curve" smooth="yes"/>
      <point x="1127" y="1716"/>
      <point x="1241" y="1560"/>
      <point x="1241" y="896" type="curve" smooth="yes"/>
      <point x="1241" y="233"/>
      <point x="1127" y="77"/>
    </contour>
    <contour>
      <point x="956" y="674" type="line"/>
      <point x="1063" y="674" type="line"/>
      <point x="1063" y="1120" type="line"/>
      <point x="956" y="1120" type="line"/>
    </contour>
    <contour>
      <point x="568" y="1945" type="line"/>
      <point x="600" y="1983"/>
      <point x="699" y="2045"/>
      <point x="793" y="2045" type="curve" smooth="yes"/>
      <point x="892" y="2045"/>
      <point x="993" y="1982"/>
      <point x="1015" y="1951" type="curve"/>
      <point x="1103" y="2012" type="line"/>
      <point x="1061" y="2071"/>
      <point x="924" y="2150"/>
      <point x="793" y="2150" type="curve" smooth="yes"/>
      <point x="664" y="2150"/>
      <point x="535" y="2071"/>
      <point x="485" y="2012" type="curve"/>
    </contour>
  </outline>
</glyph>
<glyph name="uniA011" format="2">
  <advance width="1600"/>
  <unicode hex="A011"/>
  <anchor x="800" y="1900" name="top"/>
  <outline>
    <contour>
      <point x="991" y="653" type="line"/>
      <point x="1155" y="653" type="line"/>
      <point x="1155" y="1139" type="line"/>
      <point x="991" y="1139" type="line"/>
    </contour>
    <contour>
      <point x="1073" y="-20" type="curve" smooth="yes"/>
      <point x="1350" y="-20"/>
      <point x="1484" y="252"/>
      <point x="1484" y="900" type="curve" smooth="yes"/>
      <point x="1484" y="1548"/>
      <point x="1350" y="1820"/>
      <point x="1073" y="1820" type="curve" smooth="yes"/>
      <point x="796" y="1820"/>
      <point x="662" y="1548"/>
      <point x="662" y="900" type="curve" smooth="yes"/>
      <point x="662" y="252"/>
      <point x="796" y="-20"/>
    </contour>
    <contour>
      <point x="1073" y="1621" type="curve" smooth="yes"/>
      <point x="1180" y="1621"/>
      <point x="1281" y="1461"/>
      <point x="1281" y="900" type="curve" smooth="yes"/>
      <point x="1281" y="339"/>
      <point x="1180" y="179"/>
      <point x="1073" y="179" type="curve" smooth="yes"/>
      <point x="966" y="179"/>
      <point x="865" y="339"/>
      <point x="865" y="900" type="curve" smooth="yes"/>
      <point x="865" y="1461"/>
      <point x="966" y="1621"/>
    </contour>
    <contour>
      <point x="495" y="221" type="line"/>
      <point x="496" y="1407" type="line"/>
      <point x="444" y="1356" type="line"/>
      <point x="687" y="1177" type="line"/>
      <point x="719" y="1372" type="line"/>
      <point x="329" y="1659" type="line"/>
      <point x="329" y="468" type="line"/>
      <point x="401" y="501" type="line"/>
      <point x="197" y="653" type="line"/>
      <point x="90" y="512" type="line"/>
    </contour>
  </outline>
</glyph>
<glyph name="uniA014" format="2">
  <advance width="1600"/>
  <unicode hex="A014"/>
  <anchor x="800" y="1900" name="top"/>
  <outline>
    <contour>
      <point x="533" y="1054" type="curve"/>
      <point x="533" y="1000" type="line"/>
      <point x="647" y="1068"/>
      <point x="716" y="1153"/>
      <point x="716" y="1262" type="curve" smooth="yes"/>
      <point x="716" y="1488"/>
      <point x="549" y="1630"/>
      <point x="184" y="1630" type="curve"/>
      <point x="184" y="1445" type="line"/>
      <point x="446" y="1445"/>
      <point x="519" y="1369"/>
      <point x="519" y="1262" type="curve" smooth="yes"/>
      <point x="519" y="1176"/>
      <point x="429" y="1119"/>
      <point x="302" y="1119" type="curve"/>
      <point x="302" y="936" type="line"/>
      <point x="426" y="936"/>
      <point x="520" y="870"/>
      <point x="520" y="782" type="curve" smooth="yes"/>
      <point x="520" y="702"/>
      <point x="443" y="619"/>
      <point x="178" y="619" type="curve"/>
      <point x="178" y="434" type="line"/>
      <point x="545" y="434"/>
      <point x="717" y="591"/>
      <point x="717" y="782" type="curve" smooth="yes"/>
      <point x="717" y="890"/>
      <point x="642" y="983"/>
    </contour>
    <contour>
      <point x="520" y="1123" type="line"/>
      <point x="520" y="932" type="line"/>
      <point x="972" y="932" type="line"/>
      <point x="972" y="1123" type="line"/>
    </contour>
    <contour>
      <point x="905" y="1833" type="line"/>
      <point x="905" y="219" type="line"/>
      <point x="980" y="254" type="line"/>
      <point x="637" y="434" type="line"/>
      <point x="545" y="258" type="line"/>
      <point x="1112" y="-40" type="line"/>
      <point x="1112" y="1567" type="line"/>
      <point x="1037" y="1539" type="line"/>
      <point x="1380" y="1359" type="line"/>
      <point x="1472" y="1535" type="line"/>
    </contour>
  </outline>
</glyph>
<glyph name="uniA015" format="2">
  <advance width="1600"/>
  <unicode hex="A015"/>
  <outline>
    <contour>
      <point x="399" y="0" type="line"/>
      <point x="606" y="0" type="line"/>
      <point x="606" y="669" type="line"/>
      <point x="399" y="669" type="line"/>
    </contour>
    <contour>
      <point x="995" y="0" type="line"/>
      <point x="1202" y="0" type="line"/>
      <point x="1202" y="669" type="line"/>
      <point x="995" y="669" type="line"/>
    </contour>
    <contour>
      <point x="1067" y="930" type="curve" smooth="yes"/>
      <point x="1395" y="930"/>
      <point x="1439" y="1484"/>
      <point x="1439" y="1800" type="curve"/>
      <point x="1232" y="1800" type="line"/>
      <point x="1232" y="1520"/>
      <point x="1205" y="1122"/>
      <point x="1067" y="1122" type="curve" smooth="yes"/>
      <point x="929" y="1122"/>
      <point x="901" y="1520"/>
      <point x="901" y="1800" type="curve"/>
      <point x="694" y="1800" type="line"/>
      <point x="694" y="1520"/>
      <point x="667" y="1122"/>
      <point x="529" y="1122" type="curve" smooth="yes"/>
      <point x="391" y="1122"/>
      <point x="363" y="1520"/>
      <point x="363" y="1800" type="curve"/>
      <point x="156" y="1800" type="line"/>
      <point x="156" y="1484"/>
      <point x="201" y="930"/>
      <point x="529" y="930" type="curve" smooth="yes"/>
      <point x="674" y="930"/>
      <point x="783" y="1055"/>
      <point x="803" y="1220" type="curve"/>
      <point x="793" y="1220" type="line"/>
      <point x="813" y="1055"/>
      <point x="922" y="930"/>
    </contour>
  </outline>
</glyph>
<glyph name="uniA016" format="2">
  <advance width="1600"/>
  <unicode hex="A016"/>
  <outline>
    <contour>
      <point x="1456" y="1183" type="line"/>
      <point x="1329" y="1306" type="line"/>
      <point x="988" y="960" type="line"/>
      <point x="625" y="616" type="line"/>
      <point x="752" y="494" type="line"/>
      <point x="1096" y="843" type="line"/>
    </contour>
    <contour>
      <point x="688" y="-20" type="curve" smooth="yes"/>
      <point x="957" y="-20"/>
      <point x="1147" y="252"/>
      <point x="1147" y="900" type="curve" smooth="yes"/>
      <point x="1147" y="1548"/>
      <point x="957" y="1820"/>
      <point x="688" y="1820" type="curve" smooth="yes"/>
      <point x="417" y="1820"/>
      <point x="226" y="1548"/>
      <point x="226" y="900" type="curve" smooth="yes"/>
      <point x="226" y="252"/>
      <point x="417" y="-20"/>
    </contour>
    <contour>
      <point x="688" y="1621" type="curve" smooth="yes"/>
      <point x="823" y="1621"/>
      <point x="951" y="1461"/>
      <point x="951" y="900" type="curve" smooth="yes"/>
      <point x="951" y="339"/>
      <point x="823" y="179"/>
      <point x="688" y="179" type="curve" smooth="yes"/>
      <point x="556" y="179"/>
      <point x="431" y="339"/>
      <point x="431" y="900" type="curve" smooth="yes"/>
      <point x="431" y="1461"/>
      <point x="556" y="1621"/>
    </contour>
    <contour>
      <point x="625" y="1183" type="line"/>
      <point x="982" y="846" type="line"/>
      <point x="1329" y="494" type="line"/>
      <point x="1457" y="616" type="line"/>
      <point x="1094" y="960" type="line"/>
      <point x="753" y="1306" type="line"/>
    </contour>
  </outline>
</glyph>
<glyph name="uniA018" format="2">
  <advance width="1600"/>
  <unicode hex="A018"/>
  <anchor x="800" y="1900" name="top"/>
  <outline>
    <contour>
      <point x="434" y="0" type="line"/>
      <point x="434" y="1793" type="line"/>
      <point x="229" y="1793" type="line"/>
      <point x="229" y="0" type="line"/>
    </contour>
    <contour>
      <point x="369" y="989" type="line"/>
      <point x="369" y="803" type="line"/>
      <point x="1325" y="803" type="line"/>
      <point x="1325" y="989" type="line"/>
    </contour>
    <contour>
      <point x="669" y="896" type="curve" smooth="yes"/>
      <point x="669" y="479"/>
      <point x="890" y="115"/>
      <point x="1304" y="-16" type="curve"/>
      <point x="1364" y="170" type="line"/>
      <point x="1015" y="286"/>
      <point x="873" y="609"/>
      <point x="873" y="896" type="curve" smooth="yes"/>
      <point x="873" y="1183"/>
      <point x="1015" y="1506"/>
      <point x="1364" y="1622" type="curve"/>
      <point x="1304" y="1808" type="line"/>
      <point x="890" y="1677"/>
      <point x="669" y="1313"/>
    </contour>
  </outline>
</glyph>
<glyph name="uniA019" format="2">
  <advance width="1600"/>
  <unicode hex="A019"/>
  <outline>
    <contour>
      <point x="430" y="0" type="line"/>
      <point x="430" y="1619" type="line"/>
      <point x="297" y="1554" type="line"/>
      <point x="1284" y="1172" type="line"/>
      <point x="1284" y="1800" type="line"/>
      <point x="1084" y="1800" type="line"/>
      <point x="1084" y="1332" type="line"/>
      <point x="1212" y="1404" type="line"/>
      <point x="229" y="1783" type="line"/>
      <point x="229" y="0" type="line"/>
    </contour>
    <contour>
      <point x="369" y="685" type="line"/>
      <point x="369" y="522" type="line"/>
      <point x="1404" y="522" type="line"/>
      <point x="1404" y="685" type="line"/>
    </contour>
    <contour>
      <point x="1333" y="112" type="curve"/>
      <point x="1333" y="293" type="line"/>
      <point x="968" y="293"/>
      <point x="826" y="460"/>
      <point x="826" y="605" type="curve" smooth="yes"/>
      <point x="826" y="750"/>
      <point x="968" y="917"/>
      <point x="1333" y="917" type="curve"/>
      <point x="1333" y="1098" type="line"/>
      <point x="884" y="1098"/>
      <point x="639" y="873"/>
      <point x="639" y="605" type="curve" smooth="yes"/>
      <point x="639" y="337"/>
      <point x="884" y="112"/>
    </contour>
  </outline>
</glyph>
<glyph name="uniA01A" format="2">
  <advance width="1600"/>
  <unicode hex="A01A"/>
  <outline>
    <contour>
      <point x="129" y="900" type="curve" smooth="yes"/>
      <point x="129" y="223"/>
      <point x="256" y="-20"/>
      <point x="472" y="-20" type="curve" smooth="yes"/>
      <point x="688" y="-20"/>
      <point x="814" y="223"/>
      <point x="814" y="900" type="curve" smooth="yes"/>
      <point x="814" y="1577"/>
      <point x="688" y="1820"/>
      <point x="472" y="1820" type="curve" smooth="yes"/>
      <point x="256" y="1820"/>
      <point x="129" y="1577"/>
    </contour>
    <contour>
      <point x="1329" y="1788" type="line"/>
      <point x="1052" y="1607"/>
      <point x="905" y="1186"/>
      <point x="905" y="900" type="curve" smooth="yes"/>
      <point x="905" y="614"/>
      <point x="1052" y="193"/>
      <point x="1329" y="12" type="curve"/>
      <point x="1446" y="173" type="line"/>
      <point x="1209" y="329"/>
      <point x="1109" y="630"/>
      <point x="1109" y="900" type="curve" smooth="yes"/>
      <point x="1109" y="1170"/>
      <point x="1209" y="1471"/>
      <point x="1446" y="1627" type="curve"/>
    </contour>
    <contour>
      <point x="472" y="1621" type="curve" smooth="yes"/>
      <point x="543" y="1621"/>
      <point x="611" y="1486"/>
      <point x="611" y="900" type="curve" smooth="yes"/>
      <point x="611" y="314"/>
      <point x="543" y="179"/>
      <point x="472" y="179" type="curve" smooth="yes"/>
      <point x="401" y="179"/>
      <point x="333" y="314"/>
      <point x="333" y="900" type="curve" smooth="yes"/>
      <point x="333" y="1486"/>
      <point x="401" y="1621"/>
    </contour>
    <contour>
      <point x="789" y="803" type="line"/>
      <point x="1365" y="803" type="line"/>
      <point x="1365" y="990" type="line"/>
      <point x="789" y="990" type="line"/>
    </contour>
  </outline>
</glyph>
<glyph name="uniA01C" format="2">
  <advance width="1600"/>
  <unicode hex="A01C"/>
  <anchor x="800" y="1900" name="top"/>
  <outline>
    <contour>
      <point x="190" y="900" type="curve" smooth="yes"/>
      <point x="190" y="252"/>
      <point x="410" y="-20"/>
      <point x="724" y="-20" type="curve" smooth="yes"/>
      <point x="1038" y="-20"/>
      <point x="1259" y="252"/>
      <point x="1259" y="900" type="curve" smooth="yes"/>
      <point x="1259" y="1548"/>
      <point x="1038" y="1820"/>
      <point x="724" y="1820" type="curve" smooth="yes"/>
      <point x="410" y="1820"/>
      <point x="190" y="1548"/>
    </contour>
    <contour>
      <point x="1052" y="900" type="curve" smooth="yes"/>
      <point x="1052" y="335"/>
      <point x="892" y="174"/>
      <point x="724" y="174" type="curve" smooth="yes"/>
      <point x="556" y="174"/>
      <point x="396" y="335"/>
      <point x="396" y="900" type="curve" smooth="yes"/>
      <point x="396" y="1465"/>
      <point x="556" y="1626"/>
      <point x="724" y="1626" type="curve" smooth="yes"/>
      <point x="892" y="1626"/>
      <point x="1052" y="1465"/>
    </contour>
    <contour>
      <point x="1228" y="1694" type="line"/>
      <point x="383" y="552" type="line"/>
      <point x="447" y="325" type="line"/>
      <point x="1377" y="1583" type="line"/>
    </contour>
  </outline>
</glyph>
<glyph name="uniA01D" format="2">
  <advance width="1600"/>
  <unicode hex="A01D"/>
  <outline>
    <contour>
      <point x="1171" y="920" type="curve"/>
      <point x="1171" y="882" type="line"/>
      <point x="1350" y="947"/>
      <point x="1440" y="1102"/>
      <point x="1440" y="1266" type="curve" smooth="yes"/>
      <point x="1440" y="1434"/>
      <point x="1345" y="1610"/>
      <point x="1154" y="1707" type="curve"/>
      <point x="1050" y="1539" type="line"/>
      <point x="1187" y="1470"/>
      <point x="1246" y="1371"/>
      <point x="1246" y="1278" type="curve" smooth="yes"/>
      <point x="1246" y="1131"/>
      <point x="1127" y="998"/>
      <point x="941" y="998" type="curve" smooth="yes"/>
      <point x="901" y="998" type="line"/>
      <point x="901" y="804" type="line"/>
      <point x="941" y="804" type="line" smooth="yes"/>
      <point x="1127" y="804"/>
      <point x="1246" y="671"/>
      <point x="1246" y="524" type="curve" smooth="yes"/>
      <point x="1246" y="431"/>
      <point x="1187" y="332"/>
      <point x="1050" y="263" type="curve"/>
      <point x="1154" y="95" type="line"/>
      <point x="1345" y="192"/>
      <point x="1440" y="368"/>
      <point x="1440" y="536" type="curve" smooth="yes"/>
      <point x="1440" y="700"/>
      <point x="1350" y="855"/>
    </contour>
    <contour>
      <point x="165" y="900" type="curve" smooth="yes"/>
      <point x="165" y="252"/>
      <point x="297" y="-20"/>
      <point x="548" y="-20" type="curve" smooth="yes"/>
      <point x="799" y="-20"/>
      <point x="930" y="252"/>
      <point x="930" y="900" type="curve" smooth="yes"/>
      <point x="930" y="1548"/>
      <point x="799" y="1820"/>
      <point x="548" y="1820" type="curve" smooth="yes"/>
      <point x="297" y="1820"/>
      <point x="165" y="1548"/>
    </contour>
    <contour>
      <point x="548" y="179" type="curve" smooth="yes"/>
      <point x="455" y="179"/>
      <point x="368" y="339"/>
      <point x="368" y="900" type="curve" smooth="yes"/>
      <point x="368" y="1461"/>
      <point x="455" y="1621"/>
      <point x="548" y="1621" type="curve" smooth="yes"/>
      <point x="641" y="1621"/>
      <point x="728" y="1461"/>
      <point x="728" y="900" type="curve" smooth="yes"/>
      <point x="728" y="339"/>
      <point x="641" y="179"/>
    </contour>
  </outline>
</glyph>
<glyph name="uniA01E" format="2">
  <advance width="1600"/>
  <unicode hex="A01E"/>
  <outline>
    <contour>
      <point x="1158" y="1793" type="line"/>
      <point x="1158" y="741" type="line"/>
      <point x="1361" y="741" type="line"/>
      <point x="1361" y="1793" type="line"/>
    </contour>
    <contour>
      <point x="442" y="741" type="line"/>
      <point x="442" y="1793" type="line"/>
      <point x="239" y="1793" type="line"/>
      <point x="239" y="741" type="line"/>
    </contour>
    <contour>
      <point x="377" y="1364" type="line"/>
      <point x="377" y="1172" type="line"/>
      <point x="1222" y="1172" type="line"/>
      <point x="1222" y="1364" type="line"/>
    </contour>
    <contour>
      <point x="366" y="371" type="curve" smooth="yes"/>
      <point x="366" y="134"/>
      <point x="519" y="-65"/>
      <point x="801" y="-65" type="curve" smooth="yes"/>
      <point x="1083" y="-65"/>
      <point x="1236" y="134"/>
      <point x="1236" y="371" type="curve" smooth="yes"/>
      <point x="1236" y="608"/>
      <point x="1083" y="807"/>
      <point x="801" y="807" type="curve" smooth="yes"/>
      <point x="519" y="807"/>
      <point x="366" y="608"/>
    </contour>
    <contour>
      <point x="1032" y="371" type="curve" smooth="yes"/>
      <point x="1032" y="258"/>
      <point x="967" y="128"/>
      <point x="801" y="128" type="curve" smooth="yes"/>
      <point x="635" y="128"/>
      <point x="570" y="258"/>
      <point x="570" y="371" type="curve" smooth="yes"/>
      <point x="570" y="484"/>
      <point x="635" y="614"/>
      <point x="801" y="614" type="curve" smooth="yes"/>
      <point x="967" y="614"/>
      <point x="1032" y="484"/>
    </contour>
  </outline>
</glyph>
<glyph name="uniA01F" format="2">
  <advance width="1600"/>
  <unicode hex="A01F"/>
  <outline>
    <contour>
      <point x="339" y="721" type="line"/>
      <point x="445" y="721" type="line"/>
      <point x="445" y="1206" type="line"/>
      <point x="1138" y="1206" type="line"/>
      <point x="1138" y="721" type="line"/>
      <point x="1245" y="721" type="line"/>
      <point x="1245" y="1793" type="line"/>
      <point x="1138" y="1793" type="line"/>
      <point x="1138" y="1310" type="line"/>
      <point x="445" y="1310" type="line"/>
      <point x="445" y="1793" type="line"/>
      <point x="339" y="1793" type="line"/>
    </contour>
    <contour>
      <point x="537" y="-27" type="curve" smooth="yes"/>
      <point x="675" y="-27"/>
      <point x="753" y="87"/>
      <point x="792" y="195" type="curve"/>
      <point x="830" y="85"/>
      <point x="906" y="-27"/>
      <point x="1046" y="-27" type="curve" smooth="yes"/>
      <point x="1318" y="-27"/>
      <point x="1353" y="390"/>
      <point x="1353" y="572" type="curve"/>
      <point x="1246" y="572" type="line"/>
      <point x="1246" y="459"/>
      <point x="1227" y="77"/>
      <point x="1046" y="77" type="curve" smooth="yes"/>
      <point x="865" y="77"/>
      <point x="845" y="459"/>
      <point x="845" y="572" type="curve"/>
      <point x="739" y="572" type="line"/>
      <point x="739" y="459"/>
      <point x="719" y="77"/>
      <point x="537" y="77" type="curve" smooth="yes"/>
      <point x="356" y="77"/>
      <point x="338" y="459"/>
      <point x="338" y="572" type="curve"/>
      <point x="231" y="572" type="line"/>
      <point x="231" y="391"/>
      <point x="267" y="-27"/>
    </contour>
    <contour>
      <point x="565" y="1898" type="line"/>
      <point x="598" y="1935"/>
      <point x="697" y="1999"/>
      <point x="790" y="1999" type="curve" smooth="yes"/>
      <point x="890" y="1999"/>
      <point x="992" y="1934"/>
      <point x="1014" y="1904" type="curve"/>
      <point x="1102" y="1965" type="line"/>
      <point x="1059" y="2023"/>
      <point x="921" y="2102"/>
      <point x="790" y="2102" type="curve" smooth="yes"/>
      <point x="661" y="2102"/>
      <point x="532" y="2023"/>
      <point x="482" y="1965" type="curve"/>
    </contour>
  </outline>
</glyph>
<glyph name="uniA020" format="2">
  <advance width="1600"/>
  <unicode hex="A020"/>
  <anchor x="800" y="1900" name="top"/>
  <outline>
    <contour>
      <point x="219" y="588" type="line"/>
      <point x="219" y="367"/>
      <point x="259" y="-20"/>
      <point x="561" y="-20" type="curve" smooth="yes"/>
      <point x="690" y="-20"/>
      <point x="776" y="66"/>
      <point x="805" y="180" type="curve"/>
      <point x="796" y="180" type="line"/>
      <point x="825" y="66"/>
      <point x="911" y="-20"/>
      <point x="1040" y="-20" type="curve" smooth="yes"/>
      <point x="1342" y="-20"/>
      <point x="1382" y="367"/>
      <point x="1382" y="588" type="curve"/>
      <point x="1188" y="588" type="line"/>
      <point x="1188" y="414"/>
      <point x="1164" y="166"/>
      <point x="1040" y="166" type="curve" smooth="yes"/>
      <point x="929" y="166"/>
      <point x="894" y="414"/>
      <point x="894" y="588" type="curve"/>
      <point x="707" y="588" type="line"/>
      <point x="707" y="414"/>
      <point x="672" y="166"/>
      <point x="561" y="166" type="curve" smooth="yes"/>
      <point x="437" y="166"/>
      <point x="413" y="414"/>
      <point x="413" y="588" type="curve"/>
    </contour>
    <contour>
      <point x="1096" y="1800" type="line"/>
      <point x="1096" y="717" type="line"/>
      <point x="1293" y="717" type="line"/>
      <point x="1293" y="1800" type="line"/>
    </contour>
    <contour>
      <point x="503" y="717" type="line"/>
      <point x="503" y="1800" type="line"/>
      <point x="307" y="1800" type="line"/>
      <point x="307" y="717" type="line"/>
    </contour>
    <contour>
      <point x="437" y="1358" type="line"/>
      <point x="437" y="1168" type="line"/>
      <point x="1162" y="1168" type="line"/>
      <point x="1162" y="1358" type="line"/>
    </contour>
  </outline>
</glyph>
<glyph name="uniA021" format="2">
  <advance width="1600"/>
  <unicode hex="A021"/>
  <outline>
    <contour>
      <point x="293" y="-28" type="line"/>
      <point x="720" y="536" type="line"/>
      <point x="567" y="649" type="line"/>
      <point x="140" y="85" type="line"/>
    </contour>
    <contour>
      <point x="1308" y="-28" type="line"/>
      <point x="1461" y="85" type="line"/>
      <point x="1033" y="649" type="line"/>
      <point x="880" y="536" type="line"/>
    </contour>
    <contour>
      <point x="1096" y="1800" type="line"/>
      <point x="1096" y="717" type="line"/>
      <point x="1293" y="717" type="line"/>
      <point x="1293" y="1800" type="line"/>
    </contour>
    <contour>
      <point x="503" y="717" type="line"/>
      <point x="503" y="1800" type="line"/>
      <point x="307" y="1800" type="line"/>
      <point x="307" y="717" type="line"/>
    </contour>
    <contour>
      <point x="437" y="1358" type="line"/>
      <point x="437" y="1168" type="line"/>
      <point x="1162" y="1168" type="line"/>
      <point x="1162" y="1358" type="line"/>
    </contour>
  </outline>
</glyph>
<glyph name="uniA022" format="2">
  <advance width="1600"/>
  <unicode hex="A022"/>
  <outline>
    <contour>
      <point x="393" y="0" type="line"/>
      <point x="500" y="0" type="line"/>
      <point x="500" y="464" type="line"/>
      <point x="975" y="271" type="line" smooth="yes"/>
      <point x="1029" y="249"/>
      <point x="1070" y="235"/>
      <point x="1120" y="235" type="curve" smooth="yes"/>
      <point x="1250" y="235"/>
      <point x="1287" y="343"/>
      <point x="1287" y="415" type="curve" smooth="yes"/>
      <point x="1287" y="1356" type="line" smooth="yes"/>
      <point x="1287" y="1667"/>
      <point x="1033" y="1780"/>
      <point x="880" y="1780" type="curve" smooth="yes"/>
      <point x="603" y="1780"/>
      <point x="405" y="1656"/>
      <point x="281" y="1443" type="curve"/>
      <point x="372" y="1393" type="line"/>
      <point x="479" y="1573"/>
      <point x="643" y="1676"/>
      <point x="880" y="1676" type="curve" smooth="yes"/>
      <point x="992" y="1676"/>
      <point x="1180" y="1594"/>
      <point x="1180" y="1356" type="curve" smooth="yes"/>
      <point x="1180" y="415" type="line" smooth="yes"/>
      <point x="1180" y="368"/>
      <point x="1160" y="339"/>
      <point x="1120" y="339" type="curve" smooth="yes"/>
      <point x="1093" y="339"/>
      <point x="1066" y="347"/>
      <point x="1016" y="367" type="curve" smooth="yes"/>
      <point x="393" y="621" type="line"/>
    </contour>
    <contour>
      <point x="534" y="718" type="line"/>
      <point x="913" y="718" type="line"/>
      <point x="913" y="821" type="line"/>
      <point x="778" y="821" type="line"/>
      <point x="778" y="1267" type="line"/>
      <point x="913" y="1267" type="line"/>
      <point x="913" y="1371" type="line"/>
      <point x="534" y="1371" type="line"/>
      <point x="534" y="1267" type="line"/>
      <point x="671" y="1267" type="line"/>
      <point x="671" y="821" type="line"/>
      <point x="534" y="821" type="line"/>
    </contour>
    <contour>
      <point x="568" y="1945" type="line"/>
      <point x="601" y="1983"/>
      <point x="699" y="2045"/>
      <point x="793" y="2045" type="curve" smooth="yes"/>
      <point x="892" y="2045"/>
      <point x="993" y="1982"/>
      <point x="1016" y="1951" type="curve"/>
      <point x="1104" y="2012" type="line"/>
      <point x="1061" y="2071"/>
      <point x="924" y="2150"/>
      <point x="793" y="2150" type="curve" smooth="yes"/>
      <point x="664" y="2150"/>
      <point x="535" y="2071"/>
      <point x="485" y="2012" type="curve"/>
    </contour>
  </outline>
</glyph>
<glyph name="uniA023" format="2">
  <advance width="1600"/>
  <unicode hex="A023"/>
  <anchor x="800" y="1900" name="top"/>
  <outline>
    <contour>
      <point x="554" y="1223" type="line"/>
      <point x="963" y="1223" type="line"/>
      <point x="963" y="1367" type="line"/>
      <point x="554" y="1367" type="line"/>
    </contour>
    <contour>
      <point x="337" y="0" type="line"/>
      <point x="544" y="0" type="line"/>
      <point x="544" y="448" type="line"/>
      <point x="494" y="410" type="line"/>
      <point x="1001" y="254" type="line" smooth="yes"/>
      <point x="1041" y="242"/>
      <point x="1077" y="233"/>
      <point x="1111" y="233" type="curve" smooth="yes"/>
      <point x="1249" y="233"/>
      <point x="1333" y="346"/>
      <point x="1333" y="505" type="curve" smooth="yes"/>
      <point x="1333" y="1396" type="line" smooth="yes"/>
      <point x="1333" y="1704"/>
      <point x="1087" y="1820"/>
      <point x="868" y="1820" type="curve" smooth="yes"/>
      <point x="567" y="1820"/>
      <point x="354" y="1683"/>
      <point x="222" y="1448" type="curve"/>
      <point x="401" y="1348" type="line"/>
      <point x="501" y="1525"/>
      <point x="651" y="1623"/>
      <point x="868" y="1623" type="curve" smooth="yes"/>
      <point x="990" y="1623"/>
      <point x="1126" y="1567"/>
      <point x="1126" y="1396" type="curve" smooth="yes"/>
      <point x="1126" y="505" type="line" smooth="yes"/>
      <point x="1126" y="461"/>
      <point x="1113" y="440"/>
      <point x="1083" y="440" type="curve" smooth="yes"/>
      <point x="1072" y="440"/>
      <point x="1059" y="443"/>
      <point x="1044" y="448" type="curve" smooth="yes"/>
      <point x="337" y="674" type="line"/>
    </contour>
    <contour>
      <point x="963" y="858" type="line"/>
      <point x="554" y="858" type="line"/>
      <point x="554" y="714" type="line"/>
      <point x="963" y="714" type="line"/>
    </contour>
    <contour>
      <point x="681" y="801" type="line"/>
      <point x="836" y="801" type="line"/>
      <point x="836" y="1279" type="line"/>
      <point x="681" y="1279" type="line"/>
    </contour>
  </outline>
</glyph>
<glyph name="uniA024" format="2">
  <advance width="1600"/>
  <unicode hex="A024"/>
  <outline>
    <contour>
      <point x="245" y="1594" type="line"/>
      <point x="1352" y="1594" type="line"/>
      <point x="1352" y="1793" type="line"/>
      <point x="245" y="1793" type="line"/>
    </contour>
    <contour>
      <point x="1352" y="199" type="line"/>
      <point x="245" y="199" type="line"/>
      <point x="245" y="0" type="line"/>
      <point x="1352" y="0" type="line"/>
    </contour>
    <contour>
      <point x="902" y="1705" type="line"/>
      <point x="696" y="1705" type="line"/>
      <point x="696" y="88" type="line"/>
      <point x="902" y="88" type="line"/>
    </contour>
  </outline>
</glyph>
<glyph name="uniA025" format="2">
  <advance width="1600"/>
  <unicode hex="A025"/>
  <outline>
    <contour>
      <point x="209" y="1421" type="line"/>
      <point x="675" y="950" type="line"/>
      <point x="784" y="1059" type="line"/>
      <point x="317" y="1531" type="line"/>
    </contour>
    <contour>
      <point x="1425" y="171" type="line"/>
      <point x="1105" y="171"/>
      <point x="979" y="341"/>
      <point x="979" y="489" type="curve" smooth="yes"/>
      <point x="979" y="636"/>
      <point x="1105" y="805"/>
      <point x="1425" y="805" type="curve"/>
      <point x="1425" y="996" type="line"/>
      <point x="1105" y="996"/>
      <point x="979" y="1165"/>
      <point x="979" y="1311" type="curve" smooth="yes"/>
      <point x="979" y="1459"/>
      <point x="1105" y="1629"/>
      <point x="1425" y="1629" type="curve"/>
      <point x="1425" y="1820" type="line"/>
      <point x="1011" y="1820"/>
      <point x="787" y="1588"/>
      <point x="787" y="1311" type="curve" smooth="yes"/>
      <point x="787" y="1134"/>
      <point x="885" y="975"/>
      <point x="1069" y="884" type="curve"/>
      <point x="1069" y="916" type="line"/>
      <point x="885" y="825"/>
      <point x="787" y="666"/>
      <point x="787" y="489" type="curve" smooth="yes"/>
      <point x="787" y="212"/>
      <point x="1011" y="-20"/>
      <point x="1425" y="-20" type="curve"/>
    </contour>
    <contour>
      <point x="915" y="276" type="curve"/>
      <point x="915" y="464" type="line"/>
      <point x="617" y="464"/>
      <point x="502" y="696"/>
      <point x="502" y="896" type="curve" smooth="yes"/>
      <point x="502" y="1096"/>
      <point x="617" y="1328"/>
      <point x="915" y="1328" type="curve"/>
      <point x="915" y="1516" type="line"/>
      <point x="525" y="1516"/>
      <point x="313" y="1218"/>
      <point x="313" y="896" type="curve" smooth="yes"/>
      <point x="313" y="574"/>
      <point x="525" y="276"/>
    </contour>
    <contour>
      <point x="209" y="379" type="line"/>
      <point x="317" y="269" type="line"/>
      <point x="784" y="741" type="line"/>
      <point x="675" y="850" type="line"/>
    </contour>
  </outline>
</glyph>
<glyph name="uniA027" format="2">
  <advance width="1600"/>
  <unicode hex="A027"/>
  <anchor x="800" y="1900" name="top"/>
  <outline>
    <contour>
      <point x="541" y="1193" type="line"/>
      <point x="1059" y="1193" type="line"/>
      <point x="1059" y="1369" type="line"/>
      <point x="541" y="1369" type="line"/>
    </contour>
    <contour>
      <point x="1059" y="599" type="line"/>
      <point x="541" y="599" type="line"/>
      <point x="541" y="423" type="line"/>
      <point x="1059" y="423" type="line"/>
    </contour>
    <contour>
      <point x="892" y="1240" type="line"/>
      <point x="706" y="1240" type="line"/>
      <point x="706" y="561" type="line"/>
      <point x="892" y="561" type="line"/>
    </contour>
    <contour>
      <point x="205" y="900" type="curve" smooth="yes"/>
      <point x="205" y="252"/>
      <point x="450" y="-20"/>
      <point x="800" y="-20" type="curve" smooth="yes"/>
      <point x="1150" y="-20"/>
      <point x="1395" y="252"/>
      <point x="1395" y="900" type="curve" smooth="yes"/>
      <point x="1395" y="1548"/>
      <point x="1150" y="1820"/>
      <point x="800" y="1820" type="curve" smooth="yes"/>
      <point x="450" y="1820"/>
      <point x="205" y="1548"/>
    </contour>
    <contour>
      <point x="800" y="179" type="curve" smooth="yes"/>
      <point x="602" y="179"/>
      <point x="413" y="339"/>
      <point x="413" y="900" type="curve" smooth="yes"/>
      <point x="413" y="1461"/>
      <point x="602" y="1621"/>
      <point x="800" y="1621" type="curve" smooth="yes"/>
      <point x="998" y="1621"/>
      <point x="1187" y="1461"/>
      <point x="1187" y="900" type="curve" smooth="yes"/>
      <point x="1187" y="339"/>
      <point x="998" y="179"/>
    </contour>
  </outline>
</glyph>
<glyph name="uniA028" format="2">
  <advance width="1600"/>
  <unicode hex="A028"/>
  <outline>
    <contour>
      <point x="245" y="1601" type="line"/>
      <point x="1339" y="1601" type="line"/>
      <point x="1339" y="1793" type="line"/>
      <point x="245" y="1793" type="line"/>
    </contour>
    <contour>
      <point x="245" y="599" type="line"/>
      <point x="1339" y="599" type="line"/>
      <point x="1339" y="791" type="line"/>
      <point x="245" y="791" type="line"/>
    </contour>
    <contour>
      <point x="1339" y="1194" type="line"/>
      <point x="245" y="1194" type="line"/>
      <point x="245" y="1002" type="line"/>
      <point x="1339" y="1002" type="line"/>
    </contour>
    <contour>
      <point x="885" y="1695" type="line"/>
      <point x="700" y="1695" type="line"/>
      <point x="700" y="1117" type="line"/>
      <point x="885" y="1117" type="line"/>
    </contour>
    <contour>
      <point x="1339" y="192" type="line"/>
      <point x="245" y="192" type="line"/>
      <point x="245" y="0" type="line"/>
      <point x="1339" y="0" type="line"/>
    </contour>
    <contour>
      <point x="700" y="88" type="line"/>
      <point x="885" y="88" type="line"/>
      <point x="885" y="666" type="line"/>
      <point x="700" y="666" type="line"/>
    </contour>
  </outline>
</glyph>
<glyph name="uniA02A" format="2">
  <advance width="1600"/>
  <unicode hex="A02A"/>
  <anchor x="800" y="1900" name="top"/>
  <outline>
    <contour>
      <point x="696" y="831" type="line"/>
      <point x="903" y="831" type="line"/>
      <point x="903" y="1251" type="line" smooth="yes"/>
      <point x="903" y="1340"/>
      <point x="915" y="1625"/>
      <point x="1061" y="1625" type="curve" smooth="yes"/>
      <point x="1165" y="1625"/>
      <point x="1207" y="1520"/>
      <point x="1207" y="1334" type="curve"/>
      <point x="1414" y="1334" type="line"/>
      <point x="1414" y="1646"/>
      <point x="1313" y="1822"/>
      <point x="1061" y="1822" type="curve" smooth="yes"/>
      <point x="925" y="1822"/>
      <point x="830" y="1728"/>
      <point x="789" y="1622" type="curve"/>
      <point x="811" y="1622" type="line"/>
      <point x="770" y="1728"/>
      <point x="676" y="1822"/>
      <point x="540" y="1822" type="curve" smooth="yes"/>
      <point x="288" y="1822"/>
      <point x="186" y="1646"/>
      <point x="186" y="1334" type="curve"/>
      <point x="393" y="1334" type="line"/>
      <point x="393" y="1520"/>
      <point x="435" y="1625"/>
      <point x="540" y="1625" type="curve" smooth="yes"/>
      <point x="684" y="1625"/>
      <point x="696" y="1340"/>
      <point x="696" y="1251" type="curve" smooth="yes"/>
    </contour>
    <contour>
      <point x="800" y="-18" type="curve" smooth="yes"/>
      <point x="1088" y="-18"/>
      <point x="1322" y="196"/>
      <point x="1322" y="461" type="curve"/>
      <point x="1115" y="461" type="line"/>
      <point x="1115" y="305"/>
      <point x="973" y="179"/>
      <point x="800" y="179" type="curve" smooth="yes"/>
      <point x="627" y="179"/>
      <point x="485" y="305"/>
      <point x="485" y="461" type="curve"/>
      <point x="278" y="461" type="line"/>
      <point x="278" y="196"/>
      <point x="513" y="-18"/>
    </contour>
    <contour>
      <point x="707" y="379" type="line"/>
      <point x="894" y="379" type="line"/>
      <point x="894" y="720" type="line"/>
      <point x="707" y="720" type="line"/>
    </contour>
  </outline>
</glyph>
<glyph name="uniA02B" format="2">
  <advance width="1600"/>
  <unicode hex="A02B"/>
  <outline>
    <contour>
      <point x="245" y="1601" type="line"/>
      <point x="1339" y="1601" type="line"/>
      <point x="1339" y="1793" type="line"/>
      <point x="245" y="1793" type="line"/>
    </contour>
    <contour>
      <point x="1339" y="192" type="line"/>
      <point x="245" y="192" type="line"/>
      <point x="245" y="0" type="line"/>
      <point x="1339" y="0" type="line"/>
    </contour>
    <contour>
      <point x="700" y="88" type="line"/>
      <point x="885" y="88" type="line"/>
      <point x="885" y="1705" type="line"/>
      <point x="700" y="1705" type="line"/>
    </contour>
    <contour>
      <point x="1275" y="459" type="line"/>
      <point x="1374" y="593" type="line"/>
      <point x="306" y="1359" type="line"/>
      <point x="207" y="1225" type="line"/>
    </contour>
    <contour>
      <point x="306" y="459" type="line"/>
      <point x="1374" y="1225" type="line"/>
      <point x="1275" y="1359" type="line"/>
      <point x="207" y="593" type="line"/>
    </contour>
  </outline>
</glyph>
<glyph name="uniA02C" format="2">
  <advance width="1600"/>
  <unicode hex="A02C"/>
  <outline>
    <contour>
      <point x="1086" y="225" type="line"/>
      <point x="1283" y="225" type="line"/>
      <point x="1283" y="696" type="line"/>
      <point x="1086" y="696" type="line"/>
    </contour>
    <contour>
      <point x="895" y="920" type="line"/>
      <point x="689" y="920" type="line"/>
      <point x="689" y="0" type="line"/>
      <point x="895" y="0" type="line"/>
    </contour>
    <contour>
      <point x="186" y="1332" type="curve" smooth="yes"/>
      <point x="186" y="1065"/>
      <point x="400" y="842"/>
      <point x="792" y="842" type="curve" smooth="yes"/>
      <point x="1184" y="842"/>
      <point x="1398" y="1065"/>
      <point x="1398" y="1332" type="curve" smooth="yes"/>
      <point x="1398" y="1599"/>
      <point x="1184" y="1822"/>
      <point x="792" y="1822" type="curve" smooth="yes"/>
      <point x="400" y="1822"/>
      <point x="186" y="1599"/>
    </contour>
    <contour>
      <point x="1194" y="1332" type="curve" smooth="yes"/>
      <point x="1194" y="1194"/>
      <point x="1081" y="1035"/>
      <point x="792" y="1035" type="curve" smooth="yes"/>
      <point x="503" y="1035"/>
      <point x="390" y="1194"/>
      <point x="390" y="1332" type="curve" smooth="yes"/>
      <point x="390" y="1470"/>
      <point x="503" y="1629"/>
      <point x="792" y="1629" type="curve" smooth="yes"/>
      <point x="1081" y="1629"/>
      <point x="1194" y="1470"/>
    </contour>
  </outline>
</glyph>
<glyph name="uniA02E" format="2">
  <advance width="1600"/>
  <unicode hex="A02E"/>
  <anchor x="800" y="1900" name="top"/>
  <outline>
    <contour>
      <point x="897" y="-43" type="line"/>
      <point x="897" y="1793" type="line"/>
      <point x="690" y="1793" type="line"/>
      <point x="690" y="182" type="line"/>
      <point x="800" y="244" type="line"/>
      <point x="307" y="532" type="line"/>
      <point x="204" y="361" type="line"/>
    </contour>
    <contour>
      <point x="1151" y="126" type="line"/>
      <point x="1358" y="126" type="line"/>
      <point x="1358" y="1058" type="line"/>
      <point x="1151" y="1058" type="line"/>
    </contour>
  </outline>
</glyph>
<glyph name="uniA02F" format="2">
  <advance width="1600"/>
  <unicode hex="A02F"/>
  <outline>
    <contour>
      <point x="1299" y="4" type="curve"/>
      <point x="1299" y="197" type="line"/>
      <point x="699" y="197"/>
      <point x="466" y="573"/>
      <point x="466" y="900" type="curve" smooth="yes"/>
      <point x="466" y="1227"/>
      <point x="699" y="1603"/>
      <point x="1299" y="1603" type="curve"/>
      <point x="1299" y="1796" type="line"/>
      <point x="630" y="1796"/>
      <point x="267" y="1387"/>
      <point x="267" y="900" type="curve" smooth="yes"/>
      <point x="267" y="413"/>
      <point x="630" y="4"/>
    </contour>
    <contour>
      <point x="1299" y="377" type="curve"/>
      <point x="1299" y="570" type="line"/>
      <point x="984" y="570"/>
      <point x="862" y="746"/>
      <point x="862" y="900" type="curve" smooth="yes"/>
      <point x="862" y="1054"/>
      <point x="984" y="1230"/>
      <point x="1299" y="1230" type="curve"/>
      <point x="1299" y="1423" type="line"/>
      <point x="887" y="1423"/>
      <point x="663" y="1184"/>
      <point x="663" y="900" type="curve" smooth="yes"/>
      <point x="663" y="616"/>
      <point x="887" y="377"/>
    </contour>
  </outline>
</glyph>
<glyph name="uniA032" format="2">
  <advance width="1600"/>
  <unicode hex="A032"/>
  <outline>
    <contour>
      <point x="714" y="240" type="line"/>
      <point x="358" y="426" type="line"/>
      <point x="266" y="249" type="line"/>
      <point x="817" y="-38" type="line"/>
      <point x="817" y="1632" type="line"/>
      <point x="713" y="1560" type="line"/>
      <point x="1072" y="1374" type="line"/>
      <point x="1164" y="1550" type="line"/>
      <point x="610" y="1838" type="line"/>
      <point x="610" y="175" type="line"/>
    </contour>
    <contour>
      <point x="1163" y="345" type="curve"/>
      <point x="1370" y="345" type="line"/>
      <point x="1370" y="844"/>
      <point x="1146" y="1264"/>
      <point x="735" y="1264" type="curve"/>
      <point x="735" y="1064" type="line"/>
      <point x="1043" y="1064"/>
      <point x="1163" y="679"/>
    </contour>
    <contour>
      <point x="1163" y="1314" type="line"/>
      <point x="1163" y="980"/>
      <point x="1043" y="595"/>
      <point x="735" y="595" type="curve"/>
      <point x="735" y="395" type="line"/>
      <point x="1146" y="395"/>
      <point x="1370" y="815"/>
      <point x="1370" y="1314" type="curve"/>
    </contour>
  </outline>
</glyph>
<glyph name="uniA034" format="2">
  <advance width="1600"/>
  <unicode hex="A034"/>
  <anchor x="800" y="1900" name="top"/>
  <outline>
    <contour>
      <point x="845" y="-25" type="line"/>
      <point x="845" y="507" type="line"/>
      <point x="1350" y="278" type="line"/>
      <point x="1396" y="370" type="line"/>
      <point x="957" y="570" type="line"/>
      <point x="1366" y="759" type="line"/>
      <point x="1366" y="836" type="line"/>
      <point x="957" y="1023" type="line"/>
      <point x="1396" y="1218" type="line"/>
      <point x="1350" y="1312" type="line"/>
      <point x="845" y="1086" type="line"/>
      <point x="845" y="1641" type="line"/>
      <point x="1279" y="1400" type="line"/>
      <point x="1331" y="1489" type="line"/>
      <point x="739" y="1818" type="line"/>
      <point x="739" y="155" type="line"/>
      <point x="305" y="396" type="line"/>
      <point x="253" y="307" type="line"/>
    </contour>
    <contour>
      <point x="845" y="633" type="curve"/>
      <point x="845" y="961" type="line"/>
      <point x="1202" y="798" type="line"/>
      <point x="1085" y="744"/>
      <point x="961" y="686"/>
    </contour>
  </outline>
</glyph>
<glyph name="uniA035" format="2">
  <advance width="1600"/>
  <unicode hex="A035"/>
  <outline>
    <contour>
      <point x="948" y="1826" type="line"/>
      <point x="948" y="-1" type="line"/>
      <point x="1145" y="-1" type="line"/>
      <point x="1145" y="1519" type="line"/>
      <point x="1121" y="1504" type="line"/>
      <point x="1417" y="1331" type="line"/>
      <point x="1513" y="1496" type="line"/>
    </contour>
    <contour>
      <point x="962" y="1268" type="line"/>
      <point x="962" y="1489" type="line"/>
      <point x="384" y="1826" type="line"/>
      <point x="384" y="346" type="line"/>
      <point x="581" y="346" type="line"/>
      <point x="581" y="1519" type="line"/>
      <point x="553" y="1507" type="line"/>
    </contour>
    <contour>
      <point x="865" y="368" type="curve"/>
      <point x="681" y="368" type="line"/>
      <point x="681" y="268"/>
      <point x="626" y="153"/>
      <point x="483" y="153" type="curve" smooth="yes"/>
      <point x="340" y="153"/>
      <point x="285" y="268"/>
      <point x="285" y="368" type="curve"/>
      <point x="101" y="368" type="line"/>
      <point x="101" y="157"/>
      <point x="235" y="-20"/>
      <point x="483" y="-20" type="curve" smooth="yes"/>
      <point x="731" y="-20"/>
      <point x="865" y="157"/>
    </contour>
    <contour>
      <point x="820" y="992" type="line"/>
      <point x="137" y="992" type="line"/>
      <point x="137" y="816" type="line"/>
      <point x="820" y="816" type="line"/>
    </contour>
  </outline>
</glyph>
<glyph name="uniA037" format="2">
  <advance width="1600"/>
  <unicode hex="A037"/>
  <anchor x="800" y="1900" name="top"/>
  <outline>
    <contour>
      <point x="908" y="684" type="line"/>
      <point x="1069" y="684" type="line"/>
      <point x="1069" y="931" type="line"/>
      <point x="908" y="931" type="line"/>
    </contour>
    <contour>
      <point x="850" y="1148" type="line"/>
      <point x="682" y="1117" type="line"/>
      <point x="682" y="174" type="line"/>
      <point x="850" y="143" type="line"/>
    </contour>
    <contour>
      <point x="1329" y="0" type="line"/>
      <point x="1329" y="1598" type="line"/>
      <point x="1243" y="1558" type="line"/>
      <point x="1465" y="1404" type="line"/>
      <point x="1566" y="1548" type="line"/>
      <point x="1127" y="1854" type="line"/>
      <point x="1127" y="152" type="line"/>
      <point x="1205" y="183" type="line"/>
      <point x="941" y="183" type="line" smooth="yes"/>
      <point x="498" y="183"/>
      <point x="323" y="430"/>
      <point x="323" y="656" type="curve" smooth="yes"/>
      <point x="323" y="882"/>
      <point x="498" y="1129"/>
      <point x="941" y="1129" type="curve" smooth="yes"/>
      <point x="1191" y="1129" type="line"/>
      <point x="1135" y="1312" type="line"/>
      <point x="941" y="1312" type="line" smooth="yes"/>
      <point x="416" y="1312"/>
      <point x="129" y="1023"/>
      <point x="129" y="656" type="curve" smooth="yes"/>
      <point x="129" y="289"/>
      <point x="416" y="0"/>
      <point x="941" y="0" type="curve" smooth="yes"/>
    </contour>
    <contour>
      <point x="908" y="381" type="line"/>
      <point x="1069" y="381" type="line"/>
      <point x="1069" y="628" type="line"/>
      <point x="908" y="628" type="line"/>
    </contour>
    <contour>
      <point x="463" y="381" type="line"/>
      <point x="624" y="381" type="line"/>
      <point x="624" y="628" type="line"/>
      <point x="463" y="628" type="line"/>
    </contour>
    <contour>
      <point x="463" y="684" type="line"/>
      <point x="624" y="684" type="line"/>
      <point x="624" y="931" type="line"/>
      <point x="463" y="931" type="line"/>
    </contour>
  </outline>
</glyph>
<glyph name="uniA038" format="2">
  <advance width="1600"/>
  <unicode hex="A038"/>
  <outline>
    <contour>
      <point x="906" y="0" type="curve" smooth="yes"/>
      <point x="1141" y="0" type="line"/>
      <point x="1141" y="1618" type="line"/>
      <point x="1351" y="1452" type="line"/>
      <point x="1418" y="1533" type="line"/>
      <point x="1036" y="1838" type="line"/>
      <point x="1036" y="1211" type="line"/>
      <point x="906" y="1211" type="line" smooth="yes"/>
      <point x="534" y="1211"/>
      <point x="197" y="989"/>
      <point x="197" y="605" type="curve" smooth="yes"/>
      <point x="197" y="221"/>
      <point x="534" y="0"/>
    </contour>
    <contour>
      <point x="906" y="104" type="line" smooth="yes"/>
      <point x="669" y="104"/>
      <point x="465" y="202"/>
      <point x="366" y="370" type="curve"/>
      <point x="1036" y="370" type="line"/>
      <point x="1036" y="104" type="line"/>
    </contour>
    <contour>
      <point x="322" y="473" type="line"/>
      <point x="311" y="514"/>
      <point x="303" y="560"/>
      <point x="303" y="605" type="curve" smooth="yes"/>
      <point x="303" y="650"/>
      <point x="311" y="697"/>
      <point x="322" y="737" type="curve"/>
      <point x="1036" y="737" type="line"/>
      <point x="1036" y="473" type="line"/>
    </contour>
    <contour>
      <point x="366" y="841" type="line"/>
      <point x="465" y="1009"/>
      <point x="669" y="1107"/>
      <point x="906" y="1107" type="curve" smooth="yes"/>
      <point x="1036" y="1107" type="line"/>
      <point x="1036" y="841" type="line"/>
    </contour>
  </outline>
</glyph>
<glyph name="uniA03A" format="2">
  <advance width="1600"/>
  <unicode hex="A03A"/>
  <anchor x="800" y="1900" name="top"/>
  <outline>
    <contour>
      <point x="503" y="900" type="curve" smooth="yes"/>
      <point x="503" y="252"/>
      <point x="675" y="-20"/>
      <point x="954" y="-20" type="curve" smooth="yes"/>
      <point x="1233" y="-20"/>
      <point x="1405" y="252"/>
      <point x="1405" y="900" type="curve" smooth="yes"/>
      <point x="1405" y="1548"/>
      <point x="1233" y="1820"/>
      <point x="954" y="1820" type="curve" smooth="yes"/>
      <point x="675" y="1820"/>
      <point x="503" y="1548"/>
    </contour>
    <contour>
      <point x="954" y="179" type="curve" smooth="yes"/>
      <point x="828" y="179"/>
      <point x="707" y="339"/>
      <point x="707" y="900" type="curve" smooth="yes"/>
      <point x="707" y="1461"/>
      <point x="828" y="1621"/>
      <point x="954" y="1621" type="curve" smooth="yes"/>
      <point x="1081" y="1621"/>
      <point x="1201" y="1461"/>
      <point x="1201" y="900" type="curve" smooth="yes"/>
      <point x="1201" y="339"/>
      <point x="1081" y="179"/>
    </contour>
    <contour>
      <point x="1268" y="984" type="line"/>
      <point x="312" y="824" type="line"/>
      <point x="403" y="744" type="line"/>
      <point x="405" y="1497" type="line"/>
      <point x="202" y="1497" type="line"/>
      <point x="202" y="614" type="line"/>
      <point x="1268" y="793" type="line"/>
    </contour>
  </outline>
</glyph>
<glyph name="uniA03D" format="2">
  <advance width="1600"/>
  <unicode hex="A03D"/>
  <anchor x="800" y="1900" name="top"/>
  <outline>
    <contour>
      <point x="984" y="357" type="line"/>
      <point x="1166" y="357" type="line"/>
      <point x="1166" y="1436" type="line"/>
      <point x="984" y="1436" type="line"/>
    </contour>
    <contour>
      <point x="1260" y="357" type="line"/>
      <point x="1442" y="357" type="line"/>
      <point x="1442" y="1436" type="line"/>
      <point x="1260" y="1436" type="line"/>
    </contour>
    <contour>
      <point x="158" y="900" type="curve" smooth="yes"/>
      <point x="158" y="252"/>
      <point x="275" y="-20"/>
      <point x="532" y="-20" type="curve" smooth="yes"/>
      <point x="789" y="-20"/>
      <point x="905" y="252"/>
      <point x="905" y="900" type="curve" smooth="yes"/>
      <point x="905" y="1548"/>
      <point x="789" y="1820"/>
      <point x="532" y="1820" type="curve" smooth="yes"/>
      <point x="275" y="1820"/>
      <point x="158" y="1548"/>
    </contour>
    <contour>
      <point x="532" y="169" type="curve" smooth="yes"/>
      <point x="439" y="169"/>
      <point x="351" y="331"/>
      <point x="351" y="900" type="curve" smooth="yes"/>
      <point x="351" y="1469"/>
      <point x="439" y="1631"/>
      <point x="532" y="1631" type="curve" smooth="yes"/>
      <point x="625" y="1631"/>
      <point x="712" y="1469"/>
      <point x="712" y="900" type="curve" smooth="yes"/>
      <point x="712" y="331"/>
      <point x="625" y="169"/>
    </contour>
    <contour>
      <point x="288" y="991" type="line"/>
      <point x="288" y="801" type="line"/>
      <point x="777" y="801" type="line"/>
      <point x="777" y="991" type="line"/>
    </contour>
  </outline>
</glyph>
<glyph name="uniA03E" format="2">
  <advance width="1600"/>
  <unicode hex="A03E"/>
  <outline>
    <contour>
      <point x="250" y="1262" type="curve" smooth="yes"/>
      <point x="250" y="969"/>
      <point x="444" y="714"/>
      <point x="800" y="704" type="curve" smooth="yes"/>
      <point x="1156" y="714"/>
      <point x="1350" y="969"/>
      <point x="1350" y="1262" type="curve" smooth="yes"/>
      <point x="1350" y="1565"/>
      <point x="1156" y="1820"/>
      <point x="800" y="1820" type="curve" smooth="yes"/>
      <point x="444" y="1820"/>
      <point x="250" y="1565"/>
    </contour>
    <contour>
      <point x="1146" y="1262" type="curve" smooth="yes"/>
      <point x="1146" y="1102"/>
      <point x="1049" y="907"/>
      <point x="800" y="897" type="curve" smooth="yes"/>
      <point x="551" y="907"/>
      <point x="454" y="1102"/>
      <point x="454" y="1262" type="curve" smooth="yes"/>
      <point x="454" y="1432"/>
      <point x="551" y="1627"/>
      <point x="800" y="1627" type="curve" smooth="yes"/>
      <point x="1049" y="1627"/>
      <point x="1146" y="1432"/>
    </contour>
    <contour>
      <point x="696" y="761" type="line"/>
      <point x="696" y="551" type="line" smooth="yes"/>
      <point x="696" y="462"/>
      <point x="684" y="177"/>
      <point x="540" y="177" type="curve" smooth="yes"/>
      <point x="435" y="177"/>
      <point x="393" y="282"/>
      <point x="393" y="468" type="curve"/>
      <point x="186" y="468" type="line"/>
      <point x="186" y="156"/>
      <point x="288" y="-20"/>
      <point x="540" y="-20" type="curve" smooth="yes"/>
      <point x="676" y="-20"/>
      <point x="770" y="74"/>
      <point x="811" y="180" type="curve"/>
      <point x="789" y="180" type="line"/>
      <point x="830" y="74"/>
      <point x="925" y="-20"/>
      <point x="1061" y="-20" type="curve" smooth="yes"/>
      <point x="1313" y="-20"/>
      <point x="1414" y="156"/>
      <point x="1414" y="468" type="curve"/>
      <point x="1207" y="468" type="line"/>
      <point x="1207" y="282"/>
      <point x="1165" y="177"/>
      <point x="1061" y="177" type="curve" smooth="yes"/>
      <point x="916" y="177"/>
      <point x="904" y="462"/>
      <point x="904" y="551" type="curve" smooth="yes"/>
      <point x="904" y="761" type="line"/>
    </contour>
    <contour>
      <point x="713" y="1061" type="line"/>
      <point x="887" y="1061" type="line"/>
      <point x="887" y="1464" type="line"/>
      <point x="713" y="1464" type="line"/>
    </contour>
  </outline>
</glyph>
<glyph name="uniA03F" format="2">
  <advance width="1600"/>
  <unicode hex="A03F"/>
  <outline>
    <contour>
      <point x="1116" y="1793" type="line"/>
      <point x="1116" y="0" type="line"/>
      <point x="1322" y="0" type="line"/>
      <point x="1322" y="1793" type="line"/>
    </contour>
    <contour>
      <point x="484" y="0" type="line"/>
      <point x="484" y="1793" type="line"/>
      <point x="278" y="1793" type="line"/>
      <point x="278" y="0" type="line"/>
    </contour>
    <contour>
      <point x="410" y="1028" type="line"/>
      <point x="410" y="830" type="line"/>
      <point x="1174" y="830" type="line"/>
      <point x="1174" y="1028" type="line"/>
    </contour>
  </outline>
</glyph>
<glyph name="uniA042" format="2">
  <advance width="1600"/>
  <unicode hex="A042"/>
  <outline>
    <contour>
      <point x="652" y="179" type="curve" smooth="yes"/>
      <point x="471" y="179"/>
      <point x="427" y="397"/>
      <point x="427" y="714" type="curve" smooth="yes"/>
      <point x="427" y="1800" type="line"/>
      <point x="222" y="1800" type="line"/>
      <point x="222" y="714" type="line" smooth="yes"/>
      <point x="222" y="357"/>
      <point x="282" y="-20"/>
      <point x="652" y="-20" type="curve" smooth="yes"/>
      <point x="1022" y="-20"/>
      <point x="1082" y="357"/>
      <point x="1082" y="714" type="curve" smooth="yes"/>
      <point x="1082" y="1800" type="line"/>
      <point x="877" y="1800" type="line"/>
      <point x="877" y="714" type="line" smooth="yes"/>
      <point x="877" y="397"/>
      <point x="833" y="179"/>
    </contour>
    <contour>
      <point x="1255" y="1675" type="line"/>
      <point x="1255" y="231" type="line"/>
      <point x="1432" y="231" type="line"/>
      <point x="1432" y="1675" type="line"/>
    </contour>
    <contour>
      <point x="1281" y="886" type="line"/>
      <point x="1281" y="1050" type="line"/>
      <point x="1004" y="1050" type="line"/>
      <point x="1004" y="886" type="line"/>
    </contour>
  </outline>
</glyph>
<glyph name="uniA046" format="2">
  <advance width="1600"/>
  <unicode hex="A046"/>
  <outline>
    <contour>
      <point x="980" y="998" type="line"/>
      <point x="980" y="804" type="line"/>
      <point x="1020" y="804" type="line" smooth="yes"/>
      <point x="1182" y="804"/>
      <point x="1285" y="671"/>
      <point x="1285" y="524" type="curve" smooth="yes"/>
      <point x="1285" y="431"/>
      <point x="1226" y="332"/>
      <point x="1089" y="263" type="curve"/>
      <point x="1193" y="95" type="line"/>
      <point x="1384" y="192"/>
      <point x="1479" y="368"/>
      <point x="1479" y="536" type="curve" smooth="yes"/>
      <point x="1479" y="700"/>
      <point x="1389" y="855"/>
      <point x="1210" y="920" type="curve"/>
      <point x="1210" y="882" type="line"/>
      <point x="1389" y="947"/>
      <point x="1479" y="1102"/>
      <point x="1479" y="1266" type="curve" smooth="yes"/>
      <point x="1479" y="1434"/>
      <point x="1384" y="1610"/>
      <point x="1193" y="1707" type="curve"/>
      <point x="1089" y="1539" type="line"/>
      <point x="1226" y="1470"/>
      <point x="1285" y="1371"/>
      <point x="1285" y="1278" type="curve" smooth="yes"/>
      <point x="1285" y="1131"/>
      <point x="1182" y="998"/>
      <point x="1020" y="998" type="curve" smooth="yes"/>
    </contour>
    <contour>
      <point x="675" y="1220" type="line"/>
      <point x="152" y="1220" type="line"/>
      <point x="152" y="1038" type="line"/>
      <point x="675" y="1038" type="line"/>
    </contour>
    <contour>
      <point x="675" y="755" type="line"/>
      <point x="152" y="755" type="line"/>
      <point x="152" y="573" type="line"/>
      <point x="675" y="573" type="line"/>
    </contour>
    <contour>
      <point x="293" y="900" type="curve" smooth="yes"/>
      <point x="293" y="232"/>
      <point x="413" y="-20"/>
      <point x="650" y="-20" type="curve" smooth="yes"/>
      <point x="887" y="-20"/>
      <point x="1006" y="232"/>
      <point x="1006" y="900" type="curve" smooth="yes"/>
      <point x="1006" y="1568"/>
      <point x="887" y="1820"/>
      <point x="650" y="1820" type="curve" smooth="yes"/>
      <point x="413" y="1820"/>
      <point x="293" y="1568"/>
    </contour>
    <contour>
      <point x="650" y="1621" type="curve" smooth="yes"/>
      <point x="735" y="1621"/>
      <point x="815" y="1461"/>
      <point x="815" y="900" type="curve" smooth="yes"/>
      <point x="815" y="339"/>
      <point x="735" y="179"/>
      <point x="650" y="179" type="curve" smooth="yes"/>
      <point x="554" y="179"/>
      <point x="465" y="339"/>
      <point x="465" y="900" type="curve" smooth="yes"/>
      <point x="465" y="1461"/>
      <point x="554" y="1621"/>
    </contour>
  </outline>
</glyph>
<glyph name="uniA048" format="2">
  <advance width="1600"/>
  <unicode hex="A048"/>
  <anchor x="800" y="1900" name="top"/>
  <outline>
    <contour>
      <point x="697" y="1059" type="line"/>
      <point x="904" y="1059" type="line"/>
      <point x="904" y="1800" type="line"/>
      <point x="697" y="1800" type="line"/>
    </contour>
    <contour>
      <point x="271" y="0" type="line"/>
      <point x="1328" y="0" type="line"/>
      <point x="1328" y="196" type="line"/>
      <point x="271" y="196" type="line"/>
    </contour>
    <contour>
      <point x="271" y="450" type="line"/>
      <point x="1328" y="450" type="line"/>
      <point x="1328" y="646" type="line"/>
      <point x="271" y="646" type="line"/>
    </contour>
    <contour>
      <point x="760" y="1097" type="line"/>
      <point x="484" y="1097"/>
      <point x="377" y="1449"/>
      <point x="377" y="1754" type="curve"/>
      <point x="175" y="1754" type="line"/>
      <point x="175" y="1287"/>
      <point x="395" y="894"/>
      <point x="800" y="894" type="curve" smooth="yes"/>
      <point x="1205" y="894"/>
      <point x="1425" y="1287"/>
      <point x="1425" y="1754" type="curve"/>
      <point x="1223" y="1754" type="line"/>
      <point x="1223" y="1449"/>
      <point x="1115" y="1097"/>
      <point x="840" y="1097" type="curve" smooth="yes"/>
    </contour>
  </outline>
</glyph>
<glyph name="uniA04F" format="2">
  <advance width="1600"/>
  <unicode hex="A04F"/>
  <anchor x="800" y="1900" name="top"/>
  <outline>
    <contour>
      <point x="984" y="287" type="line"/>
      <point x="1166" y="287" type="line"/>
      <point x="1166" y="1506" type="line"/>
      <point x="984" y="1506" type="line"/>
    </contour>
    <contour>
      <point x="1260" y="287" type="line"/>
      <point x="1442" y="287" type="line"/>
      <point x="1442" y="1506" type="line"/>
      <point x="1260" y="1506" type="line"/>
    </contour>
    <contour>
      <point x="158" y="900" type="curve" smooth="yes"/>
      <point x="158" y="252"/>
      <point x="275" y="-20"/>
      <point x="532" y="-20" type="curve" smooth="yes"/>
      <point x="789" y="-20"/>
      <point x="905" y="252"/>
      <point x="905" y="900" type="curve" smooth="yes"/>
      <point x="905" y="1548"/>
      <point x="789" y="1820"/>
      <point x="532" y="1820" type="curve" smooth="yes"/>
      <point x="275" y="1820"/>
      <point x="158" y="1548"/>
    </contour>
    <contour>
      <point x="532" y="169" type="curve" smooth="yes"/>
      <point x="439" y="169"/>
      <point x="351" y="331"/>
      <point x="351" y="900" type="curve" smooth="yes"/>
      <point x="351" y="1469"/>
      <point x="439" y="1631"/>
      <point x="532" y="1631" type="curve" smooth="yes"/>
      <point x="625" y="1631"/>
      <point x="712" y="1469"/>
      <point x="712" y="900" type="curve" smooth="yes"/>
      <point x="712" y="331"/>
      <point x="625" y="169"/>
    </contour>
    <contour>
      <point x="459" y="1179" type="line"/>
      <point x="459" y="613" type="line"/>
      <point x="604" y="613" type="line"/>
      <point x="604" y="1179" type="line"/>
    </contour>
    <contour>
      <point x="837" y="991" type="line"/>
      <point x="837" y="801" type="line"/>
      <point x="1359" y="801" type="line"/>
      <point x="1359" y="991" type="line"/>
    </contour>
  </outline>
</glyph>
<glyph name="uniA051" format="2">
  <advance width="1600"/>
  <unicode hex="A051"/>
  <outline>
    <contour>
      <point x="278" y="0" type="line"/>
      <point x="382" y="0" type="line"/>
      <point x="792" y="783" type="line"/>
      <point x="1202" y="0" type="line"/>
      <point x="1305" y="0" type="line"/>
      <point x="1305" y="1793" type="line"/>
      <point x="1202" y="1793" type="line"/>
      <point x="792" y="1011" type="line"/>
      <point x="383" y="1794" type="line"/>
      <point x="278" y="1794" type="line"/>
    </contour>
    <contour>
      <point x="385" y="230" type="line"/>
      <point x="385" y="1563" type="line"/>
      <point x="732" y="897" type="line"/>
    </contour>
    <contour>
      <point x="1199" y="232" type="line"/>
      <point x="853" y="897" type="line"/>
      <point x="1199" y="1563" type="line"/>
    </contour>
    <contour>
      <point x="1003" y="765" type="line"/>
      <point x="1110" y="765" type="line"/>
      <point x="1110" y="1027" type="line"/>
      <point x="1003" y="1027" type="line"/>
    </contour>
    <contour>
      <point x="568" y="1945" type="line"/>
      <point x="601" y="1983"/>
      <point x="699" y="2045"/>
      <point x="793" y="2045" type="curve" smooth="yes"/>
      <point x="892" y="2045"/>
      <point x="993" y="1982"/>
      <point x="1016" y="1951" type="curve"/>
      <point x="1104" y="2012" type="line"/>
      <point x="1061" y="2071"/>
      <point x="924" y="2150"/>
      <point x="793" y="2150" type="curve" smooth="yes"/>
      <point x="664" y="2150"/>
      <point x="535" y="2071"/>
      <point x="485" y="2012" type="curve"/>
    </contour>
  </outline>
</glyph>
<glyph name="uniA052" format="2">
  <advance width="1600"/>
  <unicode hex="A052"/>
  <anchor x="800" y="1900" name="top"/>
  <outline>
    <contour>
      <point x="278" y="0" type="line"/>
      <point x="382" y="0" type="line"/>
      <point x="792" y="783" type="line"/>
      <point x="1202" y="0" type="line"/>
      <point x="1305" y="0" type="line"/>
      <point x="1305" y="1793" type="line"/>
      <point x="1202" y="1793" type="line"/>
      <point x="792" y="1011" type="line"/>
      <point x="383" y="1794" type="line"/>
      <point x="278" y="1794" type="line"/>
    </contour>
    <contour>
      <point x="385" y="230" type="line"/>
      <point x="385" y="1563" type="line"/>
      <point x="732" y="897" type="line"/>
    </contour>
    <contour>
      <point x="1199" y="232" type="line"/>
      <point x="853" y="897" type="line"/>
      <point x="1199" y="1563" type="line"/>
    </contour>
    <contour>
      <point x="1003" y="765" type="line"/>
      <point x="1110" y="765" type="line"/>
      <point x="1110" y="1027" type="line"/>
      <point x="1003" y="1027" type="line"/>
    </contour>
  </outline>
</glyph>
<glyph name="uniA053" format="2">
  <advance width="1600"/>
  <unicode hex="A053"/>
  <outline>
    <contour>
      <point x="925" y="1826" type="line"/>
      <point x="925" y="-1" type="line"/>
      <point x="1122" y="-1" type="line"/>
      <point x="1122" y="1519" type="line"/>
      <point x="1098" y="1504" type="line"/>
      <point x="1427" y="1311" type="line"/>
      <point x="1523" y="1476" type="line"/>
    </contour>
    <contour>
      <point x="939" y="1268" type="line"/>
      <point x="939" y="1489" type="line"/>
      <point x="361" y="1826" type="line"/>
      <point x="361" y="346" type="line"/>
      <point x="558" y="346" type="line"/>
      <point x="558" y="1519" type="line"/>
      <point x="530" y="1507" type="line"/>
    </contour>
    <contour>
      <point x="842" y="368" type="curve"/>
      <point x="658" y="368" type="line"/>
      <point x="658" y="268"/>
      <point x="603" y="153"/>
      <point x="460" y="153" type="curve" smooth="yes"/>
      <point x="317" y="153"/>
      <point x="262" y="268"/>
      <point x="262" y="368" type="curve"/>
      <point x="78" y="368" type="line"/>
      <point x="78" y="157"/>
      <point x="212" y="-20"/>
      <point x="460" y="-20" type="curve" smooth="yes"/>
      <point x="708" y="-20"/>
      <point x="842" y="157"/>
    </contour>
    <contour>
      <point x="797" y="992" type="line"/>
      <point x="114" y="992" type="line"/>
      <point x="114" y="816" type="line"/>
      <point x="797" y="816" type="line"/>
    </contour>
    <contour>
      <point x="1225" y="995" type="line"/>
      <point x="1225" y="442" type="line"/>
      <point x="1391" y="442" type="line"/>
      <point x="1391" y="995" type="line"/>
    </contour>
  </outline>
</glyph>
<glyph name="uniA056" format="2">
  <advance width="1600"/>
  <unicode hex="A056"/>
  <outline>
    <contour>
      <point x="370" y="1062" type="line"/>
      <point x="403" y="893" type="line"/>
      <point x="1181" y="893" type="line"/>
      <point x="1214" y="1062" type="line"/>
    </contour>
    <contour>
      <point x="1212" y="1244" type="line"/>
      <point x="1179" y="1413" type="line"/>
      <point x="403" y="1413" type="line"/>
      <point x="370" y="1244" type="line"/>
    </contour>
    <contour>
      <point x="241" y="1153" type="curve" smooth="yes"/>
      <point x="241" y="790"/>
      <point x="438" y="486"/>
      <point x="800" y="486" type="curve" smooth="yes"/>
      <point x="1122" y="486"/>
      <point x="1359" y="790"/>
      <point x="1359" y="1153" type="curve" smooth="yes"/>
      <point x="1359" y="1516"/>
      <point x="1162" y="1820"/>
      <point x="800" y="1820" type="curve" smooth="yes"/>
      <point x="438" y="1820"/>
      <point x="241" y="1516"/>
    </contour>
    <contour>
      <point x="1157" y="1153" type="curve" smooth="yes"/>
      <point x="1157" y="933"/>
      <point x="1057" y="679"/>
      <point x="800" y="679" type="curve" smooth="yes"/>
      <point x="543" y="679"/>
      <point x="443" y="933"/>
      <point x="443" y="1153" type="curve" smooth="yes"/>
      <point x="443" y="1373"/>
      <point x="543" y="1627"/>
      <point x="800" y="1627" type="curve" smooth="yes"/>
      <point x="1057" y="1627"/>
      <point x="1157" y="1373"/>
    </contour>
    <contour>
      <point x="899" y="511" type="curve"/>
      <point x="701" y="511" type="line"/>
      <point x="701" y="432"/>
      <point x="690" y="177"/>
      <point x="560" y="177" type="curve" smooth="yes"/>
      <point x="469" y="177"/>
      <point x="433" y="268"/>
      <point x="433" y="428" type="curve"/>
      <point x="226" y="428" type="line"/>
      <point x="226" y="142"/>
      <point x="322" y="-20"/>
      <point x="560" y="-20" type="curve" smooth="yes"/>
      <point x="686" y="-20"/>
      <point x="773" y="74"/>
      <point x="811" y="180" type="curve"/>
      <point x="789" y="180" type="line"/>
      <point x="827" y="74"/>
      <point x="915" y="-20"/>
      <point x="1041" y="-20" type="curve" smooth="yes"/>
      <point x="1279" y="-20"/>
      <point x="1374" y="142"/>
      <point x="1374" y="428" type="curve"/>
      <point x="1167" y="428" type="line"/>
      <point x="1167" y="268"/>
      <point x="1131" y="177"/>
      <point x="1041" y="177" type="curve" smooth="yes"/>
      <point x="910" y="177"/>
      <point x="899" y="432"/>
    </contour>
  </outline>
</glyph>
<glyph name="uniA059" format="2">
  <advance width="1600"/>
  <unicode hex="A059"/>
  <outline>
    <contour>
      <point x="254" y="900" type="curve" smooth="yes"/>
      <point x="254" y="297"/>
      <point x="481" y="-20"/>
      <point x="800" y="-20" type="curve" smooth="yes"/>
      <point x="1119" y="-20"/>
      <point x="1346" y="297"/>
      <point x="1346" y="900" type="curve" smooth="yes"/>
      <point x="1346" y="1503"/>
      <point x="1119" y="1820"/>
      <point x="800" y="1820" type="curve" smooth="yes"/>
      <point x="481" y="1820"/>
      <point x="254" y="1503"/>
    </contour>
    <contour>
      <point x="800" y="1637" type="curve" smooth="yes"/>
      <point x="976" y="1637"/>
      <point x="1156" y="1434"/>
      <point x="1156" y="900" type="curve" smooth="yes"/>
      <point x="1156" y="366"/>
      <point x="976" y="163"/>
      <point x="800" y="163" type="curve" smooth="yes"/>
      <point x="624" y="163"/>
      <point x="444" y="366"/>
      <point x="444" y="900" type="curve" smooth="yes"/>
      <point x="444" y="1434"/>
      <point x="624" y="1637"/>
    </contour>
    <contour>
      <point x="842" y="896" type="curve" smooth="yes"/>
      <point x="842" y="506"/>
      <point x="992" y="162"/>
      <point x="1275" y="9" type="curve"/>
      <point x="1369" y="174" type="line"/>
      <point x="1126" y="304"/>
      <point x="1026" y="616"/>
      <point x="1026" y="896" type="curve" smooth="yes"/>
      <point x="1026" y="1176"/>
      <point x="1126" y="1488"/>
      <point x="1369" y="1618" type="curve"/>
      <point x="1275" y="1783" type="line"/>
      <point x="992" y="1630"/>
      <point x="842" y="1286"/>
    </contour>
    <contour>
      <point x="758" y="896" type="curve" smooth="yes"/>
      <point x="758" y="1286"/>
      <point x="608" y="1630"/>
      <point x="325" y="1783" type="curve"/>
      <point x="231" y="1618" type="line"/>
      <point x="474" y="1488"/>
      <point x="574" y="1176"/>
      <point x="574" y="896" type="curve" smooth="yes"/>
      <point x="574" y="616"/>
      <point x="474" y="304"/>
      <point x="231" y="174" type="curve"/>
      <point x="325" y="9" type="line"/>
      <point x="609" y="162"/>
      <point x="758" y="506"/>
    </contour>
  </outline>
</glyph>
<glyph name="uniA05A" format="2">
  <advance width="1600"/>
  <unicode hex="A05A"/>
  <outline>
    <contour>
      <point x="890" y="801" type="curve"/>
      <point x="710" y="801" type="line"/>
      <point x="710" y="729"/>
      <point x="697" y="497"/>
      <point x="540" y="497" type="curve" smooth="yes"/>
      <point x="431" y="497"/>
      <point x="388" y="599"/>
      <point x="388" y="781" type="curve"/>
      <point x="186" y="781" type="line"/>
      <point x="186" y="473"/>
      <point x="288" y="300"/>
      <point x="540" y="300" type="curve" smooth="yes"/>
      <point x="676" y="300"/>
      <point x="770" y="394"/>
      <point x="811" y="500" type="curve"/>
      <point x="789" y="500" type="line"/>
      <point x="830" y="394"/>
      <point x="925" y="300"/>
      <point x="1061" y="300" type="curve" smooth="yes"/>
      <point x="1313" y="300"/>
      <point x="1414" y="473"/>
      <point x="1414" y="781" type="curve"/>
      <point x="1212" y="781" type="line"/>
      <point x="1212" y="599"/>
      <point x="1169" y="497"/>
      <point x="1061" y="497" type="curve" smooth="yes"/>
      <point x="903" y="497"/>
      <point x="890" y="729"/>
    </contour>
    <contour>
      <point x="713" y="0" type="line"/>
      <point x="887" y="0" type="line"/>
      <point x="887" y="284" type="line"/>
      <point x="713" y="284" type="line"/>
    </contour>
    <contour>
      <point x="270" y="1297" type="curve" smooth="yes"/>
      <point x="270" y="1013"/>
      <point x="457" y="774"/>
      <point x="800" y="774" type="curve" smooth="yes"/>
      <point x="1143" y="774"/>
      <point x="1330" y="1013"/>
      <point x="1330" y="1297" type="curve" smooth="yes"/>
      <point x="1330" y="1581"/>
      <point x="1143" y="1820"/>
      <point x="800" y="1820" type="curve" smooth="yes"/>
      <point x="457" y="1820"/>
      <point x="270" y="1581"/>
    </contour>
    <contour>
      <point x="1126" y="1297" type="curve" smooth="yes"/>
      <point x="1126" y="1143"/>
      <point x="1035" y="967"/>
      <point x="800" y="967" type="curve" smooth="yes"/>
      <point x="565" y="967"/>
      <point x="474" y="1143"/>
      <point x="474" y="1297" type="curve" smooth="yes"/>
      <point x="474" y="1451"/>
      <point x="565" y="1627"/>
      <point x="800" y="1627" type="curve" smooth="yes"/>
      <point x="1035" y="1627"/>
      <point x="1126" y="1451"/>
    </contour>
  </outline>
</glyph>
<glyph name="uniA05D" format="2">
  <advance width="1600"/>
  <unicode hex="A05D"/>
  <outline>
    <contour>
      <point x="241" y="805" type="line"/>
      <point x="1359" y="805" type="line"/>
      <point x="1359" y="987" type="line"/>
      <point x="241" y="987" type="line"/>
    </contour>
    <contour>
      <point x="914" y="896" type="curve" smooth="yes"/>
      <point x="914" y="488"/>
      <point x="1054" y="127"/>
      <point x="1318" y="-42" type="curve"/>
      <point x="1426" y="122" type="line"/>
      <point x="1208" y="265"/>
      <point x="1118" y="598"/>
      <point x="1118" y="896" type="curve" smooth="yes"/>
      <point x="1118" y="1194"/>
      <point x="1208" y="1527"/>
      <point x="1426" y="1670" type="curve"/>
      <point x="1318" y="1834" type="line"/>
      <point x="1054" y="1665"/>
      <point x="914" y="1304"/>
    </contour>
    <contour>
      <point x="686" y="896" type="curve" smooth="yes"/>
      <point x="686" y="1304"/>
      <point x="546" y="1665"/>
      <point x="282" y="1834" type="curve"/>
      <point x="174" y="1670" type="line"/>
      <point x="392" y="1527"/>
      <point x="482" y="1194"/>
      <point x="482" y="896" type="curve" smooth="yes"/>
      <point x="482" y="598"/>
      <point x="392" y="265"/>
      <point x="174" y="122" type="curve"/>
      <point x="282" y="-42" type="line"/>
      <point x="546" y="127"/>
      <point x="686" y="488"/>
    </contour>
  </outline>
</glyph>
<glyph name="uniA05E" format="2">
  <advance width="1600"/>
  <unicode hex="A05E"/>
  <outline>
    <contour>
      <point x="211" y="-34" type="line"/>
      <point x="323" y="84"/>
      <point x="421" y="213"/>
      <point x="490" y="367" type="curve"/>
      <point x="1103" y="367" type="line"/>
      <point x="1173" y="213"/>
      <point x="1272" y="84"/>
      <point x="1382" y="-34" type="curve"/>
      <point x="1461" y="38" type="line"/>
      <point x="1257" y="250"/>
      <point x="1104" y="498"/>
      <point x="1104" y="896" type="curve" smooth="yes"/>
      <point x="1104" y="1295"/>
      <point x="1252" y="1546"/>
      <point x="1460" y="1755" type="curve"/>
      <point x="1383" y="1827" type="line"/>
      <point x="1268" y="1710"/>
      <point x="1169" y="1580"/>
      <point x="1101" y="1425" type="curve"/>
      <point x="493" y="1425" type="line"/>
      <point x="423" y="1580"/>
      <point x="324" y="1710"/>
      <point x="209" y="1827" type="curve"/>
      <point x="134" y="1755" type="line"/>
      <point x="341" y="1546"/>
      <point x="489" y="1295"/>
      <point x="489" y="896" type="curve" smooth="yes"/>
      <point x="489" y="498"/>
      <point x="337" y="250"/>
      <point x="133" y="38" type="curve"/>
    </contour>
    <contour>
      <point x="531" y="470" type="line"/>
      <point x="569" y="580"/>
      <point x="591" y="702"/>
      <point x="596" y="844" type="curve"/>
      <point x="997" y="844" type="line"/>
      <point x="1004" y="703"/>
      <point x="1025" y="581"/>
      <point x="1062" y="470" type="curve"/>
    </contour>
    <contour>
      <point x="596" y="948" type="line"/>
      <point x="591" y="1089"/>
      <point x="570" y="1211"/>
      <point x="534" y="1322" type="curve"/>
      <point x="1059" y="1322" type="line"/>
      <point x="1024" y="1211"/>
      <point x="1002" y="1089"/>
      <point x="997" y="948" type="curve"/>
    </contour>
  </outline>
</glyph>
<glyph name="uniA060" format="2">
  <advance width="1600"/>
  <unicode hex="A060"/>
  <outline>
    <contour>
      <point x="1274" y="0" type="line"/>
      <point x="1378" y="0" type="line"/>
      <point x="1378" y="1793" type="line"/>
      <point x="1274" y="1793" type="line"/>
      <point x="1175" y="1543"/>
      <point x="1072" y="1285"/>
      <point x="973" y="1034" type="curve"/>
      <point x="669" y="1792" type="line"/>
      <point x="569" y="1754" type="line"/>
      <point x="669" y="1506" type="line"/>
      <point x="483" y="1036" type="line"/>
      <point x="295" y="1504" type="line"/>
      <point x="195" y="1468" type="line"/>
      <point x="271" y="1278"/>
      <point x="349" y="1081"/>
      <point x="425" y="892" type="curve"/>
      <point x="201" y="325" type="line"/>
      <point x="301" y="289" type="line"/>
      <point x="483" y="746" type="line"/>
      <point x="673" y="279" type="line"/>
      <point x="674" y="279" type="line"/>
      <point x="578" y="39" type="line"/>
      <point x="680" y="1" type="line"/>
      <point x="973" y="746" type="line"/>
    </contour>
    <contour>
      <point x="666" y="584" type="line"/>
      <point x="540" y="892" type="line"/>
      <point x="666" y="1207" type="line"/>
    </contour>
    <contour>
      <point x="772" y="525" type="line"/>
      <point x="772" y="1249" type="line"/>
      <point x="916" y="890" type="line"/>
    </contour>
    <contour>
      <point x="1272" y="294" type="line"/>
      <point x="1032" y="891" type="line"/>
      <point x="1272" y="1496" type="line"/>
    </contour>
  </outline>
</glyph>
<glyph name="uniA064" format="2">
  <advance width="1600"/>
  <unicode hex="A064"/>
  <outline>
    <contour>
      <point x="153" y="131" type="line"/>
      <point x="342" y="131" type="line"/>
      <point x="342" y="617" type="line"/>
      <point x="153" y="617" type="line"/>
    </contour>
    <contour>
      <point x="153" y="1170" type="line"/>
      <point x="342" y="1170" type="line"/>
      <point x="342" y="1656" type="line"/>
      <point x="153" y="1656" type="line"/>
    </contour>
    <contour>
      <point x="1258" y="131" type="line"/>
      <point x="1447" y="131" type="line"/>
      <point x="1447" y="617" type="line"/>
      <point x="1258" y="617" type="line"/>
    </contour>
    <contour>
      <point x="1258" y="1170" type="line"/>
      <point x="1447" y="1170" type="line"/>
      <point x="1447" y="1656" type="line"/>
      <point x="1258" y="1656" type="line"/>
    </contour>
    <contour>
      <point x="422" y="900" type="curve" smooth="yes"/>
      <point x="422" y="252"/>
      <point x="558" y="-20"/>
      <point x="801" y="-20" type="curve" smooth="yes"/>
      <point x="1044" y="-20"/>
      <point x="1179" y="252"/>
      <point x="1179" y="900" type="curve" smooth="yes"/>
      <point x="1179" y="1548"/>
      <point x="1044" y="1820"/>
      <point x="801" y="1820" type="curve" smooth="yes"/>
      <point x="558" y="1820"/>
      <point x="422" y="1548"/>
    </contour>
    <contour>
      <point x="801" y="1621" type="curve" smooth="yes"/>
      <point x="892" y="1621"/>
      <point x="977" y="1461"/>
      <point x="977" y="900" type="curve" smooth="yes"/>
      <point x="977" y="339"/>
      <point x="892" y="179"/>
      <point x="801" y="179" type="curve" smooth="yes"/>
      <point x="710" y="179"/>
      <point x="625" y="339"/>
      <point x="625" y="900" type="curve" smooth="yes"/>
      <point x="625" y="1461"/>
      <point x="710" y="1621"/>
    </contour>
  </outline>
</glyph>
<glyph name="uniA067" format="2">
  <advance width="1600"/>
  <unicode hex="A067"/>
  <outline>
    <contour>
      <point x="278" y="0" type="line"/>
      <point x="1305" y="0" type="line"/>
      <point x="1305" y="104" type="line"/>
      <point x="845" y="104" type="line"/>
      <point x="845" y="398" type="line"/>
      <point x="1305" y="398" type="line"/>
      <point x="1305" y="502" type="line"/>
      <point x="845" y="502" type="line"/>
      <point x="845" y="1037" type="line"/>
      <point x="1271" y="698" type="line"/>
      <point x="1338" y="779" type="line"/>
      <point x="877" y="1147" type="line"/>
      <point x="1338" y="1515" type="line"/>
      <point x="1271" y="1596" type="line"/>
      <point x="845" y="1257" type="line"/>
      <point x="845" y="1793" type="line"/>
      <point x="739" y="1793" type="line"/>
      <point x="739" y="1257" type="line"/>
      <point x="313" y="1596" type="line"/>
      <point x="246" y="1515" type="line"/>
      <point x="706" y="1147" type="line"/>
      <point x="246" y="779" type="line"/>
      <point x="313" y="698" type="line"/>
      <point x="739" y="1037" type="line"/>
      <point x="739" y="502" type="line"/>
      <point x="278" y="502" type="line"/>
      <point x="278" y="398" type="line"/>
      <point x="739" y="398" type="line"/>
      <point x="739" y="104" type="line"/>
      <point x="278" y="104" type="line"/>
    </contour>
  </outline>
</glyph>
<glyph name="uniA068" format="2">
  <advance width="1600"/>
  <unicode hex="A068"/>
  <outline>
    <contour>
      <point x="170" y="555" type="curve"/>
      <point x="378" y="555" type="line"/>
      <point x="378" y="779"/>
      <point x="568" y="974"/>
      <point x="801" y="974" type="curve" smooth="yes"/>
      <point x="1034" y="974"/>
      <point x="1225" y="779"/>
      <point x="1225" y="555" type="curve"/>
      <point x="1432" y="555" type="line"/>
      <point x="1432" y="854"/>
      <point x="1203" y="1115"/>
      <point x="905" y="1162" type="curve"/>
      <point x="905" y="1251" type="line" smooth="yes"/>
      <point x="905" y="1340"/>
      <point x="917" y="1625"/>
      <point x="1062" y="1625" type="curve" smooth="yes"/>
      <point x="1166" y="1625"/>
      <point x="1208" y="1520"/>
      <point x="1208" y="1334" type="curve"/>
      <point x="1415" y="1334" type="line"/>
      <point x="1415" y="1646"/>
      <point x="1314" y="1822"/>
      <point x="1062" y="1822" type="curve" smooth="yes"/>
      <point x="937" y="1822"/>
      <point x="847" y="1743"/>
      <point x="801" y="1648" type="curve"/>
      <point x="755" y="1743"/>
      <point x="666" y="1822"/>
      <point x="541" y="1822" type="curve" smooth="yes"/>
      <point x="289" y="1822"/>
      <point x="187" y="1646"/>
      <point x="187" y="1334" type="curve"/>
      <point x="394" y="1334" type="line"/>
      <point x="394" y="1520"/>
      <point x="436" y="1625"/>
      <point x="541" y="1625" type="curve" smooth="yes"/>
      <point x="685" y="1625"/>
      <point x="697" y="1340"/>
      <point x="697" y="1251" type="curve" smooth="yes"/>
      <point x="697" y="1162" type="line"/>
      <point x="399" y="1115"/>
      <point x="170" y="854"/>
    </contour>
    <contour>
      <point x="801" y="-32" type="curve" smooth="yes"/>
      <point x="1089" y="-32"/>
      <point x="1323" y="188"/>
      <point x="1323" y="461" type="curve"/>
      <point x="1116" y="461" type="line"/>
      <point x="1116" y="297"/>
      <point x="974" y="165"/>
      <point x="801" y="165" type="curve" smooth="yes"/>
      <point x="628" y="165"/>
      <point x="486" y="297"/>
      <point x="486" y="461" type="curve"/>
      <point x="279" y="461" type="line"/>
      <point x="279" y="188"/>
      <point x="514" y="-32"/>
    </contour>
    <contour>
      <point x="708" y="398" type="line"/>
      <point x="895" y="398" type="line"/>
      <point x="895" y="779" type="line"/>
      <point x="708" y="779" type="line"/>
    </contour>
  </outline>
</glyph>
<glyph name="uniA06A" format="2">
  <advance width="1600"/>
  <unicode hex="A06A"/>
  <outline>
    <contour>
      <point x="1305" y="578" type="line"/>
      <point x="1305" y="1238" type="line"/>
      <point x="1199" y="1238" type="line"/>
      <point x="1199" y="756" type="line"/>
      <point x="278" y="1268" type="line"/>
      <point x="278" y="593" type="line"/>
      <point x="385" y="593" type="line"/>
      <point x="385" y="1091" type="line"/>
    </contour>
    <contour>
      <point x="443" y="0" type="line"/>
      <point x="1148" y="0" type="line"/>
      <point x="1148" y="104" type="line"/>
      <point x="443" y="104" type="line"/>
    </contour>
    <contour>
      <point x="443" y="382" type="line"/>
      <point x="1148" y="382" type="line"/>
      <point x="1148" y="485" type="line"/>
      <point x="443" y="485" type="line"/>
    </contour>
    <contour>
      <point x="1148" y="1330" type="line"/>
      <point x="1148" y="1792" type="line"/>
      <point x="1041" y="1792" type="line"/>
      <point x="1041" y="1508" type="line"/>
      <point x="443" y="1841" type="line"/>
      <point x="443" y="1369" type="line"/>
      <point x="550" y="1369" type="line"/>
      <point x="550" y="1663" type="line"/>
    </contour>
  </outline>
</glyph>
<glyph name="uniA06E" format="2">
  <advance width="1600"/>
  <unicode hex="A06E"/>
  <anchor x="800" y="1900" name="top"/>
  <outline>
    <contour>
      <point x="788" y="967" type="line"/>
      <point x="788" y="1181" type="line"/>
      <point x="407" y="1414" type="line"/>
      <point x="407" y="415" type="line"/>
      <point x="473" y="436" type="line"/>
      <point x="285" y="574" type="line"/>
      <point x="179" y="427" type="line"/>
      <point x="595" y="125" type="line"/>
      <point x="595" y="1163" type="line"/>
      <point x="521" y="1134" type="line"/>
    </contour>
    <contour>
      <point x="1155" y="298" type="line"/>
      <point x="1335" y="298" type="line"/>
      <point x="1335" y="1003" type="line"/>
      <point x="1155" y="1003" type="line"/>
    </contour>
    <contour>
      <point x="768" y="1724" type="line"/>
      <point x="768" y="0" type="line"/>
      <point x="969" y="0" type="line"/>
      <point x="969" y="1452" type="line"/>
      <point x="888" y="1419" type="line"/>
      <point x="1345" y="1103" type="line"/>
      <point x="1345" y="1800" type="line"/>
      <point x="1144" y="1800" type="line"/>
      <point x="1144" y="1391" type="line"/>
      <point x="1215" y="1414" type="line"/>
    </contour>
  </outline>
</glyph>
<glyph name="uniA06F" format="2">
  <advance width="1600"/>
  <unicode hex="A06F"/>
  <outline>
    <contour>
      <point x="1165" y="603" type="line"/>
      <point x="1335" y="603" type="line"/>
      <point x="1335" y="1168" type="line"/>
      <point x="1165" y="1168" type="line"/>
    </contour>
    <contour>
      <point x="790" y="1829" type="line"/>
      <point x="790" y="456" type="line"/>
      <point x="840" y="489" type="line"/>
      <point x="229" y="740" type="line"/>
      <point x="229" y="0" type="line"/>
      <point x="433" y="0" type="line"/>
      <point x="433" y="502" type="line"/>
      <point x="383" y="464" type="line"/>
      <point x="994" y="213" type="line"/>
      <point x="994" y="1607" type="line"/>
      <point x="936" y="1558" type="line"/>
      <point x="1303" y="1412" type="line"/>
      <point x="1375" y="1595" type="line"/>
    </contour>
    <contour>
      <point x="390" y="1336" type="line"/>
      <point x="872" y="1131" type="line"/>
      <point x="872" y="1345" type="line"/>
      <point x="229" y="1618" type="line"/>
      <point x="229" y="968" type="line"/>
      <point x="433" y="968" type="line"/>
      <point x="433" y="1374" type="line"/>
    </contour>
  </outline>
</glyph>
<glyph name="uniA071" format="2">
  <advance width="1600"/>
  <unicode hex="A071"/>
  <anchor x="800" y="1900" name="top"/>
  <outline>
    <contour>
      <point x="996" y="669" type="line"/>
      <point x="996" y="1800" type="line"/>
      <point x="811" y="1800" type="line"/>
      <point x="811" y="879" type="line"/>
      <point x="911" y="972" type="line"/>
      <point x="259" y="1514" type="line"/>
      <point x="259" y="573" type="line"/>
      <point x="444" y="573" type="line"/>
      <point x="444" y="1237" type="line"/>
      <point x="342" y="1213" type="line"/>
    </contour>
    <contour>
      <point x="844" y="-1" type="line"/>
      <point x="1011" y="-1" type="line"/>
      <point x="1011" y="376" type="line"/>
      <point x="844" y="376" type="line"/>
    </contour>
    <contour>
      <point x="1422" y="55" type="line"/>
      <point x="1422" y="436"/>
      <point x="1247" y="756"/>
      <point x="926" y="756" type="curve" smooth="yes"/>
      <point x="605" y="756"/>
      <point x="430" y="436"/>
      <point x="430" y="55" type="curve"/>
      <point x="629" y="55" type="line"/>
      <point x="629" y="293"/>
      <point x="712" y="567"/>
      <point x="926" y="567" type="curve" smooth="yes"/>
      <point x="1140" y="567"/>
      <point x="1223" y="293"/>
      <point x="1223" y="55" type="curve"/>
    </contour>
  </outline>
</glyph>
<glyph name="uniA074" format="2">
  <advance width="1600"/>
  <unicode hex="A074"/>
  <anchor x="800" y="1900" name="top"/>
  <outline>
    <contour>
      <point x="385" y="0" type="line"/>
      <point x="385" y="700" type="line"/>
      <point x="181" y="700" type="line"/>
      <point x="181" y="0" type="line"/>
    </contour>
    <contour>
      <point x="1198" y="1800" type="line"/>
      <point x="1198" y="1094" type="line"/>
      <point x="1402" y="1094" type="line"/>
      <point x="1402" y="1800" type="line"/>
    </contour>
    <contour>
      <point x="1212" y="1339" type="line"/>
      <point x="1212" y="1562" type="line"/>
      <point x="691" y="1839" type="line"/>
      <point x="691" y="235" type="line"/>
      <point x="753" y="259" type="line"/>
      <point x="374" y="461" type="line"/>
      <point x="374" y="238" type="line"/>
      <point x="895" y="-39" type="line"/>
      <point x="895" y="1565" type="line"/>
      <point x="826" y="1544" type="line"/>
    </contour>
  </outline>
</glyph>
<glyph name="uniA078" format="2">
  <advance width="1600"/>
  <unicode hex="A078"/>
  <anchor x="800" y="1900" name="top"/>
  <outline>
    <contour>
      <point x="165" y="1220" type="curve" smooth="yes"/>
      <point x="165" y="905"/>
      <point x="370" y="640"/>
      <point x="746" y="640" type="curve" smooth="yes"/>
      <point x="1122" y="640"/>
      <point x="1327" y="905"/>
      <point x="1327" y="1220" type="curve" smooth="yes"/>
      <point x="1327" y="1546"/>
      <point x="1122" y="1820"/>
      <point x="746" y="1820" type="curve" smooth="yes"/>
      <point x="370" y="1820"/>
      <point x="165" y="1546"/>
    </contour>
    <contour>
      <point x="1146" y="1220" type="curve" smooth="yes"/>
      <point x="1146" y="1028"/>
      <point x="1034" y="809"/>
      <point x="746" y="809" type="curve" smooth="yes"/>
      <point x="458" y="809"/>
      <point x="345" y="1028"/>
      <point x="345" y="1220" type="curve" smooth="yes"/>
      <point x="345" y="1421"/>
      <point x="458" y="1651"/>
      <point x="746" y="1651" type="curve" smooth="yes"/>
      <point x="1034" y="1651"/>
      <point x="1146" y="1421"/>
    </contour>
    <contour>
      <point x="958" y="261" type="line"/>
      <point x="1134" y="261" type="line"/>
      <point x="1134" y="599" type="line"/>
      <point x="958" y="599" type="line"/>
    </contour>
    <contour>
      <point x="1152" y="1303" type="line"/>
      <point x="340" y="1303" type="line"/>
      <point x="340" y="1137" type="line"/>
      <point x="1152" y="1137" type="line"/>
    </contour>
    <contour>
      <point x="832" y="358" type="curve" smooth="yes"/>
      <point x="832" y="1736" type="line"/>
      <point x="660" y="1736" type="line"/>
      <point x="660" y="358" type="line" smooth="yes"/>
      <point x="660" y="126"/>
      <point x="809" y="-27"/>
      <point x="1046" y="-27" type="curve" smooth="yes"/>
      <point x="1271" y="-27"/>
      <point x="1430" y="126"/>
      <point x="1430" y="337" type="curve"/>
      <point x="1234" y="337" type="line"/>
      <point x="1234" y="238"/>
      <point x="1165" y="157"/>
      <point x="1046" y="157" type="curve" smooth="yes"/>
      <point x="914" y="157"/>
      <point x="832" y="235"/>
    </contour>
  </outline>
</glyph>
<glyph name="uniA079" format="2">
  <advance width="1600"/>
  <unicode hex="A079"/>
  <outline>
    <contour>
      <point x="1234" y="939" type="line"/>
      <point x="551" y="939" type="line"/>
      <point x="551" y="763" type="line"/>
      <point x="1234" y="763" type="line"/>
    </contour>
    <contour>
      <point x="551" y="435" type="line"/>
      <point x="1234" y="435" type="line"/>
      <point x="1234" y="611" type="line"/>
      <point x="551" y="611" type="line"/>
    </contour>
    <contour>
      <point x="789" y="1826" type="line"/>
      <point x="789" y="-1" type="line"/>
      <point x="996" y="-1" type="line"/>
      <point x="996" y="1519" type="line"/>
      <point x="957" y="1497" type="line"/>
      <point x="1333" y="1277" type="line"/>
      <point x="1434" y="1449" type="line"/>
    </contour>
    <contour>
      <point x="803" y="1258" type="line"/>
      <point x="803" y="1489" type="line"/>
      <point x="225" y="1826" type="line"/>
      <point x="225" y="-1" type="line"/>
      <point x="432" y="-1" type="line"/>
      <point x="432" y="1519" type="line"/>
      <point x="394" y="1497" type="line"/>
    </contour>
  </outline>
</glyph>
<glyph name="uniA07C" format="2">
  <advance width="1600"/>
  <unicode hex="A07C"/>
  <outline>
    <contour>
      <point x="1325" y="1362" type="line"/>
      <point x="258" y="1362" type="line"/>
      <point x="258" y="1163" type="line"/>
      <point x="1325" y="1163" type="line"/>
    </contour>
    <contour>
      <point x="180" y="432" type="line"/>
      <point x="1404" y="432" type="line"/>
      <point x="1404" y="631" type="line"/>
      <point x="180" y="631" type="line"/>
    </contour>
    <contour>
      <point x="689" y="1793" type="line"/>
      <point x="689" y="0" type="line"/>
      <point x="896" y="0" type="line"/>
      <point x="896" y="1793" type="line"/>
    </contour>
  </outline>
</glyph>
<glyph name="uniA07D" format="2">
  <advance width="1600"/>
  <unicode hex="A07D"/>
  <outline>
    <contour>
      <point x="1040" y="372" type="line"/>
      <point x="1188" y="372" type="line"/>
      <point x="1188" y="717" type="line"/>
      <point x="1040" y="717" type="line"/>
    </contour>
    <contour>
      <point x="1040" y="1089" type="line"/>
      <point x="1188" y="1089" type="line"/>
      <point x="1188" y="1434" type="line"/>
      <point x="1040" y="1434" type="line"/>
    </contour>
    <contour>
      <point x="387" y="-20" type="curve" smooth="yes"/>
      <point x="480" y="-20"/>
      <point x="542" y="31"/>
      <point x="574" y="139" type="curve"/>
      <point x="528" y="139" type="line"/>
      <point x="562" y="31"/>
      <point x="619" y="-20"/>
      <point x="714" y="-20" type="curve" smooth="yes"/>
      <point x="889" y="-20"/>
      <point x="971" y="153"/>
      <point x="971" y="635" type="curve" smooth="yes"/>
      <point x="971" y="1212"/>
      <point x="853" y="1822"/>
      <point x="551" y="1822" type="curve" smooth="yes"/>
      <point x="249" y="1822"/>
      <point x="131" y="1208"/>
      <point x="131" y="635" type="curve" smooth="yes"/>
      <point x="131" y="152"/>
      <point x="215" y="-20"/>
    </contour>
    <contour>
      <point x="407" y="174" type="curve" smooth="yes"/>
      <point x="383" y="174"/>
      <point x="338" y="224"/>
      <point x="338" y="635" type="curve" smooth="yes"/>
      <point x="338" y="1071"/>
      <point x="426" y="1627"/>
      <point x="551" y="1627" type="curve" smooth="yes"/>
      <point x="676" y="1627"/>
      <point x="764" y="1075"/>
      <point x="764" y="635" type="curve" smooth="yes"/>
      <point x="764" y="225"/>
      <point x="728" y="174"/>
      <point x="694" y="174" type="curve" smooth="yes"/>
      <point x="663" y="174"/>
      <point x="635" y="238"/>
      <point x="635" y="466" type="curve"/>
      <point x="467" y="466" type="line"/>
      <point x="467" y="236"/>
      <point x="439" y="171"/>
    </contour>
    <contour>
      <point x="1279" y="1449" type="line"/>
      <point x="1279" y="343" type="line"/>
      <point x="1460" y="343" type="line"/>
      <point x="1460" y="1449" type="line"/>
    </contour>
    <contour>
      <point x="1325" y="811" type="line"/>
      <point x="1325" y="981" type="line"/>
      <point x="900" y="981" type="line"/>
      <point x="909" y="811" type="line"/>
    </contour>
  </outline>
</glyph>
<glyph name="uniA07E" format="2">
  <advance width="1600"/>
  <unicode hex="A07E"/>
  <outline>
    <contour>
      <point x="406" y="-21" type="line"/>
      <point x="472" y="118"/>
      <point x="544" y="261"/>
      <point x="611" y="399" type="curve"/>
      <point x="973" y="399" type="line"/>
      <point x="1178" y="-21" type="line"/>
      <point x="1275" y="24" type="line"/>
      <point x="1214" y="148"/>
      <point x="1152" y="274"/>
      <point x="1092" y="399" type="curve"/>
      <point x="1374" y="399" type="line"/>
      <point x="1374" y="503" type="line"/>
      <point x="1042" y="503" type="line"/>
      <point x="851" y="896" type="line"/>
      <point x="914" y="1027"/>
      <point x="979" y="1156"/>
      <point x="1042" y="1288" type="curve"/>
      <point x="1374" y="1288" type="line"/>
      <point x="1374" y="1392" type="line"/>
      <point x="1092" y="1392" type="line"/>
      <point x="1277" y="1769" type="line"/>
      <point x="1179" y="1814" type="line"/>
      <point x="1112" y="1674"/>
      <point x="1040" y="1531"/>
      <point x="973" y="1392" type="curve"/>
      <point x="611" y="1392" type="line"/>
      <point x="406" y="1814" type="line"/>
      <point x="309" y="1769" type="line"/>
      <point x="369" y="1645"/>
      <point x="433" y="1517"/>
      <point x="493" y="1392" type="curve"/>
      <point x="210" y="1392" type="line"/>
      <point x="210" y="1288" type="line"/>
      <point x="543" y="1288" type="line"/>
      <point x="608" y="1156"/>
      <point x="669" y="1027"/>
      <point x="733" y="896" type="curve"/>
      <point x="669" y="764"/>
      <point x="608" y="635"/>
      <point x="543" y="503" type="curve"/>
      <point x="210" y="503" type="line"/>
      <point x="210" y="399" type="line"/>
      <point x="493" y="399" type="line"/>
      <point x="309" y="24" type="line"/>
    </contour>
    <contour>
      <point x="660" y="503" type="line"/>
      <point x="792" y="774" type="line"/>
      <point x="838" y="680"/>
      <point x="879" y="597"/>
      <point x="924" y="503" type="curve"/>
    </contour>
    <contour>
      <point x="792" y="1017" type="line"/>
      <point x="660" y="1288" type="line"/>
      <point x="924" y="1288" type="line"/>
    </contour>
    <contour>
      <point x="568" y="1945" type="line"/>
      <point x="601" y="1983"/>
      <point x="699" y="2045"/>
      <point x="793" y="2045" type="curve" smooth="yes"/>
      <point x="892" y="2045"/>
      <point x="993" y="1982"/>
      <point x="1016" y="1951" type="curve"/>
      <point x="1104" y="2012" type="line"/>
      <point x="1061" y="2071"/>
      <point x="924" y="2150"/>
      <point x="793" y="2150" type="curve" smooth="yes"/>
      <point x="664" y="2150"/>
      <point x="535" y="2071"/>
      <point x="485" y="2012" type="curve"/>
    </contour>
  </outline>
</glyph>
<glyph name="uniA080" format="2">
  <advance width="1600"/>
  <unicode hex="A080"/>
  <outline>
    <contour>
      <point x="990" y="233" type="line"/>
      <point x="1091" y="270" type="line"/>
      <point x="851" y="906" type="line"/>
      <point x="1075" y="1494" type="line"/>
      <point x="973" y="1531" type="line"/>
      <point x="793" y="1056" type="line"/>
      <point x="613" y="1531" type="line"/>
      <point x="514" y="1494" type="line"/>
      <point x="735" y="906" type="line"/>
      <point x="493" y="272" type="line"/>
      <point x="594" y="236" type="line"/>
      <point x="792" y="756" type="line"/>
    </contour>
    <contour>
      <point x="278" y="0" type="line"/>
      <point x="385" y="0" type="line"/>
      <point x="385" y="1793" type="line"/>
      <point x="278" y="1793" type="line"/>
    </contour>
    <contour>
      <point x="1199" y="0" type="line"/>
      <point x="1305" y="0" type="line"/>
      <point x="1305" y="1793" type="line"/>
      <point x="1199" y="1793" type="line"/>
    </contour>
  </outline>
</glyph>
<glyph name="uniA084" format="2">
  <advance width="1600"/>
  <unicode hex="A084"/>
  <outline>
    <contour>
      <point x="547" y="1041" type="curve" smooth="yes"/>
      <point x="692" y="1041"/>
      <point x="784" y="1181"/>
      <point x="807" y="1365" type="curve"/>
      <point x="795" y="1365" type="line"/>
      <point x="818" y="1181"/>
      <point x="910" y="1041"/>
      <point x="1055" y="1041" type="curve" smooth="yes"/>
      <point x="1383" y="1041"/>
      <point x="1411" y="1660"/>
      <point x="1411" y="1800" type="curve"/>
      <point x="1204" y="1800" type="line"/>
      <point x="1204" y="1696"/>
      <point x="1192" y="1236"/>
      <point x="1054" y="1236" type="curve" smooth="yes"/>
      <point x="916" y="1236"/>
      <point x="904" y="1696"/>
      <point x="904" y="1800" type="curve"/>
      <point x="696" y="1800" type="line"/>
      <point x="696" y="1696"/>
      <point x="685" y="1236"/>
      <point x="547" y="1236" type="curve" smooth="yes"/>
      <point x="409" y="1236"/>
      <point x="397" y="1696"/>
      <point x="397" y="1800" type="curve"/>
      <point x="189" y="1800" type="line"/>
      <point x="189" y="1660"/>
      <point x="219" y="1041"/>
    </contour>
    <contour>
      <point x="707" y="410" type="line"/>
      <point x="894" y="410" type="line"/>
      <point x="894" y="890" type="line"/>
      <point x="707" y="890" type="line"/>
    </contour>
    <contour>
      <point x="1372" y="565" type="curve"/>
      <point x="1171" y="565" type="line"/>
      <point x="1171" y="374"/>
      <point x="1063" y="176"/>
      <point x="800" y="176" type="curve" smooth="yes"/>
      <point x="537" y="176"/>
      <point x="429" y="374"/>
      <point x="429" y="565" type="curve"/>
      <point x="228" y="565" type="line"/>
      <point x="228" y="247"/>
      <point x="434" y="-20"/>
      <point x="800" y="-20" type="curve" smooth="yes"/>
      <point x="1166" y="-20"/>
      <point x="1372" y="247"/>
    </contour>
  </outline>
</glyph>
<glyph name="uniA085" format="2">
  <advance width="1600"/>
  <unicode hex="A085"/>
  <outline>
    <contour>
      <point x="770" y="1451" type="curve" smooth="yes"/>
      <point x="830" y="1451" type="line" smooth="yes"/>
      <point x="957" y="1451"/>
      <point x="1080" y="1398"/>
      <point x="1156" y="1242" type="curve"/>
      <point x="1356" y="1242" type="line"/>
      <point x="1356" y="1800" type="line"/>
      <point x="1174" y="1800" type="line"/>
      <point x="1174" y="1440" type="line"/>
      <point x="1249" y="1471" type="line"/>
      <point x="1135" y="1594"/>
      <point x="979" y="1650"/>
      <point x="800" y="1650" type="curve" smooth="yes"/>
      <point x="426" y="1650"/>
      <point x="151" y="1403"/>
      <point x="151" y="815" type="curve" smooth="yes"/>
      <point x="151" y="227"/>
      <point x="426" y="-20"/>
      <point x="800" y="-20" type="curve" smooth="yes"/>
      <point x="1072" y="-20"/>
      <point x="1292" y="110"/>
      <point x="1392" y="407" type="curve"/>
      <point x="1197" y="484" type="line"/>
      <point x="1128" y="254"/>
      <point x="981" y="179"/>
      <point x="830" y="179" type="curve" smooth="yes"/>
      <point x="770" y="179" type="line" smooth="yes"/>
      <point x="560" y="179"/>
      <point x="359" y="320"/>
      <point x="359" y="815" type="curve" smooth="yes"/>
      <point x="359" y="1310"/>
      <point x="560" y="1451"/>
    </contour>
    <contour>
      <point x="829" y="906" type="line"/>
      <point x="829" y="718" type="line"/>
      <point x="1377" y="718" type="line"/>
      <point x="1377" y="906" type="line"/>
    </contour>
    <contour>
      <point x="900" y="77" type="line"/>
      <point x="900" y="1545" type="line"/>
      <point x="700" y="1545" type="line"/>
      <point x="700" y="77" type="line"/>
    </contour>
  </outline>
</glyph>
<glyph name="uniA086" format="2">
  <advance width="1600"/>
  <unicode hex="A086"/>
  <outline>
    <contour>
      <point x="990" y="-27" type="curve" smooth="yes"/>
      <point x="1228" y="-27"/>
      <point x="1327" y="266"/>
      <point x="1327" y="896" type="curve" smooth="yes"/>
      <point x="1327" y="1527"/>
      <point x="1228" y="1820"/>
      <point x="990" y="1820" type="curve" smooth="yes"/>
      <point x="791" y="1820"/>
      <point x="689" y="1613"/>
      <point x="663" y="1184" type="curve"/>
      <point x="405" y="1175"/>
      <point x="210" y="1098"/>
      <point x="210" y="897" type="curve" smooth="yes"/>
      <point x="210" y="692"/>
      <point x="404" y="618"/>
      <point x="661" y="609" type="curve"/>
      <point x="690" y="178"/>
      <point x="791" y="-27"/>
    </contour>
    <contour>
      <point x="414" y="59" type="line"/>
      <point x="520" y="59" type="line"/>
      <point x="520" y="418" type="line"/>
      <point x="414" y="418" type="line"/>
    </contour>
    <contour>
      <point x="657" y="713" type="curve"/>
      <point x="413" y="723"/>
      <point x="317" y="791"/>
      <point x="317" y="897" type="curve" smooth="yes"/>
      <point x="317" y="1001"/>
      <point x="412" y="1069"/>
      <point x="656" y="1079" type="curve"/>
      <point x="654" y="1022"/>
      <point x="653" y="960"/>
      <point x="653" y="896" type="curve" smooth="yes"/>
      <point x="653" y="832"/>
      <point x="655" y="770"/>
    </contour>
    <contour>
      <point x="656" y="1079" type="line"/>
      <point x="657" y="1086" type="line"/>
      <point x="663" y="1080" type="line"/>
    </contour>
    <contour>
      <point x="990" y="77" type="curve" smooth="yes"/>
      <point x="872" y="77"/>
      <point x="760" y="233"/>
      <point x="760" y="896" type="curve" smooth="yes"/>
      <point x="760" y="1552"/>
      <point x="872" y="1716"/>
      <point x="990" y="1716" type="curve" smooth="yes"/>
      <point x="1107" y="1716"/>
      <point x="1220" y="1560"/>
      <point x="1220" y="896" type="curve" smooth="yes"/>
      <point x="1220" y="233"/>
      <point x="1107" y="77"/>
    </contour>
    <contour>
      <point x="414" y="1375" type="line"/>
      <point x="520" y="1375" type="line"/>
      <point x="520" y="1734" type="line"/>
      <point x="414" y="1734" type="line"/>
    </contour>
    <contour>
      <point x="568" y="1945" type="line"/>
      <point x="600" y="1983"/>
      <point x="699" y="2045"/>
      <point x="793" y="2045" type="curve" smooth="yes"/>
      <point x="892" y="2045"/>
      <point x="993" y="1982"/>
      <point x="1016" y="1951" type="curve"/>
      <point x="1104" y="2012" type="line"/>
      <point x="1061" y="2071"/>
      <point x="924" y="2150"/>
      <point x="793" y="2150" type="curve" smooth="yes"/>
      <point x="664" y="2150"/>
      <point x="535" y="2071"/>
      <point x="485" y="2012" type="curve"/>
    </contour>
  </outline>
</glyph>
<glyph name="uniA087" format="2">
  <advance width="1600"/>
  <unicode hex="A087"/>
  <anchor x="800" y="1900" name="top"/>
  <outline>
    <contour>
      <point x="370" y="46" type="line"/>
      <point x="564" y="46" type="line"/>
      <point x="564" y="424" type="line"/>
      <point x="370" y="424" type="line"/>
    </contour>
    <contour>
      <point x="370" y="1369" type="line"/>
      <point x="564" y="1369" type="line"/>
      <point x="564" y="1747" type="line"/>
      <point x="370" y="1747" type="line"/>
    </contour>
    <contour>
      <point x="627" y="900" type="curve" smooth="yes"/>
      <point x="627" y="252"/>
      <point x="764" y="-20"/>
      <point x="1010" y="-20" type="curve" smooth="yes"/>
      <point x="1256" y="-20"/>
      <point x="1392" y="252"/>
      <point x="1392" y="900" type="curve" smooth="yes"/>
      <point x="1392" y="1548"/>
      <point x="1256" y="1820"/>
      <point x="1010" y="1820" type="curve" smooth="yes"/>
      <point x="764" y="1820"/>
      <point x="627" y="1548"/>
    </contour>
    <contour>
      <point x="1010" y="1621" type="curve" smooth="yes"/>
      <point x="1103" y="1621"/>
      <point x="1190" y="1461"/>
      <point x="1190" y="900" type="curve" smooth="yes"/>
      <point x="1190" y="339"/>
      <point x="1103" y="179"/>
      <point x="1010" y="179" type="curve" smooth="yes"/>
      <point x="918" y="179"/>
      <point x="830" y="339"/>
      <point x="830" y="900" type="curve" smooth="yes"/>
      <point x="830" y="1461"/>
      <point x="918" y="1621"/>
    </contour>
    <contour>
      <point x="692" y="1059" type="curve"/>
      <point x="692" y="1252" type="line"/>
      <point x="359" y="1252"/>
      <point x="178" y="1090"/>
      <point x="178" y="896" type="curve" smooth="yes"/>
      <point x="178" y="702"/>
      <point x="359" y="540"/>
      <point x="692" y="540" type="curve"/>
      <point x="692" y="733" type="line"/>
      <point x="469" y="733"/>
      <point x="382" y="820"/>
      <point x="382" y="896" type="curve" smooth="yes"/>
      <point x="382" y="972"/>
      <point x="469" y="1059"/>
    </contour>
  </outline>
</glyph>
<glyph name="uniA088" format="2">
  <advance width="1600"/>
  <unicode hex="A088"/>
  <outline>
    <contour>
      <point x="899" y="0" type="line"/>
      <point x="899" y="1793" type="line"/>
      <point x="701" y="1793" type="line"/>
      <point x="701" y="0" type="line"/>
    </contour>
    <contour>
      <point x="968" y="733" type="line"/>
      <point x="1135" y="733" type="line"/>
      <point x="1135" y="1058" type="line"/>
      <point x="968" y="1058" type="line"/>
    </contour>
    <contour>
      <point x="165" y="896" type="curve" smooth="yes"/>
      <point x="165" y="564"/>
      <point x="389" y="286"/>
      <point x="800" y="286" type="curve" smooth="yes"/>
      <point x="1211" y="286"/>
      <point x="1435" y="564"/>
      <point x="1435" y="896" type="curve" smooth="yes"/>
      <point x="1435" y="1228"/>
      <point x="1211" y="1506"/>
      <point x="800" y="1506" type="curve" smooth="yes"/>
      <point x="389" y="1506"/>
      <point x="165" y="1228"/>
    </contour>
    <contour>
      <point x="1231" y="896" type="curve" smooth="yes"/>
      <point x="1231" y="702"/>
      <point x="1110" y="479"/>
      <point x="800" y="479" type="curve" smooth="yes"/>
      <point x="490" y="479"/>
      <point x="369" y="702"/>
      <point x="369" y="896" type="curve" smooth="yes"/>
      <point x="369" y="1090"/>
      <point x="490" y="1313"/>
      <point x="800" y="1313" type="curve" smooth="yes"/>
      <point x="1110" y="1313"/>
      <point x="1231" y="1090"/>
    </contour>
  </outline>
</glyph>
<glyph name="uniA08A" format="2">
  <advance width="1600"/>
  <unicode hex="A08A"/>
  <anchor x="800" y="1900" name="top"/>
  <outline>
    <contour>
      <point x="926" y="900" type="curve" smooth="yes"/>
      <point x="926" y="252"/>
      <point x="986" y="-20"/>
      <point x="1210" y="-20" type="curve" smooth="yes"/>
      <point x="1438" y="-20"/>
      <point x="1498" y="252"/>
      <point x="1498" y="900" type="curve" smooth="yes"/>
      <point x="1498" y="1548"/>
      <point x="1438" y="1820"/>
      <point x="1210" y="1820" type="curve" smooth="yes"/>
      <point x="986" y="1820"/>
      <point x="926" y="1548"/>
    </contour>
    <contour>
      <point x="1210" y="1621" type="curve" smooth="yes"/>
      <point x="1256" y="1621"/>
      <point x="1299" y="1461"/>
      <point x="1299" y="900" type="curve" smooth="yes"/>
      <point x="1299" y="339"/>
      <point x="1256" y="179"/>
      <point x="1210" y="179" type="curve" smooth="yes"/>
      <point x="1164" y="179"/>
      <point x="1121" y="339"/>
      <point x="1121" y="900" type="curve" smooth="yes"/>
      <point x="1121" y="1461"/>
      <point x="1164" y="1621"/>
    </contour>
    <contour>
      <point x="391" y="1621" type="curve" smooth="yes"/>
      <point x="437" y="1621"/>
      <point x="480" y="1461"/>
      <point x="480" y="900" type="curve" smooth="yes"/>
      <point x="480" y="339"/>
      <point x="437" y="179"/>
      <point x="391" y="179" type="curve" smooth="yes"/>
      <point x="345" y="179"/>
      <point x="302" y="339"/>
      <point x="302" y="900" type="curve" smooth="yes"/>
      <point x="302" y="1461"/>
      <point x="345" y="1621"/>
    </contour>
    <contour>
      <point x="717" y="42" type="line"/>
      <point x="884" y="42" type="line"/>
      <point x="884" y="429" type="line"/>
      <point x="717" y="429" type="line"/>
    </contour>
    <contour>
      <point x="658" y="988" type="line"/>
      <point x="658" y="804" type="line"/>
      <point x="945" y="804" type="line"/>
      <point x="945" y="988" type="line"/>
    </contour>
    <contour>
      <point x="102" y="900" type="curve" smooth="yes"/>
      <point x="102" y="252"/>
      <point x="163" y="-20"/>
      <point x="391" y="-20" type="curve" smooth="yes"/>
      <point x="615" y="-20"/>
      <point x="674" y="252"/>
      <point x="674" y="900" type="curve" smooth="yes"/>
      <point x="674" y="1548"/>
      <point x="615" y="1820"/>
      <point x="391" y="1820" type="curve" smooth="yes"/>
      <point x="163" y="1820"/>
      <point x="102" y="1548"/>
    </contour>
    <contour>
      <point x="717" y="1750" type="line"/>
      <point x="717" y="1363" type="line"/>
      <point x="884" y="1363" type="line"/>
      <point x="884" y="1750" type="line"/>
    </contour>
  </outline>
</glyph>
<glyph name="uniA08B" format="2">
  <advance width="1600"/>
  <unicode hex="A08B"/>
  <outline>
    <contour>
      <point x="1429" y="93" type="curve"/>
      <point x="1429" y="266" type="line"/>
      <point x="908" y="266"/>
      <point x="705" y="529"/>
      <point x="705" y="896" type="curve" smooth="yes"/>
      <point x="705" y="1263"/>
      <point x="908" y="1527"/>
      <point x="1429" y="1527" type="curve"/>
      <point x="1429" y="1699" type="line"/>
      <point x="831" y="1699"/>
      <point x="524" y="1332"/>
      <point x="524" y="896" type="curve" smooth="yes"/>
      <point x="524" y="460"/>
      <point x="842" y="93"/>
    </contour>
    <contour>
      <point x="648" y="1820" type="curve" smooth="yes"/>
      <point x="338" y="1820"/>
      <point x="185" y="1548"/>
      <point x="185" y="900" type="curve" smooth="yes"/>
      <point x="185" y="252"/>
      <point x="338" y="-20"/>
      <point x="648" y="-20" type="curve" smooth="yes"/>
      <point x="955" y="-20"/>
      <point x="1106" y="252"/>
      <point x="1106" y="900" type="curve" smooth="yes"/>
      <point x="1106" y="1548"/>
      <point x="955" y="1820"/>
    </contour>
    <contour>
      <point x="648" y="168" type="curve" smooth="yes"/>
      <point x="509" y="168"/>
      <point x="380" y="330"/>
      <point x="380" y="900" type="curve" smooth="yes"/>
      <point x="380" y="1470"/>
      <point x="503" y="1632"/>
      <point x="648" y="1632" type="curve" smooth="yes"/>
      <point x="783" y="1632"/>
      <point x="921" y="1470"/>
      <point x="921" y="900" type="curve" smooth="yes"/>
      <point x="921" y="330"/>
      <point x="790" y="168"/>
    </contour>
    <contour>
      <point x="1195" y="362" type="line"/>
      <point x="1362" y="362" type="line"/>
      <point x="1362" y="731" type="line"/>
      <point x="1195" y="731" type="line"/>
    </contour>
    <contour>
      <point x="1195" y="1061" type="line"/>
      <point x="1362" y="1061" type="line"/>
      <point x="1362" y="1430" type="line"/>
      <point x="1195" y="1430" type="line"/>
    </contour>
    <contour>
      <point x="689" y="982" type="line"/>
      <point x="689" y="810" type="line"/>
      <point x="1426" y="810" type="line"/>
      <point x="1426" y="982" type="line"/>
    </contour>
  </outline>
</glyph>
